<?xml version="1.0" standalone="yes"?>

<svg version="1.1" viewBox="0.0 0.0 854.2073490813648 477.88451443569556" fill="none" stroke="none" stroke-linecap="square" stroke-miterlimit="10" xmlns="http://www.w3.org/2000/svg" xmlns:xlink="http://www.w3.org/1999/xlink"><clipPath id="p.0"><path d="m0 0l854.20734 0l0 477.88452l-854.20734 0l0 -477.88452z" clip-rule="nonzero"></path></clipPath><g clip-path="url(#p.0)"><path fill="#000000" fill-opacity="0.0" d="m0 0l854.20734 0l0 477.88452l-854.20734 0z" fill-rule="evenodd"></path><path fill="#606c71" d="m235.1381 237.2203c3.982254 -1.081253 7.724045 -0.46295166 11.225357 1.8548584c3.5085754 2.3051453 6.0636444 6.406952 7.6651917 12.305466c1.6990967 6.2578278 1.6308441 11.275528 -0.20475769 15.053116c-1.8355865 3.777588 -4.7594757 6.2110596 -8.771683 7.3004456c-4.0421295 1.0975037 -7.8075104 0.4909668 -11.296143 -1.8195801c-3.491333 -2.3205261 -6.066208 -6.534851 -7.7246704 -12.642944c-1.6584473 -6.1081085 -1.5657959 -11.0359955 0.27792358 -14.783646c1.8437195 -3.7476501 4.7866516 -6.170212 8.828781 -7.2677155zm-1.8169708 -6.691971c-5.898529 1.6015472 -10.419159 4.725754 -13.561874 9.372635c-3.7560425 5.584976 -4.4349365 12.793869 -2.0366974 21.626648c2.1868744 8.054321 5.9175873 13.6640625 11.192139 16.829254c5.2845154 3.1624756 11.265289 3.8372803 17.942291 2.024353c4.161911 -1.1300049 7.7352295 -3.1450806 10.719971 -6.045166c2.9947205 -2.9028015 4.9333496 -6.360077 5.815918 -10.371857c0.889801 -4.024475 0.5014343 -9.105713 -1.1651306 -15.243759c-2.0568237 -7.575241 -5.7487793 -12.94368 -11.075943 -16.1053c-5.3298645 -3.1716003 -11.273422 -3.8672028 -17.830673 -2.0868073z" fill-rule="evenodd"></path><path fill="#606c71" d="m284.3868 216.66322c-4.1020203 1.1137543 -7.63678 3.1129913 -10.604248 5.9976654c-2.9602356 2.8720093 -4.7693176 6.470932 -5.4272766 10.796799c-0.657959 4.3258667 -0.28778076 9.063782 1.1105347 14.21376c2.1624756 7.9644775 5.804779 13.544647 10.92691 16.740509c5.1293945 3.1831665 10.957733 3.8886108 17.485046 2.1163635c5.2098694 -1.4145508 9.181305 -4.1539 11.914276 -8.218018c2.740265 -4.0767975 3.8006897 -8.972748 3.1812744 -14.687836l-8.230011 1.1254425c0.528595 4.196594 -0.0058288574 7.556595 -1.603241 10.080002c-1.5974426 2.523407 -3.9830933 4.2160034 -7.1569214 5.0777283c-3.952301 1.0731201 -7.550354 0.4908142 -10.794159 -1.7468872c-3.243805 -2.2377167 -5.735565 -6.5603333 -7.4753113 -12.96785c-1.7153625 -6.317688 -1.696167 -11.279205 0.057617188 -14.884552c1.7510376 -3.615326 4.6625977 -5.9757996 8.73468 -7.081436c2.6947632 -0.7316742 5.2098083 -0.54652405 7.545105 0.55545044c2.3453064 1.0992737 4.3271484 3.1491547 5.945587 6.1496735l7.5304565 -3.3466644c-2.2370605 -4.5685883 -5.3573914 -7.713211 -9.360992 -9.433853c-4.0062866 -1.7306366 -8.599396 -1.8927307 -13.779327 -0.4862976z" fill-rule="evenodd"></path><path fill="#606c71" d="m348.30417 225.97629l0.8048401 2.9642181c0.9674072 3.5630646 1.2649231 6.3756866 0.8925171 8.437897c-0.49554443 2.6743164 -1.7703247 5.024399 -3.8243408 7.050232c-2.0567627 2.015854 -4.64209 3.4465332 -7.7560425 4.2920074c-3.1438904 0.85362244 -5.7293396 0.78404236 -7.756378 -0.20874023c-2.0170593 -0.99549866 -3.3182678 -2.5711365 -3.903595 -4.726944c-0.38208008 -1.4072571 -0.3546753 -2.7863922 0.082214355 -4.13739c0.4342041 -1.3609924 1.258667 -2.5278778 2.4733887 -3.5006714c1.2147522 -0.97280884 3.4188232 -2.1499329 6.6123047 -3.5313873c5.6409607 -2.431778 9.765991 -4.6448517 12.375092 -6.639221zm-17.028534 -22.044098c-4.1020203 1.1137695 -7.5569153 2.6572876 -10.364624 4.6305695c-2.8104553 1.9633179 -4.75589 4.211502 -5.8363037 6.744568c-1.0831604 2.5230865 -1.5246887 5.573883 -1.324646 9.152405l8.197296 -1.0683136c-0.050354004 -3.6191711 0.647522 -6.3377075 2.0935974 -8.155609c1.4533386 -1.8305969 4.081299 -3.2621307 7.883911 -4.2946014c4.0720825 -1.1056213 7.3890686 -1.0256958 9.950958 0.23980713c1.8928833 0.9327545 3.286438 3.045929 4.1806946 6.3395233c0.08129883 0.29940796 0.25738525 1.0071106 0.52822876 2.1230774c-2.7913513 1.9152527 -7.3449707 4.1482544 -13.660919 6.699005c-3.0980835 1.2591095 -5.383667 2.3136902 -6.8567505 3.1637573c-1.9932251 1.1841583 -3.6946106 2.594513 -5.1042175 4.2310486c-1.3995972 1.6338196 -2.370514 3.5638275 -2.9127197 5.790024c-0.5349121 2.2134857 -0.48532104 4.487961 0.1487732 6.82341c1.0812378 3.982254 3.3773499 6.8737793 6.8883057 8.674591c3.5082703 1.7908325 7.8822937 1.9749146 13.122101 0.55223083c3.1738281 -0.8617554 6.0007935 -2.1919098 8.4808655 -3.990509c2.4900818 -1.8013153 4.886688 -4.380966 7.18985 -7.738983c0.84924316 2.180603 1.9206848 3.9954376 3.214325 5.4445496l8.443573 -2.2925568c-1.513916 -1.5500488 -2.7151794 -3.2707062 -3.6037598 -5.1619873c-0.88131714 -1.9039764 -2.3422546 -6.6136475 -4.382782 -14.129013l-2.9266968 -10.778992c-0.9755554 -3.5930023 -1.7850342 -6.04158 -2.4284973 -7.3457336c-1.080658 -2.085617 -2.4162903 -3.6894073 -4.006897 -4.8114166c-1.5932922 -1.1319733 -3.792572 -1.8315125 -6.597748 -2.0986328c-2.8052063 -0.2671051 -6.2438354 0.15214539 -10.315918 1.257782z" fill-rule="evenodd"></path><path fill="#606c71" d="m357.4518 178.50003l17.877075 65.84175l8.08429 -2.1950073l-17.877106 -65.84175z" fill-rule="evenodd"></path><path fill="#606c71" d="m378.11163 172.89056l2.524231 9.29689l8.08429 -2.194992l-2.5242615 -9.2969055zm4.926544 18.144669l12.950531 47.697098l8.08429 -2.1950073l-12.950531 -47.697098z" fill-rule="evenodd"></path><path fill="#606c71" d="m400.95834 186.16963l1.7803955 6.5572357l19.447174 -5.2802124c2.6348572 -0.7154083 5.6495667 -1.6304016 9.044098 -2.7449493l0 0l-20.89804 43.09558l1.7803955 6.5572205l42.217896 -11.462799l-1.8901672 -6.961441l-22.052094 5.987488c-3.1738281 0.8617401 -6.5356445 1.9191895 -10.085419 3.172348l3.485382 -6.877823l17.605682 -37.282852l-1.4511414 -5.3446045z" fill-rule="evenodd"></path><path fill="#606c71" d="m486.32074 188.50267l0.8048401 2.9642181c0.9674072 3.5630646 1.2649231 6.375702 0.8925171 8.437897c-0.49554443 2.6743164 -1.7703247 5.024399 -3.8243408 7.050247c-2.0567627 2.015854 -4.64209 3.446518 -7.7560425 4.2920074c-3.1438904 0.8536072 -5.7293396 0.7840271 -7.756378 -0.2087555c-2.0170593 -0.9954834 -3.3182678 -2.5711365 -3.903595 -4.7269287c-0.38208008 -1.4072571 -0.3546753 -2.7863922 0.082214355 -4.1374054c0.4342041 -1.3609924 1.258667 -2.5278778 2.4733887 -3.5006714c1.2147522 -0.9727936 3.4188232 -2.1499329 6.6123047 -3.5313873c5.6409607 -2.431778 9.765991 -4.6448517 12.375092 -6.639221zm-17.028534 -22.044098c-4.1020203 1.1137695 -7.5569153 2.6572876 -10.364624 4.6305847c-2.8104553 1.9633026 -4.75589 4.211487 -5.8363037 6.7445526c-1.0831604 2.5230865 -1.5246887 5.5738983 -1.324646 9.15242l8.197296 -1.0683289c-0.050354004 -3.6191711 0.647522 -6.3377075 2.0935974 -8.155609c1.4533386 -1.8305969 4.081299 -3.2621307 7.883911 -4.294586c4.0720825 -1.1056366 7.3890686 -1.025711 9.950958 0.23979187c1.8928528 0.9327698 3.286438 3.0459442 4.1806946 6.3395233c0.08129883 0.29942322 0.25735474 1.0071106 0.52822876 2.1230774c-2.7913513 1.9152527 -7.3449707 4.1482544 -13.660919 6.699005c-3.0980835 1.2591095 -5.383667 2.3137054 -6.8567505 3.1637573c-1.9932251 1.1841736 -3.6946106 2.594513 -5.1042175 4.2310486c-1.3995972 1.6338348 -2.370514 3.5638275 -2.9127197 5.790024c-0.5349426 2.2134857 -0.48532104 4.487961 0.1487732 6.8234253c1.0812378 3.9822388 3.3773499 6.873764 6.8883057 8.674591c3.5082703 1.7908325 7.8822937 1.9748993 13.122101 0.5522156c3.1738281 -0.8617401 6.0007935 -2.1919098 8.4808655 -3.990509c2.4900818 -1.8013153 4.886688 -4.380966 7.18985 -7.738968c0.84924316 2.1805878 1.9206848 3.9954376 3.214325 5.4445343l8.443573 -2.2925568c-1.513916 -1.5500336 -2.7151794 -3.2707062 -3.6037598 -5.1619873c-0.88131714 -1.9039764 -2.3422546 -6.6136475 -4.382782 -14.128998l-2.9266968 -10.779007c-0.9755554 -3.5930023 -1.7850342 -6.04158 -2.4284973 -7.3457336c-1.080658 -2.0856018 -2.4162903 -3.6894073 -4.006897 -4.8114014c-1.5932922 -1.1319733 -3.792572 -1.8315277 -6.597748 -2.0986328c-2.8052063 -0.26712036 -6.2438354 0.15214539 -10.315918 1.2577667z" fill-rule="evenodd"></path><path fill="#606c71" d="m505.57193 139.87453l-6.7223816 7.0333557l3.2071533 11.811996l-5.928467 1.6096649l1.7072144 6.2877502l5.9284973 -1.6096649l7.4508057 27.441544c1.3169861 4.8505554 2.5108337 7.944931 3.5814514 9.283127c1.0678711 1.3282013 2.536316 2.236908 4.4051514 2.7261047c1.8688965 0.48918152 4.270447 0.33543396 7.204773 -0.4612732c1.7965088 -0.4877777 3.767517 -1.2801361 5.913025 -2.3770447l-3.1066895 -6.8240356c-1.4102173 0.6079407 -2.5644531 1.0338593 -3.4627075 1.2777405c-1.1976929 0.3251953 -2.173706 0.3812256 -2.9281616 0.1681366c-0.7444458 -0.21580505 -1.350769 -0.6137848 -1.8190918 -1.1939087c-0.458313 -0.58283997 -1.0004272 -2.0270233 -1.6264648 -4.3325195l-7.572754 -27.890686l8.129211 -2.207199l-1.7072144 -6.2877502l-8.129211 2.207199l-4.5241394 -16.662537z" fill-rule="evenodd"></path><path fill="#606c71" d="m521.2482 134.02678l2.524231 9.2969055l8.08429 -2.1950073l-2.524231 -9.29689zm4.9265747 18.144669l12.9505005 47.697098l8.08429 -2.1950073l-12.9505005 -47.697098z" fill-rule="evenodd"></path><path fill="#606c71" d="m567.4468 146.99341c3.9822998 -1.081253 7.72406 -0.46296692 11.225403 1.8548584c3.508545 2.30513 6.0635986 6.406952 7.665161 12.305466c1.6990967 6.2578125 1.6308594 11.275513 -0.20477295 15.053101c-1.8355713 3.777588 -4.7594604 6.211075 -8.7716675 7.3004456c-4.0421143 1.0975037 -7.807495 0.49098206 -11.296143 -1.8195648c-3.491333 -2.3205414 -6.066223 -6.534851 -7.7246704 -12.64296c-1.6584473 -6.1081085 -1.5657959 -11.03598 0.2779541 -14.78363c1.843689 -3.7476501 4.786621 -6.170227 8.828735 -7.2677155zm-1.8169556 -6.691971c-5.8984985 1.601532 -10.419128 4.725754 -13.56189 9.372635c-3.7560425 5.584976 -4.4349365 12.793869 -2.0366821 21.626663c2.1868896 8.054306 5.9176025 13.6640625 11.192139 16.829254c5.284546 3.1624756 11.265259 3.8372498 17.942322 2.0243378c4.161865 -1.1300201 7.7352295 -3.1450653 10.719971 -6.0451508c2.99469 -2.9028015 4.9333496 -6.360092 5.815857 -10.371872c0.88983154 -4.02446 0.50146484 -9.105713 -1.1651001 -15.243759c-2.0568237 -7.575241 -5.7487793 -12.94368 -11.075928 -16.1053c-5.329895 -3.1716003 -11.2734375 -3.8672028 -17.830688 -2.0868073z" fill-rule="evenodd"></path><path fill="#606c71" d="m619.8843 125.57051c-6.6171265 1.7966537 -10.965942 5.7904663 -13.046387 11.98143l-1.8413696 -6.7817993l-7.275879 1.9755096l12.950562 47.697098l8.0842285 -2.1950073l-7.072754 -26.049255c-1.6584473 -6.1081085 -1.5368652 -10.593765 0.36480713 -13.456985c1.9116821 -2.865921 4.5891724 -4.766342 8.032471 -5.701248c2.1558228 -0.58532715 4.164978 -0.6057434 6.027405 -0.06123352c1.869751 0.53182983 3.3411865 1.5307922 4.4144287 2.996872c1.0704346 1.4561157 2.0528564 3.8309631 2.9470825 7.124542l7.8776245 29.013489l8.08429 -2.1950073l-7.9629517 -29.327866c-1.0162354 -3.7427216 -1.8772583 -6.3219604 -2.583191 -7.737747c-1.1050415 -2.1754456 -2.4840698 -3.9389343 -4.136963 -5.2904816c-1.6529541 -1.3515472 -3.8265991 -2.2134247 -6.521057 -2.5856323c-2.6871338 -0.38489532 -5.4678955 -0.18711853 -8.342346 0.59332275z" fill-rule="evenodd"></path><path stroke="#ffffff" stroke-width="1.0" stroke-linejoin="round" stroke-linecap="butt" d="m235.1381 237.2203c3.982254 -1.081253 7.724045 -0.46295166 11.225357 1.8548584c3.5085754 2.3051453 6.0636444 6.406952 7.6651917 12.305466c1.6990967 6.2578278 1.6308441 11.275528 -0.20475769 15.053116c-1.8355865 3.777588 -4.7594757 6.2110596 -8.771683 7.3004456c-4.0421295 1.0975037 -7.8075104 0.4909668 -11.296143 -1.8195801c-3.491333 -2.3205261 -6.066208 -6.534851 -7.7246704 -12.642944c-1.6584473 -6.1081085 -1.5657959 -11.0359955 0.27792358 -14.783646c1.8437195 -3.7476501 4.7866516 -6.170212 8.828781 -7.2677155zm-1.8169708 -6.691971c-5.898529 1.6015472 -10.419159 4.725754 -13.561874 9.372635c-3.7560425 5.584976 -4.4349365 12.793869 -2.0366974 21.626648c2.1868744 8.054321 5.9175873 13.6640625 11.192139 16.829254c5.2845154 3.1624756 11.265289 3.8372803 17.942291 2.024353c4.161911 -1.1300049 7.7352295 -3.1450806 10.719971 -6.045166c2.9947205 -2.9028015 4.9333496 -6.360077 5.815918 -10.371857c0.889801 -4.024475 0.5014343 -9.105713 -1.1651306 -15.243759c-2.0568237 -7.575241 -5.7487793 -12.94368 -11.075943 -16.1053c-5.3298645 -3.1716003 -11.273422 -3.8672028 -17.830673 -2.0868073z" fill-rule="evenodd"></path><path stroke="#ffffff" stroke-width="1.0" stroke-linejoin="round" stroke-linecap="butt" d="m284.3868 216.66322c-4.1020203 1.1137543 -7.63678 3.1129913 -10.604248 5.9976654c-2.9602356 2.8720093 -4.7693176 6.470932 -5.4272766 10.796799c-0.657959 4.3258667 -0.28778076 9.063782 1.1105347 14.21376c2.1624756 7.9644775 5.804779 13.544647 10.92691 16.740509c5.1293945 3.1831665 10.957733 3.8886108 17.485046 2.1163635c5.2098694 -1.4145508 9.181305 -4.1539 11.914276 -8.218018c2.740265 -4.0767975 3.8006897 -8.972748 3.1812744 -14.687836l-8.230011 1.1254425c0.528595 4.196594 -0.0058288574 7.556595 -1.603241 10.080002c-1.5974426 2.523407 -3.9830933 4.2160034 -7.1569214 5.0777283c-3.952301 1.0731201 -7.550354 0.4908142 -10.794159 -1.7468872c-3.243805 -2.2377167 -5.735565 -6.5603333 -7.4753113 -12.96785c-1.7153625 -6.317688 -1.696167 -11.279205 0.057617188 -14.884552c1.7510376 -3.615326 4.6625977 -5.9757996 8.73468 -7.081436c2.6947632 -0.7316742 5.2098083 -0.54652405 7.545105 0.55545044c2.3453064 1.0992737 4.3271484 3.1491547 5.945587 6.1496735l7.5304565 -3.3466644c-2.2370605 -4.5685883 -5.3573914 -7.713211 -9.360992 -9.433853c-4.0062866 -1.7306366 -8.599396 -1.8927307 -13.779327 -0.4862976z" fill-rule="evenodd"></path><path stroke="#ffffff" stroke-width="1.0" stroke-linejoin="round" stroke-linecap="butt" d="m348.30417 225.97629l0.8048401 2.9642181c0.9674072 3.5630646 1.2649231 6.3756866 0.8925171 8.437897c-0.49554443 2.6743164 -1.7703247 5.024399 -3.8243408 7.050232c-2.0567627 2.015854 -4.64209 3.4465332 -7.7560425 4.2920074c-3.1438904 0.85362244 -5.7293396 0.78404236 -7.756378 -0.20874023c-2.0170593 -0.99549866 -3.3182678 -2.5711365 -3.903595 -4.726944c-0.38208008 -1.4072571 -0.3546753 -2.7863922 0.082214355 -4.13739c0.4342041 -1.3609924 1.258667 -2.5278778 2.4733887 -3.5006714c1.2147522 -0.97280884 3.4188232 -2.1499329 6.6123047 -3.5313873c5.6409607 -2.431778 9.765991 -4.6448517 12.375092 -6.639221zm-17.028534 -22.044098c-4.1020203 1.1137695 -7.5569153 2.6572876 -10.364624 4.6305695c-2.8104553 1.9633179 -4.75589 4.211502 -5.8363037 6.744568c-1.0831604 2.5230865 -1.5246887 5.573883 -1.324646 9.152405l8.197296 -1.0683136c-0.050354004 -3.6191711 0.647522 -6.3377075 2.0935974 -8.155609c1.4533386 -1.8305969 4.081299 -3.2621307 7.883911 -4.2946014c4.0720825 -1.1056213 7.3890686 -1.0256958 9.950958 0.23980713c1.8928833 0.9327545 3.286438 3.045929 4.1806946 6.3395233c0.08129883 0.29940796 0.25738525 1.0071106 0.52822876 2.1230774c-2.7913513 1.9152527 -7.3449707 4.1482544 -13.660919 6.699005c-3.0980835 1.2591095 -5.383667 2.3136902 -6.8567505 3.1637573c-1.9932251 1.1841583 -3.6946106 2.594513 -5.1042175 4.2310486c-1.3995972 1.6338196 -2.370514 3.5638275 -2.9127197 5.790024c-0.5349121 2.2134857 -0.48532104 4.487961 0.1487732 6.82341c1.0812378 3.982254 3.3773499 6.8737793 6.8883057 8.674591c3.5082703 1.7908325 7.8822937 1.9749146 13.122101 0.55223083c3.1738281 -0.8617554 6.0007935 -2.1919098 8.4808655 -3.990509c2.4900818 -1.8013153 4.886688 -4.380966 7.18985 -7.738983c0.84924316 2.180603 1.9206848 3.9954376 3.214325 5.4445496l8.443573 -2.2925568c-1.513916 -1.5500488 -2.7151794 -3.2707062 -3.6037598 -5.1619873c-0.88131714 -1.9039764 -2.3422546 -6.6136475 -4.382782 -14.129013l-2.9266968 -10.778992c-0.9755554 -3.5930023 -1.7850342 -6.04158 -2.4284973 -7.3457336c-1.080658 -2.085617 -2.4162903 -3.6894073 -4.006897 -4.8114166c-1.5932922 -1.1319733 -3.792572 -1.8315125 -6.597748 -2.0986328c-2.8052063 -0.2671051 -6.2438354 0.15214539 -10.315918 1.257782z" fill-rule="evenodd"></path><path stroke="#ffffff" stroke-width="1.0" stroke-linejoin="round" stroke-linecap="butt" d="m357.4518 178.50003l17.877075 65.84175l8.08429 -2.1950073l-17.877106 -65.84175z" fill-rule="evenodd"></path><path stroke="#ffffff" stroke-width="1.0" stroke-linejoin="round" stroke-linecap="butt" d="m378.11163 172.89056l2.524231 9.29689l8.08429 -2.194992l-2.5242615 -9.2969055zm4.926544 18.144669l12.950531 47.697098l8.08429 -2.1950073l-12.950531 -47.697098z" fill-rule="evenodd"></path><path stroke="#ffffff" stroke-width="1.0" stroke-linejoin="round" stroke-linecap="butt" d="m400.95834 186.16963l1.7803955 6.5572357l19.447174 -5.2802124c2.6348572 -0.7154083 5.6495667 -1.6304016 9.044098 -2.7449493l0 0l-20.89804 43.09558l1.7803955 6.5572205l42.217896 -11.462799l-1.8901672 -6.961441l-22.052094 5.987488c-3.1738281 0.8617401 -6.5356445 1.9191895 -10.085419 3.172348l3.485382 -6.877823l17.605682 -37.282852l-1.4511414 -5.3446045z" fill-rule="evenodd"></path><path stroke="#ffffff" stroke-width="1.0" stroke-linejoin="round" stroke-linecap="butt" d="m486.32074 188.50267l0.8048401 2.9642181c0.9674072 3.5630646 1.2649231 6.375702 0.8925171 8.437897c-0.49554443 2.6743164 -1.7703247 5.024399 -3.8243408 7.050247c-2.0567627 2.015854 -4.64209 3.446518 -7.7560425 4.2920074c-3.1438904 0.8536072 -5.7293396 0.7840271 -7.756378 -0.2087555c-2.0170593 -0.9954834 -3.3182678 -2.5711365 -3.903595 -4.7269287c-0.38208008 -1.4072571 -0.3546753 -2.7863922 0.082214355 -4.1374054c0.4342041 -1.3609924 1.258667 -2.5278778 2.4733887 -3.5006714c1.2147522 -0.9727936 3.4188232 -2.1499329 6.6123047 -3.5313873c5.6409607 -2.431778 9.765991 -4.6448517 12.375092 -6.639221zm-17.028534 -22.044098c-4.1020203 1.1137695 -7.5569153 2.6572876 -10.364624 4.6305847c-2.8104553 1.9633026 -4.75589 4.211487 -5.8363037 6.7445526c-1.0831604 2.5230865 -1.5246887 5.5738983 -1.324646 9.15242l8.197296 -1.0683289c-0.050354004 -3.6191711 0.647522 -6.3377075 2.0935974 -8.155609c1.4533386 -1.8305969 4.081299 -3.2621307 7.883911 -4.294586c4.0720825 -1.1056366 7.3890686 -1.025711 9.950958 0.23979187c1.8928528 0.9327698 3.286438 3.0459442 4.1806946 6.3395233c0.08129883 0.29942322 0.25735474 1.0071106 0.52822876 2.1230774c-2.7913513 1.9152527 -7.3449707 4.1482544 -13.660919 6.699005c-3.0980835 1.2591095 -5.383667 2.3137054 -6.8567505 3.1637573c-1.9932251 1.1841736 -3.6946106 2.594513 -5.1042175 4.2310486c-1.3995972 1.6338348 -2.370514 3.5638275 -2.9127197 5.790024c-0.5349426 2.2134857 -0.48532104 4.487961 0.1487732 6.8234253c1.0812378 3.9822388 3.3773499 6.873764 6.8883057 8.674591c3.5082703 1.7908325 7.8822937 1.9748993 13.122101 0.5522156c3.1738281 -0.8617401 6.0007935 -2.1919098 8.4808655 -3.990509c2.4900818 -1.8013153 4.886688 -4.380966 7.18985 -7.738968c0.84924316 2.1805878 1.9206848 3.9954376 3.214325 5.4445343l8.443573 -2.2925568c-1.513916 -1.5500336 -2.7151794 -3.2707062 -3.6037598 -5.1619873c-0.88131714 -1.9039764 -2.3422546 -6.6136475 -4.382782 -14.128998l-2.9266968 -10.779007c-0.9755554 -3.5930023 -1.7850342 -6.04158 -2.4284973 -7.3457336c-1.080658 -2.0856018 -2.4162903 -3.6894073 -4.006897 -4.8114014c-1.5932922 -1.1319733 -3.792572 -1.8315277 -6.597748 -2.0986328c-2.8052063 -0.26712036 -6.2438354 0.15214539 -10.315918 1.2577667z" fill-rule="evenodd"></path><path stroke="#ffffff" stroke-width="1.0" stroke-linejoin="round" stroke-linecap="butt" d="m505.57193 139.87453l-6.7223816 7.0333557l3.2071533 11.811996l-5.928467 1.6096649l1.7072144 6.2877502l5.9284973 -1.6096649l7.4508057 27.441544c1.3169861 4.8505554 2.5108337 7.944931 3.5814514 9.283127c1.0678711 1.3282013 2.536316 2.236908 4.4051514 2.7261047c1.8688965 0.48918152 4.270447 0.33543396 7.204773 -0.4612732c1.7965088 -0.4877777 3.767517 -1.2801361 5.913025 -2.3770447l-3.1066895 -6.8240356c-1.4102173 0.6079407 -2.5644531 1.0338593 -3.4627075 1.2777405c-1.1976929 0.3251953 -2.173706 0.3812256 -2.9281616 0.1681366c-0.7444458 -0.21580505 -1.350769 -0.6137848 -1.8190918 -1.1939087c-0.458313 -0.58283997 -1.0004272 -2.0270233 -1.6264648 -4.3325195l-7.572754 -27.890686l8.129211 -2.207199l-1.7072144 -6.2877502l-8.129211 2.207199l-4.5241394 -16.662537z" fill-rule="evenodd"></path><path stroke="#ffffff" stroke-width="1.0" stroke-linejoin="round" stroke-linecap="butt" d="m521.2482 134.02678l2.524231 9.2969055l8.08429 -2.1950073l-2.524231 -9.29689zm4.9265747 18.144669l12.9505005 47.697098l8.08429 -2.1950073l-12.9505005 -47.697098z" fill-rule="evenodd"></path><path stroke="#ffffff" stroke-width="1.0" stroke-linejoin="round" stroke-linecap="butt" d="m567.4468 146.99341c3.9822998 -1.081253 7.72406 -0.46296692 11.225403 1.8548584c3.508545 2.30513 6.0635986 6.406952 7.665161 12.305466c1.6990967 6.2578125 1.6308594 11.275513 -0.20477295 15.053101c-1.8355713 3.777588 -4.7594604 6.211075 -8.7716675 7.3004456c-4.0421143 1.0975037 -7.807495 0.49098206 -11.296143 -1.8195648c-3.491333 -2.3205414 -6.066223 -6.534851 -7.7246704 -12.64296c-1.6584473 -6.1081085 -1.5657959 -11.03598 0.2779541 -14.78363c1.843689 -3.7476501 4.786621 -6.170227 8.828735 -7.2677155zm-1.8169556 -6.691971c-5.8984985 1.601532 -10.419128 4.725754 -13.56189 9.372635c-3.7560425 5.584976 -4.4349365 12.793869 -2.0366821 21.626663c2.1868896 8.054306 5.9176025 13.6640625 11.192139 16.829254c5.284546 3.1624756 11.265259 3.8372498 17.942322 2.0243378c4.161865 -1.1300201 7.7352295 -3.1450653 10.719971 -6.0451508c2.99469 -2.9028015 4.9333496 -6.360092 5.815857 -10.371872c0.88983154 -4.02446 0.50146484 -9.105713 -1.1651001 -15.243759c-2.0568237 -7.575241 -5.7487793 -12.94368 -11.075928 -16.1053c-5.329895 -3.1716003 -11.2734375 -3.8672028 -17.830688 -2.0868073z" fill-rule="evenodd"></path><path stroke="#ffffff" stroke-width="1.0" stroke-linejoin="round" stroke-linecap="butt" d="m619.8843 125.57051c-6.6171265 1.7966537 -10.965942 5.7904663 -13.046387 11.98143l-1.8413696 -6.7817993l-7.275879 1.9755096l12.950562 47.697098l8.0842285 -2.1950073l-7.072754 -26.049255c-1.6584473 -6.1081085 -1.5368652 -10.593765 0.36480713 -13.456985c1.9116821 -2.865921 4.5891724 -4.766342 8.032471 -5.701248c2.1558228 -0.58532715 4.164978 -0.6057434 6.027405 -0.06123352c1.869751 0.53182983 3.3411865 1.5307922 4.4144287 2.996872c1.0704346 1.4561157 2.0528564 3.8309631 2.9470825 7.124542l7.8776245 29.013489l8.08429 -2.1950073l-7.9629517 -29.327866c-1.0162354 -3.7427216 -1.8772583 -6.3219604 -2.583191 -7.737747c-1.1050415 -2.1754456 -2.4840698 -3.9389343 -4.136963 -5.2904816c-1.6529541 -1.3515472 -3.8265991 -2.2134247 -6.521057 -2.5856323c-2.6871338 -0.38489532 -5.4678955 -0.18711853 -8.342346 0.59332275z" fill-rule="evenodd"></path><path fill="#606c71" d="m309.62622 312.37073c-6.956909 1.888916 -11.529022 6.087799 -13.716339 12.596649l-1.9359436 -7.1300354l-7.6494446 2.0769653l13.61554 50.14627l8.49939 -2.3077087l-7.435974 -27.386871c-1.7436218 -6.421753 -1.6157532 -11.137726 0.38357544 -14.14798c2.0098267 -3.0130615 4.8247986 -5.011078 8.444916 -5.993988c2.26651 -0.61538696 4.378784 -0.6368408 6.3368835 -0.06439209c1.9657593 0.55914307 3.5127869 1.6094055 4.641083 3.1507568c1.1254578 1.5308838 2.1582642 4.0276794 3.0984497 7.490387l8.282135 30.503296l8.49939 -2.3077087l-8.371857 -30.833832c-1.0683899 -3.934906 -1.9736633 -6.646576 -2.7158203 -8.135071c-1.1618042 -2.28714 -2.6116028 -4.141205 -4.3493958 -5.562134c-1.7378235 -1.4209595 -4.023102 -2.3270874 -6.8558655 -2.7184143c-2.8251343 -0.4046631 -5.7487183 -0.19671631 -8.770721 0.6238098z" fill-rule="evenodd"></path><path fill="#606c71" d="m360.6441 306.07285c3.8719482 -1.0513 7.5659485 -0.33050537 11.082001 2.1624146c3.5160828 2.49292 6.205719 7.170624 8.069 14.033051c1.6923218 6.2328796 1.6504517 11.224091 -0.12561035 14.973633c-1.7684021 3.736206 -4.5098877 6.1085815 -8.224457 7.117157c-3.683075 1.0 -7.309845 0.27783203 -10.88031 -2.166504c-3.570465 -2.444336 -6.2275085 -6.8773804 -7.9711 -13.299133c-1.8034668 -6.6421204 -1.8595581 -11.848938 -0.16833496 -15.620514c1.7016907 -3.774414 4.4413147 -6.174469 8.218811 -7.2001038zm6.2502747 -28.517212l6.7436523 24.837036c-2.0350647 -1.6444092 -4.4054565 -2.7809448 -7.1111145 -3.4095764c-2.7085266 -0.63912964 -5.5737915 -0.5484314 -8.595795 0.27209473c-4.1237793 1.11969 -7.559204 3.2185364 -10.306244 6.2966003c-2.7470703 3.0780334 -4.400635 6.8844604 -4.960785 11.4192505c-0.56295776 4.5243225 -0.16494751 9.2890625 1.1940308 14.2942505c1.3931885 5.131073 3.5449524 9.425293 6.4553223 12.882599c2.9180298 3.4439392 6.349823 5.813263 10.29541 7.107971c3.9560852 1.2918396 7.933075 1.3950195 11.930939 0.3095398c6.169922 -1.6752319 10.169373 -5.431305 11.998322 -11.26828l1.7179565 6.327301l7.885559 -2.1410522l-18.795074 -69.222626z" fill-rule="evenodd"></path><path stroke="#ffffff" stroke-width="1.0" stroke-linejoin="round" stroke-linecap="butt" d="m309.62622 312.37073c-6.956909 1.888916 -11.529022 6.087799 -13.716339 12.596649l-1.9359436 -7.1300354l-7.6494446 2.0769653l13.61554 50.14627l8.49939 -2.3077087l-7.435974 -27.386871c-1.7436218 -6.421753 -1.6157532 -11.137726 0.38357544 -14.14798c2.0098267 -3.0130615 4.8247986 -5.011078 8.444916 -5.993988c2.26651 -0.61538696 4.378784 -0.6368408 6.3368835 -0.06439209c1.9657593 0.55914307 3.5127869 1.6094055 4.641083 3.1507568c1.1254578 1.5308838 2.1582642 4.0276794 3.0984497 7.490387l8.282135 30.503296l8.49939 -2.3077087l-8.371857 -30.833832c-1.0683899 -3.934906 -1.9736633 -6.646576 -2.7158203 -8.135071c-1.1618042 -2.28714 -2.6116028 -4.141205 -4.3493958 -5.562134c-1.7378235 -1.4209595 -4.023102 -2.3270874 -6.8558655 -2.7184143c-2.8251343 -0.4046631 -5.7487183 -0.19671631 -8.770721 0.6238098z" fill-rule="evenodd"></path><path stroke="#ffffff" stroke-width="1.0" stroke-linejoin="round" stroke-linecap="butt" d="m360.6441 306.07285c3.8719482 -1.0513 7.5659485 -0.33050537 11.082001 2.1624146c3.5160828 2.49292 6.205719 7.170624 8.069 14.033051c1.6923218 6.2328796 1.6504517 11.224091 -0.12561035 14.973633c-1.7684021 3.736206 -4.5098877 6.1085815 -8.224457 7.117157c-3.683075 1.0 -7.309845 0.27783203 -10.88031 -2.166504c-3.570465 -2.444336 -6.2275085 -6.8773804 -7.9711 -13.299133c-1.8034668 -6.6421204 -1.8595581 -11.848938 -0.16833496 -15.620514c1.7016907 -3.774414 4.4413147 -6.174469 8.218811 -7.2001038zm6.2502747 -28.517212l6.7436523 24.837036c-2.0350647 -1.6444092 -4.4054565 -2.7809448 -7.1111145 -3.4095764c-2.7085266 -0.63912964 -5.5737915 -0.5484314 -8.595795 0.27209473c-4.1237793 1.11969 -7.559204 3.2185364 -10.306244 6.2966003c-2.7470703 3.0780334 -4.400635 6.8844604 -4.960785 11.4192505c-0.56295776 4.5243225 -0.16494751 9.2890625 1.1940308 14.2942505c1.3931885 5.131073 3.5449524 9.425293 6.4553223 12.882599c2.9180298 3.4439392 6.349823 5.813263 10.29541 7.107971c3.9560852 1.2918396 7.933075 1.3950195 11.930939 0.3095398c6.169922 -1.6752319 10.169373 -5.431305 11.998322 -11.26828l1.7179565 6.327301l7.885559 -2.1410522l-18.795074 -69.222626z" fill-rule="evenodd"></path><path fill="#f3f6fa" d="m0.5407948 38.511368l32.87106 84.839554l11.516445 0l33.218285 -84.839554l-11.458572 0l-22.917145 61.633102c-1.7361488 4.629715 -3.2600975 9.25943 -4.5718536 13.889145c-1.1960144 -4.321068 -2.681385 -8.950783 -4.456112 -13.889145l-22.049074 -61.633102z" fill-rule="evenodd"></path><path fill="#606c71" d="m153.34093 127.91276l2.8553314 10.516335l9.144669 -2.482895l-2.8553314 -10.516342zm5.5727234 20.524635l14.649109 53.95337l9.144669 -2.482895l-14.649109 -53.95337z" fill-rule="evenodd"></path><path fill="#606c71" d="m206.18565 134.29324c-3.5901337 0.97476196 -6.571594 2.6509857 -8.944397 5.0286713c-2.3758545 2.366394 -4.05188 5.1003876 -5.0280457 8.201965l-2.0552979 -7.5697327l-8.179382 2.2208252l14.649094 53.95337l9.144669 -2.482895l-7.6004333 -27.992767c-1.3334045 -4.9110107 -1.8630524 -8.8038025 -1.5889282 -11.678406c0.2741089 -2.8746033 1.3167114 -5.28508 3.1277924 -7.2314453c1.8223572 -1.9494324 4.020569 -3.27359 6.5946198 -3.9724731c3.386917 -0.91960144 6.1013794 -0.56562805 8.143372 1.0618896c2.0419922 1.6275177 3.614746 4.473419 4.7182617 8.537704l9.5177765 35.05446l9.144653 -2.4829102l-8.5108185 -31.34578c-1.5081329 -5.554535 -1.3508148 -9.930832 0.47192383 -13.128937c1.8196869 -3.209381 4.6262054 -5.3290405 8.41954 -6.3589935c2.0998993 -0.57014465 4.0621643 -0.57562256 5.8868256 -0.016433716c1.8246613 0.55918884 3.2496948 1.5662994 4.2751007 3.0213318c1.0336304 1.4406738 2.0470276 3.9899292 3.0401764 7.6477814l9.228104 33.98758l9.093872 -2.469101l-10.055756 -37.03578c-1.673645 -6.1641693 -4.351471 -10.334381 -8.033463 -12.51062c-3.6850433 -2.1875305 -8.203232 -2.5548172 -13.55455 -1.10186c-6.841568 1.8575745 -11.540878 6.515526 -14.097946 13.973854c-1.8591766 -2.695404 -4.295456 -4.5249786 -7.3088226 -5.488739c-3.0020752 -0.9668274 -6.5013885 -0.9076843 -10.49794 0.17744446z" fill-rule="evenodd"></path><path fill="#606c71" d="m268.44638 118.697784l9.0763855 33.42874c1.0575256 3.894928 2.0162659 6.6893616 2.8762207 8.383255c1.2683716 2.5285187 2.8200073 4.537674 4.654907 6.027481c1.8431091 1.4754486 4.307556 2.4488373 7.39328 2.9201965c3.097046 0.46827698 6.2373962 0.2702179 9.421112 -0.5941925c7.2141113 -1.9587402 12.093445 -6.5564575 14.637939 -13.793182l2.1518555 7.925354l8.179382 -2.22081l-14.649109 -53.953377l-9.144653 2.4829025l7.8487244 28.907211c1.2506409 4.606201 1.703064 8.259338 1.3573303 10.959427c-0.3375244 2.6857452 -1.5170288 5.060669 -3.5385742 7.1247864c-2.0246277 2.052826 -4.4086304 3.4516754 -7.152008 4.1965485c-2.7434082 0.74487305 -5.231964 0.6871643 -7.4656677 -0.17311096c-2.2367554 -0.8715668 -3.9694824 -2.4315338 -5.198181 -4.679901c-0.82315063 -1.5584259 -1.8830566 -4.725403 -3.1796875 -9.500946l-8.124573 -29.923286z" fill-rule="evenodd"></path><path fill="#606c71" d="m320.73904 82.461914l20.221832 74.47801l9.144653 -2.482895l-20.221802 -74.47801z" fill-rule="evenodd"></path><path fill="#606c71" d="m355.2835 74.88274l-7.6040955 7.9558945l3.627777 13.361328l-6.706085 1.8207932l1.9311523 7.112503l6.706085 -1.8207932l8.42804 31.040962c1.4897461 5.486786 2.840149 8.987045 4.051178 10.500763c1.2080078 1.5024261 2.868988 2.5303192 4.9830017 3.0836792c2.1140137 0.55336 4.830597 0.3794403 8.14975 -0.52175903c2.0321655 -0.55174255 4.261688 -1.4480286 6.6885986 -2.6888123l-3.5140991 -7.7191315c-1.5952148 0.6876831 -2.900879 1.1694641 -3.9169312 1.445343c-1.3547668 0.36784363 -2.4588623 0.43122864 -3.3122253 0.19017029c-0.84210205 -0.2441101 -1.5279846 -0.6942749 -2.0577087 -1.3505096c-0.5184326 -0.6592865 -1.1316528 -2.2928925 -1.8397522 -4.9008026l-8.5660095 -31.549011l9.195465 -2.4966888l-1.9311218 -7.112503l-9.195465 2.4966965l-5.1175537 -18.848122z" fill-rule="evenodd"></path><path fill="#606c71" d="m420.27982 106.32927l0.9104004 3.353035c1.0942993 4.030411 1.4308472 7.2119675 1.0095825 9.544662c-0.5605469 3.025093 -2.002533 5.6834183 -4.325989 7.9749756c-2.3265076 2.2802658 -5.2509766 3.8985825 -8.773346 4.854973c-3.5562744 0.9655609 -6.4808655 0.8868561 -8.773773 -0.23616028c-2.2816467 -1.1260681 -3.7535095 -2.9083862 -4.4155884 -5.3469543c-0.43222046 -1.5918427 -0.4012146 -3.1518707 0.09298706 -4.680084c0.49118042 -1.5394974 1.4237671 -2.8594437 2.797821 -3.9598389c1.3740845 -1.1003952 3.867279 -2.4319153 7.4796143 -3.9945679c6.3808594 -2.7507324 11.046967 -5.2540817 13.998291 -7.5100403zm-19.262054 -24.935562c-4.6400757 1.2598343 -8.548096 3.0058136 -11.724121 5.2379227c-3.1790771 2.2208176 -5.379669 4.763893 -6.601837 7.629204c-1.2252197 2.8540344 -1.7247009 6.3050003 -1.4984131 10.352898l9.272522 -1.208435c-0.0569458 -4.0938797 0.7324524 -7.1689987 2.368225 -9.225349c1.6439514 -2.070694 4.616638 -3.6899948 8.91803 -4.857872c4.606201 -1.2506485 8.358246 -1.1602249 11.256165 0.27127075c2.1411438 1.0551147 3.7174988 3.445465 4.7290344 7.1710587c0.09197998 0.3386917 0.2911377 1.1392136 0.59750366 2.4015656c-3.1574402 2.1664658 -8.30838 4.6923447 -15.452759 7.577652c-3.504425 1.424263 -6.089813 2.6171722 -7.756134 3.57872c-2.2546692 1.3394852 -4.1792297 2.9348297 -5.773712 4.7860184c-1.5831909 1.8481216 -2.6814575 4.031273 -3.2947693 6.5494614c-0.60513306 2.50383 -0.54901123 5.0766373 0.16824341 7.7184296c1.2230835 4.5045776 3.820343 7.7753754 7.791809 9.812408c3.9684143 2.0257416 8.916199 2.2339783 14.843292 0.62467957c3.5901184 -0.97476196 6.7878723 -2.4794006 9.593262 -4.5139008c2.816681 -2.0375671 5.527649 -4.955597 8.132904 -8.754051c0.96066284 2.4666061 2.172638 4.5195084 3.6359253 6.158684l9.551117 -2.5932465c-1.7125244 -1.7533569 -3.07135 -3.699707 -4.076477 -5.8390656c-0.9969177 -2.153717 -2.6494446 -7.48114 -4.957611 -15.982262l-3.3105469 -12.192856c-1.1035156 -4.0642853 -2.019165 -6.83403 -2.7470093 -8.309242c-1.2224121 -2.3591766 -2.7332153 -4.1733475 -4.5324707 -5.4425125c-1.8022766 -1.2804565 -4.2900085 -2.071762 -7.4631653 -2.3739166c-3.1731262 -0.30215454 -7.062805 0.17208862 -11.669006 1.4227371z" fill-rule="evenodd"></path><path fill="#606c71" d="m461.47415 64.97898c-7.485077 2.0323029 -12.404327 6.5499496 -14.757721 13.552956l-2.0828857 -7.6713333l-8.230194 2.234604l14.649109 53.953377l9.144653 -2.4829025l-8.000458 -29.466057c-1.875946 -6.9092865 -1.7383728 -11.9833145 0.41275024 -15.222076c2.1624146 -3.2418365 5.191101 -5.39151 9.086029 -6.4490433c2.4385986 -0.66210175 4.711273 -0.6851883 6.817993 -0.069252014c2.1149902 0.6015854 3.7794495 1.731575 4.993408 3.3899689c1.210907 1.6471024 2.3221436 4.3334503 3.3336792 8.059044l8.910858 32.81909l9.144653 -2.482895l-9.007416 -33.17472c-1.1494751 -4.2336273 -2.1234741 -7.1511917 -2.9219666 -8.752678c-1.2499695 -2.460785 -2.809845 -4.4555893 -4.6795654 -5.984421c-1.869751 -1.5288239 -4.3285217 -2.5037613 -7.3763733 -2.9247894c-3.0396118 -0.43539047 -6.1851196 -0.21167755 -9.436554 0.6711273z" fill-rule="evenodd"></path><path fill="#606c71" d="m518.2312 57.6419c4.6400757 -1.2598419 8.894653 -0.52399826 12.763794 2.2075348c2.5127563 1.7542534 4.588501 4.8454285 6.227234 9.273529l-30.126617 8.179771c-0.9734192 -4.790558 -0.41357422 -8.979164 1.6794434 -12.565819c2.1043396 -3.5897179 5.256378 -5.9547234 9.456146 -7.0950165zm-2.1431274 -7.491337c-7.451172 2.0231018 -12.833252 6.17548 -16.14621 12.457134c-3.3129272 6.2816544 -3.737152 13.96093 -1.272644 23.037834c2.3817444 8.772079 6.541931 14.96418 12.48056 18.576332c5.9468994 3.5977783 12.866028 4.325348 20.757568 2.182701c6.265808 -1.7012482 11.000061 -4.623131 14.202881 -8.7656555c3.2027588 -4.1425323 4.7998047 -9.17643 4.7911377 -15.101707l-9.766785 1.3971863c-0.340271 4.238098 -1.4567261 7.559601 -3.3493652 9.964508c-1.8927002 2.4048996 -4.515503 4.0625534 -7.8685913 4.972946c-4.5045776 1.2230606 -8.69165 0.66889954 -12.561218 -1.6624832c-3.8695679 -2.3313828 -6.778351 -6.4146347 -8.726318 -12.249756l40.23651 -10.924759c-0.260437 -1.0930023 -0.46417236 -1.9104614 -0.6113281 -2.452362c-2.418518 -8.907558 -6.5806274 -15.196114 -12.486389 -18.865677c-5.9057617 -3.6695595 -12.465637 -4.524975 -19.67981 -2.5662422z" fill-rule="evenodd"></path><path fill="#606c71" d="m575.75476 42.07803c4.5045776 -1.2230568 8.737183 -0.52366257 12.697693 2.0981865c3.968811 2.6074944 6.859009 7.247341 8.670593 13.91954c1.921936 7.0786285 1.8447266 12.754486 -0.23162842 17.027565c-2.076355 4.2730713 -5.383789 7.0257416 -9.922241 8.257996c-4.5723267 1.2414474 -8.831604 0.5553589 -12.777771 -2.0582657c-3.9492798 -2.624916 -6.8619385 -7.3920135 -8.737915 -14.301292c-1.8759155 -6.9092865 -1.7711182 -12.483532 0.3143921 -16.72274c2.0855713 -4.239212 5.414551 -6.979542 9.986877 -8.220989zm-2.0552979 -7.569729c-6.672241 1.8115959 -11.785767 5.3455887 -15.340759 10.6019745c-4.2487183 6.3175354 -5.0166626 14.471985 -2.303894 24.463348c2.473755 9.110771 6.6937866 15.456337 12.660156 19.036705c5.977661 3.5772934 12.74292 4.3406067 20.295715 2.2899094c4.7078247 -1.2782288 8.749817 -3.5575867 12.126038 -6.8380585c3.3875732 -3.2835464 5.5805054 -7.1943054 6.5787964 -11.732285c1.0065308 -4.5523453 0.56726074 -10.300083 -1.3179321 -17.243237c-2.326538 -8.568867 -6.5028076 -14.64146 -12.528687 -18.217793c-6.0289307 -3.587616 -12.752075 -4.3744736 -20.169434 -2.3605652z" fill-rule="evenodd"></path><path fill="#606c71" d="m609.7963 26.016693l9.076355 33.428734c1.0575562 3.8949394 2.0162964 6.6893616 2.8762207 8.383263c1.2683716 2.5285187 2.8200073 4.537674 4.654907 6.027481c1.8431396 1.475441 4.307556 2.448845 7.3933105 2.9201965c3.097046 0.4682846 6.2373657 0.2702179 9.421082 -0.59420013c7.2141113 -1.958725 12.093445 -6.5564575 14.637939 -13.793175l2.1518555 7.925354l8.179382 -2.2208176l-14.649109 -53.95337l-9.144653 2.4828978l7.848694 28.907223c1.2506714 4.606186 1.703125 8.259323 1.3573608 10.959419c-0.33746338 2.6857338 -1.5170288 5.060665 -3.5385742 7.12479c-2.0245972 2.0528297 -4.4086304 3.4516792 -7.1520386 4.1965523c-2.7433472 0.7448654 -5.2319336 0.6871643 -7.465637 -0.17311096c-2.2367554 -0.8715668 -3.9694824 -2.4315338 -5.198181 -4.679905c-0.82318115 -1.5584259 -1.8830566 -4.7254066 -3.1796875 -9.500942l-8.124573 -29.92329z" fill-rule="evenodd"></path><path fill="#606c71" d="m685.26434 4.2169356c-2.8111572 0.7632613 -5.3476562 1.8459234 -7.609558 3.247991c-2.253662 1.3877096 -3.9492798 2.7996511 -5.08667 4.23582c-1.5288696 1.8697329 -2.567505 3.9821587 -3.1160278 6.337282c-0.5402832 2.340765 -0.48394775 4.713499 0.16894531 7.1182003c0.71728516 2.6417847 2.0393677 4.8769226 3.9661865 6.7054157c1.9351196 1.8141289 4.3638916 2.9911537 7.286438 3.531067c2.930725 0.52555084 7.979065 0.7246628 15.1449585 0.59732056c5.3189697 -0.09864426 8.715454 0.088336945 10.18927 0.5609436c2.1169434 0.6980324 3.4558716 2.0800552 4.0168457 4.1460648c0.6253052 2.303093 0.15484619 4.5885315 -1.411377 6.8563194c-1.5692749 2.2564964 -4.4537964 3.954895 -8.653564 5.095188c-4.1658936 1.1310959 -7.673767 1.0471039 -10.523621 -0.251976c-2.838562 -1.3021507 -5.003845 -3.6962433 -6.4958496 -7.182293l-8.656799 3.8778114c2.5701294 5.4479904 6.085266 9.130238 10.545227 11.046753c4.4713135 1.9134445 10.212402 1.9183922 17.223328 0.014835358c4.2336426 -1.1494904 7.827759 -2.9132652 10.782288 -5.291317c2.951477 -2.389347 4.9487305 -5.1681213 5.991638 -8.336311c1.0511475 -3.1825485 1.1629639 -6.2979317 0.33532715 -9.346146c-0.84606934 -3.1159515 -2.2823486 -5.5261555 -4.308838 -7.23061c-2.0264893 -1.7044563 -4.4697876 -2.7563267 -7.329956 -3.1555939c-2.8518066 -0.41363525 -7.746765 -0.6058979 -14.684753 -0.5767937c-4.801819 -0.0054244995 -7.7058716 -0.05333519 -8.712341 -0.14373589c-1.7665405 -0.21130371 -3.1557617 -0.70690155 -4.1675415 -1.4867935c-1.0026245 -0.7460232 -1.664856 -1.7117424 -1.9866943 -2.8971577c-0.50579834 -1.8627968 -0.049621582 -3.7322025 1.3684082 -5.6082172c1.4180298 -1.8760138 4.2269287 -3.3841686 8.426697 -4.5244627c3.5562134 -0.9655714 6.5167847 -0.9329891 8.881653 0.097756386c2.3760986 1.0276747 4.144409 2.8749714 5.3049316 5.5418816l8.610352 -3.647009c-1.5229492 -3.33218 -3.3284912 -5.8300104 -5.416626 -7.493496c-2.0911865 -1.6747727 -4.9053955 -2.6865332 -8.442749 -3.0352683c-3.526062 -0.35180616 -7.405884 0.047040224 -11.639526 1.1965303z" fill-rule="evenodd"></path><path stroke="#ffffff" stroke-width="1.0" stroke-linejoin="round" stroke-linecap="butt" d="m153.34093 127.91276l2.8553314 10.516335l9.144669 -2.482895l-2.8553314 -10.516342zm5.5727234 20.524635l14.649109 53.95337l9.144669 -2.482895l-14.649109 -53.95337z" fill-rule="evenodd"></path><path stroke="#ffffff" stroke-width="1.0" stroke-linejoin="round" stroke-linecap="butt" d="m206.18565 134.29324c-3.5901337 0.97476196 -6.571594 2.6509857 -8.944397 5.0286713c-2.3758545 2.366394 -4.05188 5.1003876 -5.0280457 8.201965l-2.0552979 -7.5697327l-8.179382 2.2208252l14.649094 53.95337l9.144669 -2.482895l-7.6004333 -27.992767c-1.3334045 -4.9110107 -1.8630524 -8.8038025 -1.5889282 -11.678406c0.2741089 -2.8746033 1.3167114 -5.28508 3.1277924 -7.2314453c1.8223572 -1.9494324 4.020569 -3.27359 6.5946198 -3.9724731c3.386917 -0.91960144 6.1013794 -0.56562805 8.143372 1.0618896c2.0419922 1.6275177 3.614746 4.473419 4.7182617 8.537704l9.5177765 35.05446l9.144653 -2.4829102l-8.5108185 -31.34578c-1.5081329 -5.554535 -1.3508148 -9.930832 0.47192383 -13.128937c1.8196869 -3.209381 4.6262054 -5.3290405 8.41954 -6.3589935c2.0998993 -0.57014465 4.0621643 -0.57562256 5.8868256 -0.016433716c1.8246613 0.55918884 3.2496948 1.5662994 4.2751007 3.0213318c1.0336304 1.4406738 2.0470276 3.9899292 3.0401764 7.6477814l9.228104 33.98758l9.093872 -2.469101l-10.055756 -37.03578c-1.673645 -6.1641693 -4.351471 -10.334381 -8.033463 -12.51062c-3.6850433 -2.1875305 -8.203232 -2.5548172 -13.55455 -1.10186c-6.841568 1.8575745 -11.540878 6.515526 -14.097946 13.973854c-1.8591766 -2.695404 -4.295456 -4.5249786 -7.3088226 -5.488739c-3.0020752 -0.9668274 -6.5013885 -0.9076843 -10.49794 0.17744446z" fill-rule="evenodd"></path><path stroke="#ffffff" stroke-width="1.0" stroke-linejoin="round" stroke-linecap="butt" d="m268.44638 118.697784l9.0763855 33.42874c1.0575256 3.894928 2.0162659 6.6893616 2.8762207 8.383255c1.2683716 2.5285187 2.8200073 4.537674 4.654907 6.027481c1.8431091 1.4754486 4.307556 2.4488373 7.39328 2.9201965c3.097046 0.46827698 6.2373962 0.2702179 9.421112 -0.5941925c7.2141113 -1.9587402 12.093445 -6.5564575 14.637939 -13.793182l2.1518555 7.925354l8.179382 -2.22081l-14.649109 -53.953377l-9.144653 2.4829025l7.8487244 28.907211c1.2506409 4.606201 1.703064 8.259338 1.3573303 10.959427c-0.3375244 2.6857452 -1.5170288 5.060669 -3.5385742 7.1247864c-2.0246277 2.052826 -4.4086304 3.4516754 -7.152008 4.1965485c-2.7434082 0.74487305 -5.231964 0.6871643 -7.4656677 -0.17311096c-2.2367554 -0.8715668 -3.9694824 -2.4315338 -5.198181 -4.679901c-0.82315063 -1.5584259 -1.8830566 -4.725403 -3.1796875 -9.500946l-8.124573 -29.923286z" fill-rule="evenodd"></path><path stroke="#ffffff" stroke-width="1.0" stroke-linejoin="round" stroke-linecap="butt" d="m320.73904 82.461914l20.221832 74.47801l9.144653 -2.482895l-20.221802 -74.47801z" fill-rule="evenodd"></path><path stroke="#ffffff" stroke-width="1.0" stroke-linejoin="round" stroke-linecap="butt" d="m355.2835 74.88274l-7.6040955 7.9558945l3.627777 13.361328l-6.706085 1.8207932l1.9311523 7.112503l6.706085 -1.8207932l8.42804 31.040962c1.4897461 5.486786 2.840149 8.987045 4.051178 10.500763c1.2080078 1.5024261 2.868988 2.5303192 4.9830017 3.0836792c2.1140137 0.55336 4.830597 0.3794403 8.14975 -0.52175903c2.0321655 -0.55174255 4.261688 -1.4480286 6.6885986 -2.6888123l-3.5140991 -7.7191315c-1.5952148 0.6876831 -2.900879 1.1694641 -3.9169312 1.445343c-1.3547668 0.36784363 -2.4588623 0.43122864 -3.3122253 0.19017029c-0.84210205 -0.2441101 -1.5279846 -0.6942749 -2.0577087 -1.3505096c-0.5184326 -0.6592865 -1.1316528 -2.2928925 -1.8397522 -4.9008026l-8.5660095 -31.549011l9.195465 -2.4966888l-1.9311218 -7.112503l-9.195465 2.4966965l-5.1175537 -18.848122z" fill-rule="evenodd"></path><path stroke="#ffffff" stroke-width="1.0" stroke-linejoin="round" stroke-linecap="butt" d="m420.27982 106.32927l0.9104004 3.353035c1.0942993 4.030411 1.4308472 7.2119675 1.0095825 9.544662c-0.5605469 3.025093 -2.002533 5.6834183 -4.325989 7.9749756c-2.3265076 2.2802658 -5.2509766 3.8985825 -8.773346 4.854973c-3.5562744 0.9655609 -6.4808655 0.8868561 -8.773773 -0.23616028c-2.2816467 -1.1260681 -3.7535095 -2.9083862 -4.4155884 -5.3469543c-0.43222046 -1.5918427 -0.4012146 -3.1518707 0.09298706 -4.680084c0.49118042 -1.5394974 1.4237671 -2.8594437 2.797821 -3.9598389c1.3740845 -1.1003952 3.867279 -2.4319153 7.4796143 -3.9945679c6.3808594 -2.7507324 11.046967 -5.2540817 13.998291 -7.5100403zm-19.262054 -24.935562c-4.6400757 1.2598343 -8.548096 3.0058136 -11.724121 5.2379227c-3.1790771 2.2208176 -5.379669 4.763893 -6.601837 7.629204c-1.2252197 2.8540344 -1.7247009 6.3050003 -1.4984131 10.352898l9.272522 -1.208435c-0.0569458 -4.0938797 0.7324524 -7.1689987 2.368225 -9.225349c1.6439514 -2.070694 4.616638 -3.6899948 8.91803 -4.857872c4.606201 -1.2506485 8.358246 -1.1602249 11.256165 0.27127075c2.1411438 1.0551147 3.7174988 3.445465 4.7290344 7.1710587c0.09197998 0.3386917 0.2911377 1.1392136 0.59750366 2.4015656c-3.1574402 2.1664658 -8.30838 4.6923447 -15.452759 7.577652c-3.504425 1.424263 -6.089813 2.6171722 -7.756134 3.57872c-2.2546692 1.3394852 -4.1792297 2.9348297 -5.773712 4.7860184c-1.5831909 1.8481216 -2.6814575 4.031273 -3.2947693 6.5494614c-0.60513306 2.50383 -0.54901123 5.0766373 0.16824341 7.7184296c1.2230835 4.5045776 3.820343 7.7753754 7.791809 9.812408c3.9684143 2.0257416 8.916199 2.2339783 14.843292 0.62467957c3.5901184 -0.97476196 6.7878723 -2.4794006 9.593262 -4.5139008c2.816681 -2.0375671 5.527649 -4.955597 8.132904 -8.754051c0.96066284 2.4666061 2.172638 4.5195084 3.6359253 6.158684l9.551117 -2.5932465c-1.7125244 -1.7533569 -3.07135 -3.699707 -4.076477 -5.8390656c-0.9969177 -2.153717 -2.6494446 -7.48114 -4.957611 -15.982262l-3.3105469 -12.192856c-1.1035156 -4.0642853 -2.019165 -6.83403 -2.7470093 -8.309242c-1.2224121 -2.3591766 -2.7332153 -4.1733475 -4.5324707 -5.4425125c-1.8022766 -1.2804565 -4.2900085 -2.071762 -7.4631653 -2.3739166c-3.1731262 -0.30215454 -7.062805 0.17208862 -11.669006 1.4227371z" fill-rule="evenodd"></path><path stroke="#ffffff" stroke-width="1.0" stroke-linejoin="round" stroke-linecap="butt" d="m461.47415 64.97898c-7.485077 2.0323029 -12.404327 6.5499496 -14.757721 13.552956l-2.0828857 -7.6713333l-8.230194 2.234604l14.649109 53.953377l9.144653 -2.4829025l-8.000458 -29.466057c-1.875946 -6.9092865 -1.7383728 -11.9833145 0.41275024 -15.222076c2.1624146 -3.2418365 5.191101 -5.39151 9.086029 -6.4490433c2.4385986 -0.66210175 4.711273 -0.6851883 6.817993 -0.069252014c2.1149902 0.6015854 3.7794495 1.731575 4.993408 3.3899689c1.210907 1.6471024 2.3221436 4.3334503 3.3336792 8.059044l8.910858 32.81909l9.144653 -2.482895l-9.007416 -33.17472c-1.1494751 -4.2336273 -2.1234741 -7.1511917 -2.9219666 -8.752678c-1.2499695 -2.460785 -2.809845 -4.4555893 -4.6795654 -5.984421c-1.869751 -1.5288239 -4.3285217 -2.5037613 -7.3763733 -2.9247894c-3.0396118 -0.43539047 -6.1851196 -0.21167755 -9.436554 0.6711273z" fill-rule="evenodd"></path><path stroke="#ffffff" stroke-width="1.0" stroke-linejoin="round" stroke-linecap="butt" d="m518.2312 57.6419c4.6400757 -1.2598419 8.894653 -0.52399826 12.763794 2.2075348c2.5127563 1.7542534 4.588501 4.8454285 6.227234 9.273529l-30.126617 8.179771c-0.9734192 -4.790558 -0.41357422 -8.979164 1.6794434 -12.565819c2.1043396 -3.5897179 5.256378 -5.9547234 9.456146 -7.0950165zm-2.1431274 -7.491337c-7.451172 2.0231018 -12.833252 6.17548 -16.14621 12.457134c-3.3129272 6.2816544 -3.737152 13.96093 -1.272644 23.037834c2.3817444 8.772079 6.541931 14.96418 12.48056 18.576332c5.9468994 3.5977783 12.866028 4.325348 20.757568 2.182701c6.265808 -1.7012482 11.000061 -4.623131 14.202881 -8.7656555c3.2027588 -4.1425323 4.7998047 -9.17643 4.7911377 -15.101707l-9.766785 1.3971863c-0.340271 4.238098 -1.4567261 7.559601 -3.3493652 9.964508c-1.8927002 2.4048996 -4.515503 4.0625534 -7.8685913 4.972946c-4.5045776 1.2230606 -8.69165 0.66889954 -12.561218 -1.6624832c-3.8695679 -2.3313828 -6.778351 -6.4146347 -8.726318 -12.249756l40.23651 -10.924759c-0.260437 -1.0930023 -0.46417236 -1.9104614 -0.6113281 -2.452362c-2.418518 -8.907558 -6.5806274 -15.196114 -12.486389 -18.865677c-5.9057617 -3.6695595 -12.465637 -4.524975 -19.67981 -2.5662422z" fill-rule="evenodd"></path><path stroke="#ffffff" stroke-width="1.0" stroke-linejoin="round" stroke-linecap="butt" d="m575.75476 42.07803c4.5045776 -1.2230568 8.737183 -0.52366257 12.697693 2.0981865c3.968811 2.6074944 6.859009 7.247341 8.670593 13.91954c1.921936 7.0786285 1.8447266 12.754486 -0.23162842 17.027565c-2.076355 4.2730713 -5.383789 7.0257416 -9.922241 8.257996c-4.5723267 1.2414474 -8.831604 0.5553589 -12.777771 -2.0582657c-3.9492798 -2.624916 -6.8619385 -7.3920135 -8.737915 -14.301292c-1.8759155 -6.9092865 -1.7711182 -12.483532 0.3143921 -16.72274c2.0855713 -4.239212 5.414551 -6.979542 9.986877 -8.220989zm-2.0552979 -7.569729c-6.672241 1.8115959 -11.785767 5.3455887 -15.340759 10.6019745c-4.2487183 6.3175354 -5.0166626 14.471985 -2.303894 24.463348c2.473755 9.110771 6.6937866 15.456337 12.660156 19.036705c5.977661 3.5772934 12.74292 4.3406067 20.295715 2.2899094c4.7078247 -1.2782288 8.749817 -3.5575867 12.126038 -6.8380585c3.3875732 -3.2835464 5.5805054 -7.1943054 6.5787964 -11.732285c1.0065308 -4.5523453 0.56726074 -10.300083 -1.3179321 -17.243237c-2.326538 -8.568867 -6.5028076 -14.64146 -12.528687 -18.217793c-6.0289307 -3.587616 -12.752075 -4.3744736 -20.169434 -2.3605652z" fill-rule="evenodd"></path><path stroke="#ffffff" stroke-width="1.0" stroke-linejoin="round" stroke-linecap="butt" d="m609.7963 26.016693l9.076355 33.428734c1.0575562 3.8949394 2.0162964 6.6893616 2.8762207 8.383263c1.2683716 2.5285187 2.8200073 4.537674 4.654907 6.027481c1.8431396 1.475441 4.307556 2.448845 7.3933105 2.9201965c3.097046 0.4682846 6.2373657 0.2702179 9.421082 -0.59420013c7.2141113 -1.958725 12.093445 -6.5564575 14.637939 -13.793175l2.1518555 7.925354l8.179382 -2.2208176l-14.649109 -53.95337l-9.144653 2.4828978l7.848694 28.907223c1.2506714 4.606186 1.703125 8.259323 1.3573608 10.959419c-0.33746338 2.6857338 -1.5170288 5.060665 -3.5385742 7.12479c-2.0245972 2.0528297 -4.4086304 3.4516792 -7.1520386 4.1965523c-2.7433472 0.7448654 -5.2319336 0.6871643 -7.465637 -0.17311096c-2.2367554 -0.8715668 -3.9694824 -2.4315338 -5.198181 -4.679905c-0.82318115 -1.5584259 -1.8830566 -4.7254066 -3.1796875 -9.500942l-8.124573 -29.92329z" fill-rule="evenodd"></path><path stroke="#ffffff" stroke-width="1.0" stroke-linejoin="round" stroke-linecap="butt" d="m685.26434 4.2169356c-2.8111572 0.7632613 -5.3476562 1.8459234 -7.609558 3.247991c-2.253662 1.3877096 -3.9492798 2.7996511 -5.08667 4.23582c-1.5288696 1.8697329 -2.567505 3.9821587 -3.1160278 6.337282c-0.5402832 2.340765 -0.48394775 4.713499 0.16894531 7.1182003c0.71728516 2.6417847 2.0393677 4.8769226 3.9661865 6.7054157c1.9351196 1.8141289 4.3638916 2.9911537 7.286438 3.531067c2.930725 0.52555084 7.979065 0.7246628 15.1449585 0.59732056c5.3189697 -0.09864426 8.715454 0.088336945 10.18927 0.5609436c2.1169434 0.6980324 3.4558716 2.0800552 4.0168457 4.1460648c0.6253052 2.303093 0.15484619 4.5885315 -1.411377 6.8563194c-1.5692749 2.2564964 -4.4537964 3.954895 -8.653564 5.095188c-4.1658936 1.1310959 -7.673767 1.0471039 -10.523621 -0.251976c-2.838562 -1.3021507 -5.003845 -3.6962433 -6.4958496 -7.182293l-8.656799 3.8778114c2.5701294 5.4479904 6.085266 9.130238 10.545227 11.046753c4.4713135 1.9134445 10.212402 1.9183922 17.223328 0.014835358c4.2336426 -1.1494904 7.827759 -2.9132652 10.782288 -5.291317c2.951477 -2.389347 4.9487305 -5.1681213 5.991638 -8.336311c1.0511475 -3.1825485 1.1629639 -6.2979317 0.33532715 -9.346146c-0.84606934 -3.1159515 -2.2823486 -5.5261555 -4.308838 -7.23061c-2.0264893 -1.7044563 -4.4697876 -2.7563267 -7.329956 -3.1555939c-2.8518066 -0.41363525 -7.746765 -0.6058979 -14.684753 -0.5767937c-4.801819 -0.0054244995 -7.7058716 -0.05333519 -8.712341 -0.14373589c-1.7665405 -0.21130371 -3.1557617 -0.70690155 -4.1675415 -1.4867935c-1.0026245 -0.7460232 -1.664856 -1.7117424 -1.9866943 -2.8971577c-0.50579834 -1.8627968 -0.049621582 -3.7322025 1.3684082 -5.6082172c1.4180298 -1.8760138 4.2269287 -3.3841686 8.426697 -4.5244627c3.5562134 -0.9655714 6.5167847 -0.9329891 8.881653 0.097756386c2.3760986 1.0276747 4.144409 2.8749714 5.3049316 5.5418816l8.610352 -3.647009c-1.5229492 -3.33218 -3.3284912 -5.8300104 -5.416626 -7.493496c-2.0911865 -1.6747727 -4.9053955 -2.6865332 -8.442749 -3.0352683c-3.526062 -0.35180616 -7.405884 0.047040224 -11.639526 1.1965303z" fill-rule="evenodd"></path><path fill="#ffffff" d="m120.022964 123.372475c-5.521675 0 -10.5396805 0.93271637 -15.054024 2.7981415c-4.5143433 1.8654251 -7.946739 4.601387 -10.29718 8.207878c-2.350441 3.5940552 -3.5256653 7.4617004 -3.5256653 11.602951c0 3.768158 0.9575882 7.1756744 2.8727646 10.222534c1.9276123 3.034439 4.8501205 5.5776367 8.767525 7.629593c3.0219955 1.6042786 8.30117 3.3142548 15.837509 5.1299286c7.536339 1.8032532 12.405113 3.1339264 14.606331 3.9920197c3.4323883 1.3058014 5.89476 2.9225006 7.3871 4.8500977c1.4923401 1.9151764 2.2385101 4.159912 2.2385101 6.734192c0 2.5369873 -0.7772522 4.881195 -2.331787 7.032669c-1.5420837 2.1390076 -3.8987427 3.8241272 -7.069977 5.055298c-3.1712341 1.2311859 -6.8274765 1.8467712 -10.968735 1.8467712c-4.663582 0 -8.860794 -0.8083496 -12.59166 -2.4250488c-3.7308655 -1.6291504 -6.4854813 -3.7557373 -8.263863 -6.3797607c-1.7659378 -2.6364746 -2.8914108 -6.006668 -3.3764267 -10.110611l-10.241219 0.895401c0.14923859 5.4843597 1.6478043 10.402863 4.4956894 14.755524c2.8603287 4.340225 6.7963867 7.592285 11.808182 9.75618c5.0242233 2.1638947 11.24855 3.2458496 18.672958 3.2458496c5.8574524 0 11.124191 -1.069519 15.800201 -3.2085419c4.688446 -2.1514587 8.2825165 -5.154785 10.782196 -9.01001c2.4996796 -3.8676453 3.7495117 -7.984024 3.7495117 -12.349121c0 -4.402405 -1.1379089 -8.288712 -3.413742 -11.65892c-2.2758179 -3.3826294 -5.801483 -6.1745605 -10.576996 -8.375763c-3.2831573 -1.4923401 -9.339584 -3.2333984 -18.169289 -5.2231903c-8.817268 -2.0022278 -14.270546 -3.954712 -16.359833 -5.857437c-2.126587 -1.9027405 -3.189888 -4.3277893 -3.189888 -7.2751617c0 -3.3950806 1.4985657 -6.2927094 4.4956894 -8.692902c3.0095673 -2.412613 7.7975006 -3.618927 14.363823 -3.618927c6.305153 0 11.068222 1.3244629 14.2892 3.9733582c3.2334137 2.6489105 5.1299286 6.5663147 5.68956 11.752197l10.409103 -0.7834778c-0.1865387 -4.812805 -1.5296478 -9.121933 -4.0293274 -12.927414c-2.4996796 -3.8054657 -6.0750885 -6.6844482 -10.726227 -8.636925c-4.6387024 -1.9649124 -9.998711 -2.9473724 -16.080017 -2.9473724z" fill-rule="evenodd"></path><path fill="#ffffff" d="m153.34229 208.18553l0 84.839554l53.010376 0l0 -10.01178l-41.78328 0l0 -74.827774z" fill-rule="evenodd"></path><path fill="#ffffff" d="m262.80478 335.3144l0 5.044525c0 6.063629 -0.7388611 10.649536 -2.2165527 13.757782c-1.9362793 4.025421 -4.968094 7.201599 -9.095444 9.528534c-4.1273346 2.309967 -8.840668 3.4649353 -14.139969 3.4649353c-5.3502655 0 -9.418152 -1.2229004 -12.20369 -3.6687317c-2.7685547 -2.4458313 -4.152817 -5.503113 -4.152817 -9.171875c0 -2.394867 0.6369324 -4.568939 1.9107971 -6.522217c1.27388 -1.9702454 3.082779 -3.4649048 5.426697 -4.484009c2.3439178 -1.019104 6.3438873 -1.9362793 11.999863 -2.7515564c9.987167 -1.4267273 17.477524 -3.1592102 22.471115 -5.1973877zm-17.503006 -42.267c-6.9808197 0 -13.12088 0.95965576 -18.420181 2.8789673c-5.2993164 1.9023132 -9.35022 4.6283875 -12.1527405 8.178223c-2.8025208 3.5328674 -4.8152313 8.178253 -6.038147 13.936127l13.452087 1.8343811c1.4776917 -5.7578735 3.753662 -9.766327 6.827942 -12.02533c3.0912628 -2.2759705 7.872528 -3.413971 14.343796 -3.413971c6.9298553 0 12.1527405 1.5541382 15.668625 4.6623535c2.5986938 2.2929688 3.8980408 6.241974 3.8980408 11.847015c0 0.5095215 -0.025482178 1.7069702 -0.076416016 3.5922852c-5.248352 1.8343811 -13.4266205 3.413971 -24.534775 4.7388c-5.452179 0.66241455 -9.528564 1.3503113 -12.229172 2.0636597c-3.668747 1.019104 -6.9723206 2.5222778 -9.910721 4.5095215c-2.9214172 1.9872131 -5.2908173 4.6283875 -7.1082 7.923462c-1.800415 3.2780762 -2.7006073 6.904358 -2.7006073 10.878845c0 6.7769775 2.394867 12.348022 7.1846313 16.713165c4.7897644 4.3481445 11.643188 6.522217 20.560287 6.522217c5.4012146 0 10.454239 -0.89172363 15.159073 -2.6751404c4.721817 -1.7834167 9.630478 -4.8406982 14.725967 -9.1718445c0.4076233 3.8215942 1.3247986 7.159149 2.7515564 10.012604l14.369263 0c-1.7324524 -3.1082458 -2.895935 -6.352356 -3.4904175 -9.732361c-0.57748413 -3.3970032 -0.86621094 -11.490295 -0.86621094 -24.279938l0 -18.34372c0 -6.1145935 -0.22930908 -10.343842 -0.6878967 -12.687744c-0.8152771 -3.7706604 -2.2420044 -6.88739 -4.2802124 -9.35022c-2.038208 -2.4797974 -5.22287 -4.534973 -9.554047 -6.1655273c-4.3311462 -1.6305542 -9.96167 -2.4458313 -16.891525 -2.4458313z" fill-rule="evenodd"></path><path fill="#ffffff" d="m281.14554 377.8867l0 84.83954l10.821991 0l0 -72.22357l24.537567 72.22357l10.127502 0l24.65332 -71.00827l0 71.00827l10.82196 0l0 -84.83954l-15.104462 0l-20.312927 59.02887c-2.0447998 5.9800415 -3.549469 10.513306 -4.513977 13.5997925c-0.8487854 -2.777832 -2.1991272 -6.963867 -4.0510254 -12.558105l-20.081451 -60.070557z" fill-rule="evenodd"></path><path fill="#606c71" d="m404.92438 412.5057l0.7734375 2.8486023c0.9296875 3.4240417 1.2156067 6.126953 0.85772705 8.108704c-0.4762268 2.5700073 -1.7012634 4.8283997 -3.675171 6.7752075c-1.9765015 1.9372253 -4.460968 3.3121033 -7.45343 4.1246033c-3.0212402 0.8203125 -5.505829 0.75341797 -7.4537964 -0.20062256c-1.9383545 -0.95666504 -3.1887817 -2.4708252 -3.7512817 -4.5425415c-0.3671875 -1.352356 -0.34085083 -2.6777039 0.07901001 -3.9759827c0.41723633 -1.3079224 1.2095337 -2.4292908 2.376892 -3.3641357c1.1673279 -0.934845 3.285431 -2.06604 6.354309 -3.3936157c5.4208984 -2.336914 9.384979 -4.4636536 11.892303 -6.3802185zm-16.364227 -21.184143c-3.941986 1.0703125 -7.2620544 2.5536194 -9.960266 4.4499207c-2.7007751 1.8867188 -4.5703125 4.0472107 -5.608612 6.4814453c-1.040863 2.4246826 -1.4651794 5.356476 -1.2729492 8.79538l7.8775024 -1.0266418c-0.04837036 -3.4779968 0.6222534 -6.0904846 2.0119019 -7.8374634c1.3966675 -1.7591858 3.9221191 -3.1348572 7.576355 -4.1270447c3.913208 -1.0625 7.1007996 -0.98568726 9.562744 0.23043823c1.8190308 0.8963928 3.1582031 2.927124 4.017578 6.092224c0.078125 0.28771973 0.24734497 0.9678345 0.5076294 2.0402527c-2.682434 1.8405457 -7.0584106 3.9864197 -13.12796 6.437683c-2.9772034 1.2099915 -5.1736145 2.2234192 -6.589264 3.0403137c-1.9154358 1.13797 -3.550476 2.4933167 -4.90506 4.0660095c-1.3450012 1.5700989 -2.2780151 3.4248047 -2.7990723 5.564148c-0.5140686 2.1271362 -0.46643066 4.3128967 0.14294434 6.5572205c1.0390625 3.8269043 3.2456055 6.605652 6.6195984 8.336212c3.371399 1.7209778 7.574768 1.8978577 12.610168 0.53067017c3.0500183 -0.828125 5.7666626 -2.1063843 8.149994 -3.8348389c2.3929443 -1.7310181 4.696045 -4.2100525 6.9093323 -7.437042c0.8161316 2.09552 1.8457947 3.839569 3.0889587 5.232147l8.114166 -2.203125c-1.4548645 -1.4895935 -2.6092834 -3.1431274 -3.4631958 -4.9606323c-0.8469238 -1.8296814 -2.2508545 -6.355652 -4.211792 -13.57782l-2.8125 -10.3585205c-0.9375 -3.4528503 -1.7154236 -5.8058777 -2.3337708 -7.0591736c-1.0385132 -2.004242 -2.3220215 -3.5454712 -3.850586 -4.6237183c-1.5311584 -1.0877991 -3.6445923 -1.7600708 -6.3403625 -2.0167542c-2.6957703 -0.25671387 -6.000244 0.14620972 -9.913483 1.2087097z" fill-rule="evenodd"></path><path fill="#606c71" d="m439.63126 383.98923c3.337738 -0.90625 6.6000366 -0.23184204 9.786926 2.0232544c3.1964417 2.2525024 5.5876465 6.2992554 7.173584 12.14032c1.6640625 6.128784 1.6607666 10.9904785 -0.009918213 14.585083c-1.6636963 3.582367 -4.2219543 5.842346 -7.674774 6.779846c-3.3952942 0.921875 -6.669861 0.29711914 -9.8237 -1.8742676c-3.153839 -2.1713867 -5.531555 -6.20636 -7.1331177 -12.10498c-1.6015625 -5.89859 -1.5507507 -10.737122 0.15237427 -14.5155945c1.7101135 -3.79068 4.2196655 -6.1352234 7.5286255 -7.033661zm-0.9186096 -6.284851c-2.9924622 0.8125 -5.3800964 2.0889587 -7.162842 3.8294067c-1.7853699 1.730835 -3.196106 3.9881592 -4.232147 6.7719727l-1.6171875 -5.9561462l-7.0783386 1.921875l17.214844 63.40274l7.7688904 -2.109375l-6.0585938 -22.313995c1.7767334 1.3095093 3.8397827 2.2322998 6.1891785 2.7684326c2.3589783 0.5334778 4.8332825 0.44866943 7.4229126 -0.25445557c3.539154 -0.9609375 6.6396484 -2.8737793 9.301453 -5.738556c2.6687622 -2.8769531 4.3332825 -6.4183655 4.9935303 -10.624268c0.6672058 -4.218109 0.36410522 -8.67218 -0.9093323 -13.362305c-1.1875 -4.373596 -3.0411682 -8.185272 -5.5609436 -11.435059c-2.5224 -3.259369 -5.5532837 -5.4898987 -9.092621 -6.6915283c-3.5393066 -1.2016602 -7.2655945 -1.2712402 -11.1788025 -0.20874023z" fill-rule="evenodd"></path><path fill="#606c71" d="m488.79105 370.64157c3.337738 -0.90625 6.6000366 -0.23184204 9.786896 2.0232544c3.1964722 2.2525024 5.587677 6.2992554 7.1736145 12.14032c1.6640625 6.128784 1.6607361 10.9904785 -0.009918213 14.585083c-1.6636963 3.582367 -4.2219543 5.842346 -7.6748047 6.779846c-3.3952942 0.921875 -6.6698303 0.29711914 -9.823669 -1.8742676c-3.153839 -2.1713867 -5.531555 -6.20636 -7.1331177 -12.10498c-1.6015625 -5.89859 -1.5507812 -10.737122 0.15234375 -14.5155945c1.710144 -3.79068 4.2196655 -6.1352234 7.528656 -7.033661zm-0.91864014 -6.284851c-2.9924622 0.8125 -5.380066 2.0889587 -7.162842 3.8294067c-1.7853699 1.730835 -3.1960754 3.9881592 -4.232147 6.7719727l-1.6171875 -5.9561462l-7.078308 1.921875l17.214844 63.40274l7.7688904 -2.109375l-6.0585938 -22.313995c1.7767029 1.3095093 3.8397827 2.2322998 6.189148 2.7684326c2.3590088 0.5334778 4.833313 0.44866943 7.422943 -0.25445557c3.539154 -0.9609375 6.639618 -2.8737793 9.301422 -5.738556c2.6687927 -2.8769531 4.3332825 -6.4183655 4.993561 -10.624268c0.6671753 -4.218109 0.3640747 -8.67218 -0.9093628 -13.362305c-1.1875 -4.373596 -3.0411377 -8.185272 -5.560913 -11.435059c-2.5224 -3.259369 -5.5532837 -5.4898987 -9.092621 -6.6915283c-3.5393372 -1.2016602 -7.2655945 -1.2712402 -11.178833 -0.20874023z" fill-rule="evenodd"></path><path fill="#606c71" d="m512.2505 340.1276l2.4257812 8.934235l7.76886 -2.109375l-2.4257812 -8.934235zm4.734375 17.43686l12.4453125 45.836426l7.76886 -2.109375l-12.4453125 -45.836426z" fill-rule="evenodd"></path><path fill="#606c71" d="m557.8787 345.3489c-6.359009 1.7265625 -10.538147 5.564575 -12.537476 11.514008l-1.7695312 -6.517212l-6.9920044 1.8984375l12.4453125 45.836426l7.768921 -2.109375l-6.796875 -25.033081c-1.59375 -5.8698425 -1.4769287 -10.180511 0.35058594 -12.932037c1.8370972 -2.7541199 4.410095 -4.5803833 7.719055 -5.478821c2.0717163 -0.5625 4.0025024 -0.5821228 5.7922974 -0.05883789c1.7967529 0.5110779 3.2108154 1.4710693 4.2421875 2.8799438c1.0286865 1.3993225 1.9727783 3.6815186 2.8321533 6.8466187l7.5703125 27.881683l7.76886 -2.109375l-7.6523438 -28.183807c-0.9765625 -3.5967102 -1.8040161 -6.075348 -2.4823608 -7.4358826c-1.0619507 -2.0905762 -2.387146 -3.7852783 -3.975586 -5.0841064c-1.58844 -1.2988281 -3.6773682 -2.1270752 -6.2666626 -2.4847717c-2.5822754 -0.36987305 -5.2545776 -0.17980957 -8.016846 0.5701904z" fill-rule="evenodd"></path><path fill="#606c71" d="m604.6412 339.55716c3.510376 -0.953125 6.894348 -0.34265137 10.1519165 1.8314819c3.2671509 2.1715088 5.6624756 6.062683 7.185913 11.673553c1.59375 5.869812 1.5557861 10.509186 -0.11376953 13.918121c-1.6721802 3.399353 -4.2922363 5.583374 -7.8601685 6.552124c-3.5967407 0.9765625 -6.9641724 0.40792847 -10.102417 -1.7059021c-3.1381836 -2.1138306 -5.5237427 -6.177582 -7.156555 -12.191284c-1.5 -5.524536 -1.4216919 -10.015259 0.23486328 -13.472137c1.6539917 -3.4664612 4.2073975 -5.668457 7.6602173 -6.605957zm-2.30719 -6.2785645c-4.057068 1.1015625 -7.317993 3.0682678 -9.782776 5.9001465c-2.4551392 2.8292542 -3.9714355 6.3098145 -4.548767 10.441711c-0.57995605 4.1223145 -0.27618408 8.37027 0.9113159 12.743866c1.7265625 6.3589783 4.9334717 11.342834 9.6206665 14.951569c4.687256 3.6087341 10.181519 4.5576477 16.482971 2.8467102c5.064148 -1.375 8.750916 -4.523224 11.060303 -9.444641l0 0c1.4037476 5.056366 2.1190796 8.430481 2.145935 10.122406c0.012573242 2.7771301 -0.76416016 5.1506653 -2.3301392 7.1206055c-1.565979 1.9699402 -4.147339 3.4431763 -7.7440186 4.419739c-3.3377686 0.90625 -6.1658936 0.9017639 -8.484314 -0.0134887695c-1.7277832 -0.67401123 -3.0662842 -2.1333618 -4.015625 -4.3780823l-7.857788 0.92858887l0 0c1.2286987 4.980316 3.8596191 8.24115 7.892761 9.78241c4.0358276 1.5509033 8.78717 1.584137 14.254211 0.09976196c4.60376 -1.25 8.244263 -3.1652832 10.921387 -5.74588c2.6867676 -2.583191 4.349365 -5.5628357 4.987732 -8.938934c0.65057373 -3.36911 0.007080078 -8.621582 -1.9304199 -15.757446l-10.7578125 -39.621307l-7.164612 1.9453125l1.5 5.524536c-4.697876 -3.4204712 -9.751526 -4.396332 -15.161011 -2.9275818z" fill-rule="evenodd"></path><path stroke="#ffffff" stroke-width="1.0" stroke-linejoin="round" stroke-linecap="butt" d="m404.92438 412.5057l0.7734375 2.8486023c0.9296875 3.4240417 1.2156067 6.126953 0.85772705 8.108704c-0.4762268 2.5700073 -1.7012634 4.8283997 -3.675171 6.7752075c-1.9765015 1.9372253 -4.460968 3.3121033 -7.45343 4.1246033c-3.0212402 0.8203125 -5.505829 0.75341797 -7.4537964 -0.20062256c-1.9383545 -0.95666504 -3.1887817 -2.4708252 -3.7512817 -4.5425415c-0.3671875 -1.352356 -0.34085083 -2.6777039 0.07901001 -3.9759827c0.41723633 -1.3079224 1.2095337 -2.4292908 2.376892 -3.3641357c1.1673279 -0.934845 3.285431 -2.06604 6.354309 -3.3936157c5.4208984 -2.336914 9.384979 -4.4636536 11.892303 -6.3802185zm-16.364227 -21.184143c-3.941986 1.0703125 -7.2620544 2.5536194 -9.960266 4.4499207c-2.7007751 1.8867188 -4.5703125 4.0472107 -5.608612 6.4814453c-1.040863 2.4246826 -1.4651794 5.356476 -1.2729492 8.79538l7.8775024 -1.0266418c-0.04837036 -3.4779968 0.6222534 -6.0904846 2.0119019 -7.8374634c1.3966675 -1.7591858 3.9221191 -3.1348572 7.576355 -4.1270447c3.913208 -1.0625 7.1007996 -0.98568726 9.562744 0.23043823c1.8190308 0.8963928 3.1582031 2.927124 4.017578 6.092224c0.078125 0.28771973 0.24734497 0.9678345 0.5076294 2.0402527c-2.682434 1.8405457 -7.0584106 3.9864197 -13.12796 6.437683c-2.9772034 1.2099915 -5.1736145 2.2234192 -6.589264 3.0403137c-1.9154358 1.13797 -3.550476 2.4933167 -4.90506 4.0660095c-1.3450012 1.5700989 -2.2780151 3.4248047 -2.7990723 5.564148c-0.5140686 2.1271362 -0.46643066 4.3128967 0.14294434 6.5572205c1.0390625 3.8269043 3.2456055 6.605652 6.6195984 8.336212c3.371399 1.7209778 7.574768 1.8978577 12.610168 0.53067017c3.0500183 -0.828125 5.7666626 -2.1063843 8.149994 -3.8348389c2.3929443 -1.7310181 4.696045 -4.2100525 6.9093323 -7.437042c0.8161316 2.09552 1.8457947 3.839569 3.0889587 5.232147l8.114166 -2.203125c-1.4548645 -1.4895935 -2.6092834 -3.1431274 -3.4631958 -4.9606323c-0.8469238 -1.8296814 -2.2508545 -6.355652 -4.211792 -13.57782l-2.8125 -10.3585205c-0.9375 -3.4528503 -1.7154236 -5.8058777 -2.3337708 -7.0591736c-1.0385132 -2.004242 -2.3220215 -3.5454712 -3.850586 -4.6237183c-1.5311584 -1.0877991 -3.6445923 -1.7600708 -6.3403625 -2.0167542c-2.6957703 -0.25671387 -6.000244 0.14620972 -9.913483 1.2087097z" fill-rule="evenodd"></path><path stroke="#ffffff" stroke-width="1.0" stroke-linejoin="round" stroke-linecap="butt" d="m439.63126 383.98923c3.337738 -0.90625 6.6000366 -0.23184204 9.786926 2.0232544c3.1964417 2.2525024 5.5876465 6.2992554 7.173584 12.14032c1.6640625 6.128784 1.6607666 10.9904785 -0.009918213 14.585083c-1.6636963 3.582367 -4.2219543 5.842346 -7.674774 6.779846c-3.3952942 0.921875 -6.669861 0.29711914 -9.8237 -1.8742676c-3.153839 -2.1713867 -5.531555 -6.20636 -7.1331177 -12.10498c-1.6015625 -5.89859 -1.5507507 -10.737122 0.15237427 -14.5155945c1.7101135 -3.79068 4.2196655 -6.1352234 7.5286255 -7.033661zm-0.9186096 -6.284851c-2.9924622 0.8125 -5.3800964 2.0889587 -7.162842 3.8294067c-1.7853699 1.730835 -3.196106 3.9881592 -4.232147 6.7719727l-1.6171875 -5.9561462l-7.0783386 1.921875l17.214844 63.40274l7.7688904 -2.109375l-6.0585938 -22.313995c1.7767334 1.3095093 3.8397827 2.2322998 6.1891785 2.7684326c2.3589783 0.5334778 4.8332825 0.44866943 7.4229126 -0.25445557c3.539154 -0.9609375 6.6396484 -2.8737793 9.301453 -5.738556c2.6687622 -2.8769531 4.3332825 -6.4183655 4.9935303 -10.624268c0.6672058 -4.218109 0.36410522 -8.67218 -0.9093323 -13.362305c-1.1875 -4.373596 -3.0411682 -8.185272 -5.5609436 -11.435059c-2.5224 -3.259369 -5.5532837 -5.4898987 -9.092621 -6.6915283c-3.5393066 -1.2016602 -7.2655945 -1.2712402 -11.1788025 -0.20874023z" fill-rule="evenodd"></path><path stroke="#ffffff" stroke-width="1.0" stroke-linejoin="round" stroke-linecap="butt" d="m488.79105 370.64157c3.337738 -0.90625 6.6000366 -0.23184204 9.786896 2.0232544c3.1964722 2.2525024 5.587677 6.2992554 7.1736145 12.14032c1.6640625 6.128784 1.6607361 10.9904785 -0.009918213 14.585083c-1.6636963 3.582367 -4.2219543 5.842346 -7.6748047 6.779846c-3.3952942 0.921875 -6.6698303 0.29711914 -9.823669 -1.8742676c-3.153839 -2.1713867 -5.531555 -6.20636 -7.1331177 -12.10498c-1.6015625 -5.89859 -1.5507812 -10.737122 0.15234375 -14.5155945c1.710144 -3.79068 4.2196655 -6.1352234 7.528656 -7.033661zm-0.91864014 -6.284851c-2.9924622 0.8125 -5.380066 2.0889587 -7.162842 3.8294067c-1.7853699 1.730835 -3.1960754 3.9881592 -4.232147 6.7719727l-1.6171875 -5.9561462l-7.078308 1.921875l17.214844 63.40274l7.7688904 -2.109375l-6.0585938 -22.313995c1.7767029 1.3095093 3.8397827 2.2322998 6.189148 2.7684326c2.3590088 0.5334778 4.833313 0.44866943 7.422943 -0.25445557c3.539154 -0.9609375 6.639618 -2.8737793 9.301422 -5.738556c2.6687927 -2.8769531 4.3332825 -6.4183655 4.993561 -10.624268c0.6671753 -4.218109 0.3640747 -8.67218 -0.9093628 -13.362305c-1.1875 -4.373596 -3.0411377 -8.185272 -5.560913 -11.435059c-2.5224 -3.259369 -5.5532837 -5.4898987 -9.092621 -6.6915283c-3.5393372 -1.2016602 -7.2655945 -1.2712402 -11.178833 -0.20874023z" fill-rule="evenodd"></path><path stroke="#ffffff" stroke-width="1.0" stroke-linejoin="round" stroke-linecap="butt" d="m512.2505 340.1276l2.4257812 8.934235l7.76886 -2.109375l-2.4257812 -8.934235zm4.734375 17.43686l12.4453125 45.836426l7.76886 -2.109375l-12.4453125 -45.836426z" fill-rule="evenodd"></path><path stroke="#ffffff" stroke-width="1.0" stroke-linejoin="round" stroke-linecap="butt" d="m557.8787 345.3489c-6.359009 1.7265625 -10.538147 5.564575 -12.537476 11.514008l-1.7695312 -6.517212l-6.9920044 1.8984375l12.4453125 45.836426l7.768921 -2.109375l-6.796875 -25.033081c-1.59375 -5.8698425 -1.4769287 -10.180511 0.35058594 -12.932037c1.8370972 -2.7541199 4.410095 -4.5803833 7.719055 -5.478821c2.0717163 -0.5625 4.0025024 -0.5821228 5.7922974 -0.05883789c1.7967529 0.5110779 3.2108154 1.4710693 4.2421875 2.8799438c1.0286865 1.3993225 1.9727783 3.6815186 2.8321533 6.8466187l7.5703125 27.881683l7.76886 -2.109375l-7.6523438 -28.183807c-0.9765625 -3.5967102 -1.8040161 -6.075348 -2.4823608 -7.4358826c-1.0619507 -2.0905762 -2.387146 -3.7852783 -3.975586 -5.0841064c-1.58844 -1.2988281 -3.6773682 -2.1270752 -6.2666626 -2.4847717c-2.5822754 -0.36987305 -5.2545776 -0.17980957 -8.016846 0.5701904z" fill-rule="evenodd"></path><path stroke="#ffffff" stroke-width="1.0" stroke-linejoin="round" stroke-linecap="butt" d="m604.6412 339.55716c3.510376 -0.953125 6.894348 -0.34265137 10.1519165 1.8314819c3.2671509 2.1715088 5.6624756 6.062683 7.185913 11.673553c1.59375 5.869812 1.5557861 10.509186 -0.11376953 13.918121c-1.6721802 3.399353 -4.2922363 5.583374 -7.8601685 6.552124c-3.5967407 0.9765625 -6.9641724 0.40792847 -10.102417 -1.7059021c-3.1381836 -2.1138306 -5.5237427 -6.177582 -7.156555 -12.191284c-1.5 -5.524536 -1.4216919 -10.015259 0.23486328 -13.472137c1.6539917 -3.4664612 4.2073975 -5.668457 7.6602173 -6.605957zm-2.30719 -6.2785645c-4.057068 1.1015625 -7.317993 3.0682678 -9.782776 5.9001465c-2.4551392 2.8292542 -3.9714355 6.3098145 -4.548767 10.441711c-0.57995605 4.1223145 -0.27618408 8.37027 0.9113159 12.743866c1.7265625 6.3589783 4.9334717 11.342834 9.6206665 14.951569c4.687256 3.6087341 10.181519 4.5576477 16.482971 2.8467102c5.064148 -1.375 8.750916 -4.523224 11.060303 -9.444641l0 0c1.4037476 5.056366 2.1190796 8.430481 2.145935 10.122406c0.012573242 2.7771301 -0.76416016 5.1506653 -2.3301392 7.1206055c-1.565979 1.9699402 -4.147339 3.4431763 -7.7440186 4.419739c-3.3377686 0.90625 -6.1658936 0.9017639 -8.484314 -0.0134887695c-1.7277832 -0.67401123 -3.0662842 -2.1333618 -4.015625 -4.3780823l-7.857788 0.92858887l0 0c1.2286987 4.980316 3.8596191 8.24115 7.892761 9.78241c4.0358276 1.5509033 8.78717 1.584137 14.254211 0.09976196c4.60376 -1.25 8.244263 -3.1652832 10.921387 -5.74588c2.6867676 -2.583191 4.349365 -5.5628357 4.987732 -8.938934c0.65057373 -3.36911 0.007080078 -8.621582 -1.9304199 -15.757446l-10.7578125 -39.621307l-7.164612 1.9453125l1.5 5.524536c-4.697876 -3.4204712 -9.751526 -4.396332 -15.161011 -2.9275818z" fill-rule="evenodd"></path><path fill="#000000" fill-opacity="0.0" d="m-8.0 148.61679l660.22046 -173.38582" fill-rule="evenodd"></path><path stroke="#ffffff" stroke-width="8.0" stroke-linejoin="round" stroke-linecap="butt" d="m-8.0 148.61679l660.22046 -173.38582" fill-rule="evenodd"></path><path fill="#606c71" d="m78.17372 52.972767l2.6538467 9.7742195l8.987473 -2.4402428l-2.6538467 -9.774223zm5.179489 19.07626l13.615395 50.146004l8.987473 -2.440239l-13.615395 -50.14601z" fill-rule="evenodd"></path><path fill="#606c71" d="m123.13964 60.029575c-2.7628174 0.7501526 -5.2610626 1.7946281 -7.494728 3.1334267c-2.225418 1.3253021 -3.9046707 2.6656647 -5.0377655 4.0211105c-1.5221863 1.7652817 -2.5677109 3.7504044 -3.1365662 5.955368c-0.5606079 2.1914597 -0.53749084 4.4046936 0.06934357 6.639702c0.66667175 2.4553604 1.9309998 4.523117 3.7929916 6.2032623c1.8702393 1.6666412 4.232506 2.7321243 7.0867996 3.1964645c2.8625412 0.45082092 7.8028946 0.56845856 14.821068 0.35289c5.2094116 -0.1638565 8.532501 -0.035240173 9.969238 0.38585663c2.0633545 0.6227493 3.355713 1.8942337 3.8770905 3.8144531c0.581192 2.1405716 0.08970642 4.279457 -1.4744568 6.4166718c-1.5670166 2.1267166 -4.414322 3.7504349 -8.541901 4.8711395c-4.0942993 1.1116638 -7.527878 1.0806503 -10.300766 -0.093048096c-2.7617874 -1.1767044 -4.8496017 -3.381401 -6.2634354 -6.6140823l-8.528633 3.7352448c2.4430542 5.048813 5.835144 8.437256 10.17627 10.165337c4.3522263 1.7250671 9.973541 1.6521759 16.863937 -0.2186737c4.160858 -1.1297455 7.7038116 -2.8240433 10.628845 -5.0828857c2.9221954 -2.2693405 4.915268 -4.889168 5.9792175 -7.8594894c1.0722046 -2.9838257 1.2236786 -5.892288 0.4544525 -8.725395c-0.7863312 -2.8960648 -2.1601105 -5.1256256 -4.1213684 -6.688698c-1.9612579 -1.5630646 -4.3394165 -2.5115738 -7.1344757 -2.84552c-2.7868195 -0.3474579 -7.5770874 -0.46076965 -14.370789 -0.33995056c-4.7015686 0.059768677 -7.5444565 0.054267883 -8.528679 -0.01650238c-1.7268753 -0.17331696 -3.0804062 -0.61699677 -4.0605774 -1.3310547c-0.9716339 -0.68257904 -1.6070175 -1.5747452 -1.9061661 -2.6765137c-0.47008514 -1.7313385 0.0017623901 -3.4818344 1.4155426 -5.2514877c1.4137802 -1.7696457 4.1844635 -3.2148285 8.312042 -4.335533c3.4951324 -0.94898224 6.3934937 -0.95854187 8.695114 -0.028686523c2.3127136 0.92684174 4.019211 2.6266785 5.119507 5.099495l8.480057 -3.5192566c-1.4462128 -3.0886917 -3.1803894 -5.3950386 -5.2025146 -6.9190407c-2.0249786 -1.5344963 -4.7669067 -2.4405708 -8.225754 -2.7182198c-3.4477692 -0.28066635 -7.252075 0.14387512 -11.412941 1.2736168z" fill-rule="evenodd"></path><path fill="#606c71" d="m156.95064 52.066128l8.435898 31.069752c0.98291016 3.620079 1.8839417 6.2146072 2.7030945 7.783577c1.2077942 2.3422318 2.6999664 4.196022 4.476486 5.5613785c1.7847748 1.3518524 4.184677 2.22686 7.199707 2.6250153c3.026123 0.39514923 6.103668 0.16793823 9.2326355 -0.681633c7.0901184 -1.9250793 11.929749 -6.281082 14.51886 -13.068001l2.0 7.366081l8.038803 -2.1826706l-13.615402 -50.146004l-8.987473 2.4402428l7.294876 26.867306c1.1623993 4.281143 1.5561066 7.683769 1.1811218 10.207893c-0.36671448 2.5106049 -1.5537109 4.7425766 -3.5609589 6.6958923c-2.0101013 1.9428253 -4.363266 3.2802734 -7.0595093 4.012352c-2.6962433 0.7320709 -5.1321106 0.7118225 -7.3076324 -0.06073761c-2.17836 -0.78305817 -3.853897 -2.215271 -5.0266113 -4.296631c-0.7849579 -1.4430542 -1.7799988 -4.38385 -2.985138 -8.82238l-7.551285 -27.81168z" fill-rule="evenodd"></path><path fill="#606c71" d="m254.65598 52.357548l0.84614563 3.1164207c1.0171051 3.7459946 1.3036652 6.7101555 0.85972595 8.892471c-0.58969116 2.830284 -2.037506 5.3302307 -4.3434296 7.49984c-2.3087769 2.1591187 -5.194092 3.7086563 -8.65593 4.6486053c-3.4951324 0.94898224 -6.3576813 0.9150162 -8.587616 -0.10189819c-2.2188416 -1.019928 -3.6359558 -2.6631393 -4.251343 -4.9296265c-0.40171814 -1.4795074 -0.35029602 -2.9355927 0.15423584 -4.3682327c0.5016937 -1.4431381 1.432663 -2.6873627 2.792923 -3.732689c1.36026 -1.0453262 3.8194427 -2.3214264 7.377533 -3.8283005c6.2849274 -2.652851 10.887512 -5.051712 13.8077545 -7.1965904zm-18.523819 -23.007277c-4.5603027 1.2381992 -8.410416 2.920126 -11.5503235 5.0457783c-3.142746 2.1151657 -5.3318024 4.517807 -6.5671387 7.2079277c-1.2381897 2.6796303 -1.773819 5.90646 -1.6068878 9.680496l9.095444 -1.2527733c-4.8828125E-4 -3.8192253 0.8139496 -6.6992645 2.4433594 -8.640125c1.6376343 -1.954361 4.570175 -3.505455 8.797623 -4.6532707c4.5270233 -1.2291603 8.1996155 -1.1954422 11.0177765 0.10115814c2.0822601 0.955616 3.59346 3.164772 4.5336304 6.6274567c0.08547974 0.31479263 0.26968384 1.0590668 0.5526428 2.2328262c-3.1208649 2.0641518 -8.198456 4.490589 -15.232788 7.279316c-3.450592 1.3762856 -5.998169 2.5242882 -7.6427155 3.444004c-2.2257233 1.2803116 -4.1316986 2.7949028 -5.7178955 4.54377c-1.5751343 1.7458572 -2.679947 3.797783 -3.3144684 6.155777c-0.62628174 2.3444824 -0.60609436 4.7444077 0.060577393 7.199768c1.1367493 4.1867065 3.6357117 7.203621 7.496887 9.050758c3.858307 1.8366318 8.700073 1.9641342 14.525284 0.38249207c3.5284271 -0.95801544 6.6797943 -2.405159 9.454147 -4.3414307c2.7854462 -1.9392776 5.4792633 -4.698677 8.081467 -8.278183c0.9073181 2.28862 2.0663147 4.187813 3.4769897 5.697571l9.386902 -2.5486984c-1.6531067 -1.6129303 -2.9573364 -3.4107285 -3.9126282 -5.393387c-0.947052 -1.99617 -2.493225 -6.944866 -4.6385193 -14.846088l-3.0769348 -11.332432c-1.0256348 -3.7774773 -1.8848267 -6.34956 -2.5775757 -7.7162514c-1.1650696 -2.1848373 -2.6199036 -3.8572388 -4.3644867 -5.017206c-1.7474213 -1.1704578 -4.172592 -1.8752384 -7.275482 -2.1143417c-3.1029053 -0.23910141 -6.917862 0.25592804 -11.444885 1.4850883z" fill-rule="evenodd"></path><path fill="#606c71" d="m265.51263 2.1072094l18.794891 69.22227l8.987457 -2.440239l-18.794891 -69.222275z" fill-rule="evenodd"></path><path stroke="#ffffff" stroke-width="1.0" stroke-linejoin="round" stroke-linecap="butt" d="m78.17372 52.972767l2.6538467 9.7742195l8.987473 -2.4402428l-2.6538467 -9.774223zm5.179489 19.07626l13.615395 50.146004l8.987473 -2.440239l-13.615395 -50.14601z" fill-rule="evenodd"></path><path stroke="#ffffff" stroke-width="1.0" stroke-linejoin="round" stroke-linecap="butt" d="m123.13964 60.029575c-2.7628174 0.7501526 -5.2610626 1.7946281 -7.494728 3.1334267c-2.225418 1.3253021 -3.9046707 2.6656647 -5.0377655 4.0211105c-1.5221863 1.7652817 -2.5677109 3.7504044 -3.1365662 5.955368c-0.5606079 2.1914597 -0.53749084 4.4046936 0.06934357 6.639702c0.66667175 2.4553604 1.9309998 4.523117 3.7929916 6.2032623c1.8702393 1.6666412 4.232506 2.7321243 7.0867996 3.1964645c2.8625412 0.45082092 7.8028946 0.56845856 14.821068 0.35289c5.2094116 -0.1638565 8.532501 -0.035240173 9.969238 0.38585663c2.0633545 0.6227493 3.355713 1.8942337 3.8770905 3.8144531c0.581192 2.1405716 0.08970642 4.279457 -1.4744568 6.4166718c-1.5670166 2.1267166 -4.414322 3.7504349 -8.541901 4.8711395c-4.0942993 1.1116638 -7.527878 1.0806503 -10.300766 -0.093048096c-2.7617874 -1.1767044 -4.8496017 -3.381401 -6.2634354 -6.6140823l-8.528633 3.7352448c2.4430542 5.048813 5.835144 8.437256 10.17627 10.165337c4.3522263 1.7250671 9.973541 1.6521759 16.863937 -0.2186737c4.160858 -1.1297455 7.7038116 -2.8240433 10.628845 -5.0828857c2.9221954 -2.2693405 4.915268 -4.889168 5.9792175 -7.8594894c1.0722046 -2.9838257 1.2236786 -5.892288 0.4544525 -8.725395c-0.7863312 -2.8960648 -2.1601105 -5.1256256 -4.1213684 -6.688698c-1.9612579 -1.5630646 -4.3394165 -2.5115738 -7.1344757 -2.84552c-2.7868195 -0.3474579 -7.5770874 -0.46076965 -14.370789 -0.33995056c-4.7015686 0.059768677 -7.5444565 0.054267883 -8.528679 -0.01650238c-1.7268753 -0.17331696 -3.0804062 -0.61699677 -4.0605774 -1.3310547c-0.9716339 -0.68257904 -1.6070175 -1.5747452 -1.9061661 -2.6765137c-0.47008514 -1.7313385 0.0017623901 -3.4818344 1.4155426 -5.2514877c1.4137802 -1.7696457 4.1844635 -3.2148285 8.312042 -4.335533c3.4951324 -0.94898224 6.3934937 -0.95854187 8.695114 -0.028686523c2.3127136 0.92684174 4.019211 2.6266785 5.119507 5.099495l8.480057 -3.5192566c-1.4462128 -3.0886917 -3.1803894 -5.3950386 -5.2025146 -6.9190407c-2.0249786 -1.5344963 -4.7669067 -2.4405708 -8.225754 -2.7182198c-3.4477692 -0.28066635 -7.252075 0.14387512 -11.412941 1.2736168z" fill-rule="evenodd"></path><path stroke="#ffffff" stroke-width="1.0" stroke-linejoin="round" stroke-linecap="butt" d="m156.95064 52.066128l8.435898 31.069752c0.98291016 3.620079 1.8839417 6.2146072 2.7030945 7.783577c1.2077942 2.3422318 2.6999664 4.196022 4.476486 5.5613785c1.7847748 1.3518524 4.184677 2.22686 7.199707 2.6250153c3.026123 0.39514923 6.103668 0.16793823 9.2326355 -0.681633c7.0901184 -1.9250793 11.929749 -6.281082 14.51886 -13.068001l2.0 7.366081l8.038803 -2.1826706l-13.615402 -50.146004l-8.987473 2.4402428l7.294876 26.867306c1.1623993 4.281143 1.5561066 7.683769 1.1811218 10.207893c-0.36671448 2.5106049 -1.5537109 4.7425766 -3.5609589 6.6958923c-2.0101013 1.9428253 -4.363266 3.2802734 -7.0595093 4.012352c-2.6962433 0.7320709 -5.1321106 0.7118225 -7.3076324 -0.06073761c-2.17836 -0.78305817 -3.853897 -2.215271 -5.0266113 -4.296631c-0.7849579 -1.4430542 -1.7799988 -4.38385 -2.985138 -8.82238l-7.551285 -27.81168z" fill-rule="evenodd"></path><path stroke="#ffffff" stroke-width="1.0" stroke-linejoin="round" stroke-linecap="butt" d="m254.65598 52.357548l0.84614563 3.1164207c1.0171051 3.7459946 1.3036652 6.7101555 0.85972595 8.892471c-0.58969116 2.830284 -2.037506 5.3302307 -4.3434296 7.49984c-2.3087769 2.1591187 -5.194092 3.7086563 -8.65593 4.6486053c-3.4951324 0.94898224 -6.3576813 0.9150162 -8.587616 -0.10189819c-2.2188416 -1.019928 -3.6359558 -2.6631393 -4.251343 -4.9296265c-0.40171814 -1.4795074 -0.35029602 -2.9355927 0.15423584 -4.3682327c0.5016937 -1.4431381 1.432663 -2.6873627 2.792923 -3.732689c1.36026 -1.0453262 3.8194427 -2.3214264 7.377533 -3.8283005c6.2849274 -2.652851 10.887512 -5.051712 13.8077545 -7.1965904zm-18.523819 -23.007277c-4.5603027 1.2381992 -8.410416 2.920126 -11.5503235 5.0457783c-3.142746 2.1151657 -5.3318024 4.517807 -6.5671387 7.2079277c-1.2381897 2.6796303 -1.773819 5.90646 -1.6068878 9.680496l9.095444 -1.2527733c-4.8828125E-4 -3.8192253 0.8139496 -6.6992645 2.4433594 -8.640125c1.6376343 -1.954361 4.570175 -3.505455 8.797623 -4.6532707c4.5270233 -1.2291603 8.1996155 -1.1954422 11.0177765 0.10115814c2.0822601 0.955616 3.59346 3.164772 4.5336304 6.6274567c0.08547974 0.31479263 0.26968384 1.0590668 0.5526428 2.2328262c-3.1208649 2.0641518 -8.198456 4.490589 -15.232788 7.279316c-3.450592 1.3762856 -5.998169 2.5242882 -7.6427155 3.444004c-2.2257233 1.2803116 -4.1316986 2.7949028 -5.7178955 4.54377c-1.5751343 1.7458572 -2.679947 3.797783 -3.3144684 6.155777c-0.62628174 2.3444824 -0.60609436 4.7444077 0.060577393 7.199768c1.1367493 4.1867065 3.6357117 7.203621 7.496887 9.050758c3.858307 1.8366318 8.700073 1.9641342 14.525284 0.38249207c3.5284271 -0.95801544 6.6797943 -2.405159 9.454147 -4.3414307c2.7854462 -1.9392776 5.4792633 -4.698677 8.081467 -8.278183c0.9073181 2.28862 2.0663147 4.187813 3.4769897 5.697571l9.386902 -2.5486984c-1.6531067 -1.6129303 -2.9573364 -3.4107285 -3.9126282 -5.393387c-0.947052 -1.99617 -2.493225 -6.944866 -4.6385193 -14.846088l-3.0769348 -11.332432c-1.0256348 -3.7774773 -1.8848267 -6.34956 -2.5775757 -7.7162514c-1.1650696 -2.1848373 -2.6199036 -3.8572388 -4.3644867 -5.017206c-1.7474213 -1.1704578 -4.172592 -1.8752384 -7.275482 -2.1143417c-3.1029053 -0.23910141 -6.917862 0.25592804 -11.444885 1.4850883z" fill-rule="evenodd"></path><path stroke="#ffffff" stroke-width="1.0" stroke-linejoin="round" stroke-linecap="butt" d="m265.51263 2.1072094l18.794891 69.22227l8.987457 -2.440239l-18.794891 -69.222275z" fill-rule="evenodd"></path><path fill="#155799" d="m47.25018 175.186c-0.5552826 -0.72154236 -1.4772034 -1.7042999 -2.7657585 -2.948288c-1.2820625 -1.2489929 -2.1932259 -2.2245026 -2.7335014 -2.9265442c-0.82541656 -1.0725555 -1.8460274 -1.6792145 -3.0618248 -1.8199615c-1.2042923 -0.13926697 -2.3427162 0.20381165 -3.4152641 1.0292511c-1.8135872 1.3957214 -4.428419 3.5995636 -7.844494 6.611511c-3.4045715 3.013443 -6.013653 5.218033 -7.827238 6.6137543c-0.9360447 0.7203827 -2.4126472 1.7066803 -4.4298086 2.9589233c-2.0121603 1.2587433 -3.4960117 2.2557983 -4.451557 2.9911804c-0.8385391 0.64533997 -1.3207159 1.4511261 -1.4465275 2.4173737c-0.12581253 0.96624756 0.13394547 1.8686371 0.77927303 2.7071838c0.6603346 0.8580475 1.4736223 1.3499756 2.4398613 1.4757843c0.966239 0.12580872 1.8686285 -0.13395691 2.7071686 -0.7792969c0.9555454 -0.7353821 2.4368954 -1.7356873 4.4440517 -3.0009308c2.0071583 -1.2652283 3.4787579 -2.2580414 4.4148026 -2.9784088c1.7550831 -1.350708 4.0591564 -3.2791595 6.912222 -5.78537c3.2520714 -2.8753815 5.535881 -4.850342 6.851429 -5.924881c1.8788261 1.8764954 3.0808754 3.1560059 3.606144 3.8385468c1.2156143 1.5795746 2.764412 3.6324463 4.646385 6.1585846c2.497284 3.3256836 4.038578 5.368805 4.6238747 6.1293335c-5.5023155 3.986145 -8.467983 6.1443024 -8.897003 6.474472c-1.5795746 1.2156372 -3.8318863 3.1508331 -6.756935 5.805588c-2.925045 2.65477 -5.1773567 4.5899506 -6.7569313 5.805588c-0.83854103 0.64533997 -1.3207169 1.4511261 -1.4465294 2.4173737c-0.12581253 0.96624756 0.13394547 1.8686371 0.779274 2.7071838c0.66033554 0.8580475 1.4736233 1.3499756 2.4398613 1.4757843c0.9662399 0.12580872 1.8686295 -0.13395691 2.7071686 -0.7792969c1.618576 -1.245636 3.9048843 -3.2173462 6.8589325 -5.9151306c2.9590454 -2.691269 5.2381096 -4.652237 6.837185 -5.8828735c1.267559 -0.97550964 3.206417 -2.3900146 5.816574 -4.243515c2.610157 -1.8535156 4.549019 -3.2680206 5.816578 -4.2435303c0.7800369 -0.6003113 1.2334518 -1.4098358 1.3602562 -2.4286041c0.13830185 -1.0172577 -0.09269714 -1.9159088 -0.6930008 -2.6959534c-1.290657 -1.6770782 -3.2113953 -4.2199707 -5.762211 -7.628662c-2.5443153 -3.4136963 -4.4617996 -5.959091 -5.7524567 -7.6361694z" fill-rule="evenodd"></path><path fill="#155799" d="m74.50694 220.34753c2.3862076 3.100647 3.5062866 5.7059937 3.3602219 7.8159943c-0.14105988 2.116516 -1.6936569 4.3153534 -4.657799 6.5965424c-3.5491638 2.7314148 -7.430931 4.243881 -11.645283 4.5373993c-4.568428 0.3176117 -7.9932213 -1.005661 -10.27438 -3.969818c-1.9659996 -2.5546265 -2.909546 -5.2130127 -2.8306427 -7.9751587c0.09687424 -2.900177 1.3153687 -5.2507324 3.6554756 -7.0516663c3.4711647 -2.6713867 7.427967 -4.0863495 11.870399 -4.2448883c4.703495 -0.14208984 8.2108345 1.2884369 10.522007 4.2915955zm5.879524 -4.5248566c-3.8869705 -5.050766 -9.341209 -7.4980774 -16.362709 -7.3419647c-6.244339 0.11694336 -11.774872 2.0288696 -16.591599 5.735794c-4.095192 3.1516418 -6.251751 7.24881 -6.469677 12.291489c-0.21648788 4.7621307 1.266079 9.210297 4.447693 13.344513c3.8869743 5.0507507 9.310432 7.3975525 16.270374 7.0404053c5.990738 -0.3254242 11.39447 -2.3415985 16.211197 -6.048523c9.106926 -7.0086517 9.938499 -15.349213 2.4947205 -25.021713z" fill-rule="evenodd"></path><path fill="#155799" d="m94.81117 262.10336c-1.1856003 -1.5405884 -3.032257 -3.7989197 -5.539963 -6.7750397c-2.5077133 -2.9761047 -4.35437 -5.234436 -5.5399704 -6.7750244c-1.260643 -1.6380768 -2.651497 -1.8718262 -4.1725693 -0.70121765c-1.5210724 1.1706085 -1.6512909 2.5749664 -0.3906479 4.213043c5.2226562 6.7863464 8.991005 11.400543 11.305054 13.84256c1.3611069 1.4055176 2.714447 1.5905151 4.060013 0.55496216c1.5210724 -1.1705933 1.6137619 -2.6237183 0.2780838 -4.3592834z" fill-rule="evenodd"></path><path fill="#155799" d="m119.08254 281.477c1.3506851 1.7550964 1.4746552 3.7452698 0.3719101 5.97052c-1.0912476 2.2267456 -3.4114456 4.7058105 -6.960617 7.4372253c-2.5156174 1.9360046 -4.9909286 2.9560547 -7.4259415 3.0601196c-2.8040848 0.108673096 -5.144104 -1.0558167 -7.0200577 -3.4934387c-1.6358337 -2.1256104 -2.8621445 -4.5663757 -3.6789322 -7.3223267c4.875229 -3.7519531 9.42865 -7.458069 13.660255 -11.118347c2.717186 0.4239807 4.7562485 0.93515015 6.11718 1.5334778c1.9101028 0.8277588 3.5555038 2.1386719 4.936203 3.9327698zm-1.2169647 -17.740479c-0.85543823 -1.1115723 -2.0835419 -1.5171204 -3.6843262 -1.2167053c-1.3457413 0.22836304 -2.7108994 0.8753357 -4.095459 1.9408875l-5.6003647 5.0086365c-3.3300705 2.9354248 -7.1079483 6.075714 -11.333626 9.420929l-11.671303 8.982178l-11.768082 8.916901c-0.8580475 0.6603699 -1.3549728 1.4671326 -1.4907913 2.4203796c-0.1308136 0.9597473 0.12644196 1.8589172 0.77176666 2.6974487c0.64533234 0.8385315 1.4461136 1.314209 2.4023438 1.4270325c0.96123505 0.11929321 1.8708801 -0.1512146 2.72892 -0.81155396l14.027184 -10.702087c1.1768799 2.8203735 2.515709 5.205597 4.016472 7.1557007c3.076561 3.9977112 6.980873 6.0852966 11.712952 6.262787c4.4710083 0.16101074 8.812614 -1.379303 13.024818 -4.621002c4.6217194 -3.5568542 7.773857 -7.1471252 9.456413 -10.770813c2.1234512 -4.584015 1.6468887 -8.874878 -1.4296722 -12.872589c-1.0955582 -1.4235535 -2.5329056 -2.6927795 -4.312042 -3.8076172c-1.7726364 -1.119873 -3.8795624 -2.075592 -6.3207703 -2.867218c0.5370407 -0.3511963 1.14534 -0.71066284 1.8249054 -1.0783997c0.51304626 -0.30169678 0.8573227 -0.52008057 1.0328293 -0.65515137c0.7800369 -0.6003113 1.2364655 -1.3655701 1.3692932 -2.295807c0.14431763 -0.928772 -0.076164246 -1.773407 -0.6614609 -2.5339355z" fill-rule="evenodd"></path><path fill="#155799" d="m156.27763 317.22015c-0.7803955 -1.0140686 -1.9567413 -1.4129028 -3.5290375 -1.1964722c-3.6261902 0.49291992 -7.784912 1.3025513 -12.476196 2.4288635l-13.4234085 3.4372864c5.575905 -10.346069 9.389336 -18.947632 11.440254 -25.804657c0.30734253 -1.0127869 0.11582947 -1.9677124 -0.57450867 -2.864746c-0.58529663 -0.7605591 -1.4178467 -1.2169495 -2.4976044 -1.3692627c-1.0747681 -0.14578247 -2.011917 0.08898926 -2.8114624 0.7043152c-0.6045227 0.46524048 -1.15271 1.3063049 -1.6445465 2.5231934l-1.1223297 2.9596558l-12.095116 25.982605c-12.582588 2.9765015 -19.848923 5.215149 -21.799019 6.7159424c-0.79953766 0.6153259 -1.238205 1.4238281 -1.3159943 2.4255981c-0.07929993 1.0132446 0.1962204 1.9293823 0.8265381 2.748413c0.960495 1.2480774 2.3378677 1.5853271 4.1321335 1.0118103l7.1605225 -2.436676c4.6086884 -1.4353638 10.535393 -2.9535522 17.78012 -4.554535l29.668983 -6.717743c0.74113464 -0.16668701 1.3262024 -0.41513062 1.7552185 -0.7453003c0.78004456 -0.6003113 1.21521 -1.4268494 1.305481 -2.4796143c0.09529114 -1.0462646 -0.16471863 -1.9691467 -0.7800293 -2.7686768z" fill-rule="evenodd"></path><path fill="#155799" d="m173.24869 337.88046c-2.8214264 -3.6661987 -7.69783 -5.160919 -14.629196 -4.484192c-6.23822 0.6090393 -11.336685 2.4368591 -15.295364 5.483429c-4.153702 3.1966553 -6.417557 7.1745605 -6.79158 11.933716c-0.3620758 4.5326233 0.9951782 8.79776 4.0717316 12.795471c1.3356781 1.7355957 3.6015625 3.4694824 6.797653 5.2016296c3.6372375 1.9826355 6.167633 2.426178 7.591202 1.3305969c0.74102783 -0.570282 1.1949615 -1.3388367 1.3617859 -2.3055725c0.17332458 -0.97177124 -0.017654419 -1.8184204 -0.572937 -2.5399475c-0.19509888 -0.25350952 -0.67378235 -0.5527344 -1.4360199 -0.8976135l-4.4249115 -1.997467c-1.6445465 -0.8458252 -2.9170532 -1.8537598 -3.817505 -3.0238037c-1.9810028 -2.5741577 -2.909546 -5.213043 -2.7856293 -7.9166565c0.13139343 -2.895691 1.4841461 -5.3340454 4.058258 -7.315094c2.3791199 -1.8309326 5.8798523 -3.1122742 10.502197 -3.8439636c5.0499268 -0.78134155 8.340286 -0.1774292 9.871063 1.811676c2.0110168 2.6131287 3.0009766 4.8476562 2.9698792 6.703583c-0.03135681 0.6451416 -0.0592041 1.3083191 -0.08357239 1.9894714c-0.0128479 0.6826477 0.19833374 1.3067322 0.6335602 1.8722839c0.5552826 0.7215271 1.3065338 1.105957 2.2537537 1.1532288c0.95370483 0.042297363 1.8010864 -0.2217102 2.5421295 -0.7919922c1.6575775 -1.2756653 1.913559 -3.848053 0.76794434 -7.717163c-0.9188843 -3.0499878 -2.1136932 -5.5305176 -3.5844421 -7.44162z" fill-rule="evenodd"></path><path fill="#155799" d="m196.93071 368.65305c-2.8214264 -3.6661987 -7.69783 -5.160919 -14.629196 -4.484192c-6.23822 0.6090393 -11.336685 2.4368591 -15.295364 5.483429c-4.153702 3.1966553 -6.417557 7.1745605 -6.79158 11.933746c-0.36206055 4.532593 0.9951782 8.7977295 4.071747 12.795441c1.3356781 1.7355957 3.6015472 3.4694824 6.797638 5.20166c3.6372375 1.982605 6.167633 2.4261475 7.591202 1.3305664c0.7410431 -0.570282 1.1949615 -1.3388062 1.3617859 -2.3055725c0.17332458 -0.97177124 -0.017654419 -1.8184204 -0.572937 -2.5399475c-0.19509888 -0.25350952 -0.6737671 -0.5527344 -1.4360199 -0.8976135l-4.4249115 -1.997467c-1.6445465 -0.8458252 -2.9170532 -1.8537598 -3.817505 -3.0238037c-1.9810028 -2.5741577 -2.909546 -5.2130127 -2.785614 -7.9166565c0.13137817 -2.895691 1.4841309 -5.3340454 4.058258 -7.3150635c2.3791046 -1.8309631 5.879837 -3.1123047 10.502182 -3.8439941c5.0499268 -0.78134155 8.340286 -0.1774292 9.871063 1.811676c2.0110168 2.6131287 3.0009766 4.8476562 2.9698944 6.703583c-0.03137207 0.6451416 -0.05921936 1.3083191 -0.08357239 1.9894714c-0.0128479 0.6826477 0.19833374 1.3067322 0.6335449 1.8722839c0.5552826 0.7215271 1.3065338 1.105957 2.2537537 1.1532288c0.9537201 0.042297363 1.8010864 -0.22167969 2.5421295 -0.7919922c1.6575775 -1.2756653 1.913559 -3.848053 0.76794434 -7.717163c-0.918869 -3.0499878 -2.1136932 -5.5305176 -3.5844421 -7.44162z" fill-rule="evenodd"></path><path fill="#155799" d="m212.76529 389.34964c-1.5457916 -2.008606 -3.5764923 -2.0448914 -6.0921173 -0.10888672c-1.8720856 1.4407349 -4.608185 3.6550903 -8.208313 6.643097c-3.600113 2.987976 -6.326477 5.1948547 -8.179062 6.620575c-0.93603516 0.72039795 -2.415619 1.7969666 -4.438751 3.2297363c-2.0166168 1.4277954 -3.4832 2.4943542 -4.3997498 3.199707c-0.79953 0.6153259 -1.2229462 1.3966064 -1.2702484 2.3438416c-0.042297363 0.95370483 0.25170898 1.8400879 0.8820343 2.6591492c1.2306213 1.59906 2.755783 1.9468079 4.575485 1.0431824c0.5235596 -0.24768066 2.3844147 -1.6021423 5.5825653 -4.0634155c0.7800293 -0.6003113 1.9380951 -1.4760132 3.4741669 -2.6271362c1.6530914 -1.2411499 2.8013916 -2.1093445 3.444931 -2.6046143l2.7013702 3.5101929c0.53578186 0.73654175 0.0113220215 3.6863098 -1.5733795 8.849335c-1.5097504 4.8569336 -2.7592926 8.074951 -3.7486725 9.654022c-0.98435974 1.5856018 -0.9512787 3.060913 0.09925842 4.425995c0.58529663 0.76052856 1.356842 1.258728 2.3145905 1.4945679c0.96276855 0.24234009 1.8341675 0.063323975 2.6141968 -0.5369873c1.6575775 -1.2756653 3.2667694 -4.2684326 4.8275604 -8.978363c1.5278168 -4.5913696 2.2336273 -8.394897 2.1174164 -11.410553c1.17482 0.27581787 2.5506287 0.28823853 4.127411 0.037322998c0.27005005 -0.05255127 1.6075287 -0.35217285 4.012436 -0.8988342c3.5135803 -0.8410034 5.6905823 -0.7154541 6.531006 0.3765869c1.0205231 1.3260803 2.3010712 1.3963013 3.8416443 0.21069336c0.70202637 -0.5402832 0.8923645 -1.4630432 0.57099915 -2.7682495c-0.25378418 -1.015686 -0.6508026 -1.8745422 -1.1910858 -2.5765686c-1.7108612 -2.223114 -4.7041626 -2.8848267 -8.979904 -1.9851685c-1.540741 0.37841797 -2.7919464 0.68927 -3.753601 0.93255615c-2.780014 0.46273804 -5.1634827 -0.4354248 -7.150421 -2.6944885l-1.6433258 -2.135376c4.2241516 -3.4682312 7.048004 -5.750122 8.471573 -6.845703c0.7800293 -0.6003113 1.2059479 -1.3783264 1.2777557 -2.3340454c0.07180786 -0.9557495 -0.2074585 -1.8431396 -0.83776855 -2.6621704z" fill-rule="evenodd"></path><path fill="#155799" d="m234.39217 418.1175c-1.5007629 -1.9501038 -3.2456818 -2.1597595 -5.2347717 -0.6289673l0 0c0.0037841797 -0.0029296875 0.005722046 -0.004333496 0.0058288574 -0.004180908c0.00390625 0.005065918 -2.967392 2.4624634 -8.913895 7.372101c-5.875717 4.832428 -11.592453 9.387238 -17.150208 13.664459c-0.83854675 0.6453552 -1.2486877 1.504364 -1.2304535 2.577118c0.031723022 0.96920776 0.37776184 1.882843 1.0381012 2.7408752c0.8704376 1.131073 2.2396393 1.8006592 4.1075897 2.008789c2.3360596 0.25152588 5.64592 0.84039307 9.929565 1.7666321c3.261856 0.68792725 7.014267 1.0449219 11.257202 1.0709534c2.2099762 0.007019043 5.9855194 -0.15063477 11.326614 -0.4729004c-1.8794556 2.036377 -4.0184937 3.977539 -6.4171143 5.823517c-1.2675476 0.9754944 -3.2041626 2.3727417 -5.8098297 4.191742c-2.605667 1.8190002 -4.542282 3.2162476 -5.8098297 4.1917725c-0.819046 0.63031006 -1.2922211 1.4343567 -1.4195251 2.4121094c-0.1288147 0.9892578 0.12944031 1.9031372 0.7747803 2.7416992c0.63031006 0.81903076 1.4376068 1.2897034 2.4218445 1.4120178c0.9827423 0.13381958 1.8836365 -0.114471436 2.7026672 -0.7447815c0.7605438 -0.58529663 1.9216003 -1.416748 3.4832 -2.4943542c1.561615 -1.0776062 2.7226715 -1.9090576 3.4832153 -2.4943542c2.1645966 -1.665863 5.3944855 -4.2136536 9.689667 -7.643402c4.3016663 -3.4347534 7.5348053 -5.985077 9.699417 -7.65094c0.8385315 -0.6453247 1.3157196 -1.4576111 1.4315186 -2.4368591c0.12081909 -0.9727478 -0.13394165 -1.8686523 -0.76426697 -2.687683c-1.0055084 -1.3065796 -2.721283 -1.9423218 -5.147293 -1.9072571c-9.330521 0.101135254 -14.992752 0.12716675 -16.98671 0.07809448c-6.419922 -0.15158081 -12.059784 -0.7016907 -16.919556 -1.6502991l14.267792 -11.539337c3.4741364 -2.8289185 5.342453 -4.3754272 5.60495 -4.639557c1.661972 -1.7137451 1.8551483 -3.399414 0.5794983 -5.057007z" fill-rule="evenodd"></path></g></svg>

