<?xml version="1.0" encoding="UTF-8" standalone="no"?>
<svg
   xmlns:dc="http://purl.org/dc/elements/1.1/"
   xmlns:cc="http://creativecommons.org/ns#"
   xmlns:rdf="http://www.w3.org/1999/02/22-rdf-syntax-ns#"
   xmlns:svg="http://www.w3.org/2000/svg"
   xmlns="http://www.w3.org/2000/svg"
   xmlns:xlink="http://www.w3.org/1999/xlink"
   xmlns:sodipodi="http://sodipodi.sourceforge.net/DTD/sodipodi-0.dtd"
   xmlns:inkscape="http://www.inkscape.org/namespaces/inkscape"
   version="1.1"
   viewBox="0.0 0.0 780.9632545931759 375.5853018372703"
   fill="none"
   stroke="none"
   stroke-linecap="square"
   stroke-miterlimit="10"
   id="svg279"
   sodipodi:docname="v-slam.svg"
   inkscape:version="0.92.1 r15371">
  <metadata
     id="metadata285">
    <rdf:RDF>
      <cc:Work
         rdf:about="">
        <dc:format>image/svg+xml</dc:format>
        <dc:type
           rdf:resource="http://purl.org/dc/dcmitype/StillImage" />
        <dc:title></dc:title>
      </cc:Work>
    </rdf:RDF>
  </metadata>
  <defs
     id="defs283">
    <linearGradient
       inkscape:collect="always"
       id="linearGradient5075">
      <stop
         style="stop-color:#159957;stop-opacity:1;"
         offset="0"
         id="stop5071" />
      <stop
         style="stop-color:#fffffb;stop-opacity:1"
         offset="1"
         id="stop5073" />
    </linearGradient>
    <linearGradient
       inkscape:collect="always"
       xlink:href="#linearGradient5075"
       id="linearGradient5079"
       gradientUnits="userSpaceOnUse"
       x1="106.2995"
       y1="116.75826"
       x2="49.47538"
       y2="121.76427" />
  </defs>
  <sodipodi:namedview
     pagecolor="#ffffff"
     bordercolor="#666666"
     borderopacity="1"
     objecttolerance="10"
     gridtolerance="10"
     guidetolerance="10"
     inkscape:pageopacity="0"
     inkscape:pageshadow="2"
     inkscape:window-width="1920"
     inkscape:window-height="1017"
     id="namedview281"
     showgrid="false"
     inkscape:zoom="1.5980822"
     inkscape:cx="313.22935"
     inkscape:cy="187.79265"
     inkscape:window-x="-8"
     inkscape:window-y="-8"
     inkscape:window-maximized="1"
     inkscape:current-layer="svg279" />
  <clipPath
     id="p.0">
    <path
       d="m0 0l780.96326 0l0 375.5853l-780.96326 0l0 -375.5853z"
       clip-rule="nonzero"
       id="path100" />
  </clipPath>
  <path
     style="fill:#000000;fill-opacity:0;fill-rule:evenodd"
     inkscape:connector-curvature="0"
     id="path103"
     d="M 0,0 H 780.96326 V 375.5853 H 0 Z" />
  <path
     style="fill:#606c71;fill-rule:evenodd"
     inkscape:connector-curvature="0"
     id="path105"
     d="m 257.7191,189.07314 c 4.06604,-0.70328 7.73343,0.26295 11.00211,2.8987 3.27713,2.62379 5.43652,6.947 6.47824,12.96965 1.10516,6.38951 0.56698,11.37873 -1.61454,14.96768 -2.18154,3.58894 -5.32061,5.7377 -9.41726,6.44627 -4.1272,0.71387 -7.81916,-0.24287 -11.0759,-2.87019 -3.2585,-2.63751 -5.42711,-7.07459 -6.50584,-13.31123 -1.07872,-6.23664 -0.52468,-11.13414 1.66214,-14.69252 2.18683,-3.55837 5.34384,-5.69449 9.47105,-6.40836 z m -1.18185,-6.83279 c -6.02266,1.04171 -10.81618,3.72853 -14.38056,8.06044 -4.26291,5.2084 -5.61439,12.32194 -4.05447,21.34062 1.42244,8.22381 4.61101,14.15849 9.5657,17.80406 4.96491,3.6438 10.85611,4.8761 17.67365,3.69691 4.24948,-0.73501 7.99591,-2.40632 11.23932,-5.01394 3.25357,-2.60938 5.50769,-5.86977 6.76229,-9.78118 1.26307,-3.92337 1.3526,-9.01866 0.26859,-15.28587 -1.33783,-7.73466 -4.51047,-13.42546 -9.51788,-17.07242 -5.00919,-3.65712 -10.86139,-4.90666 -17.55664,-3.74862 z" />
  <path
     style="fill:#606c71;fill-rule:evenodd"
     inkscape:connector-curvature="0"
     id="path107"
     d="m 308.67758,173.22186 c -4.18835,0.72444 -7.89493,2.38362 -11.11969,4.97751 -3.21634,2.58194 -5.35474,5.9955 -6.41519,10.24066 -1.06049,4.24518 -1.13596,8.99693 -0.22644,14.25528 1.40658,8.1321 4.50992,14.02905 9.31,17.69087 4.8085,3.64986 10.5451,4.89841 17.20977,3.74565 5.31949,-0.92009 9.53015,-3.27519 12.63199,-7.06529 3.11026,-3.80206 4.62485,-8.57709 4.54373,-14.32507 l -8.29925,0.34921 c 0.133,4.22766 -0.71396,7.5228 -2.54083,9.88539 -1.82691,2.36261 -4.36066,3.82417 -7.60126,4.38469 -4.03549,0.698 -7.56314,-0.21893 -10.58298,-2.75079 -3.0198,-2.53186 -5.09552,-7.06897 -6.22711,-13.61133 -1.11575,-6.45065 -0.63165,-11.38854 1.45227,-14.81366 2.08215,-3.43532 5.20212,-5.51254 9.3599,-6.2317 2.75146,-0.47591 5.23809,-0.0559 7.45983,1.26011 2.23197,1.31421 4.013,3.5408 5.34308,6.6798 l 7.81098,-2.62622 c -1.79908,-4.75814 -4.611,-8.18134 -8.4357,-10.26961 -3.82648,-2.09847 -8.38419,-2.6903 -13.6731,-1.7755 z" />
  <path
     style="fill:#606c71;fill-rule:evenodd"
     inkscape:connector-curvature="0"
     id="path109"
     d="m 371.44086,188.48396 0.5235,3.02661 c 0.62927,3.63805 0.66186,6.46619 0.0978,8.48441 -0.74399,2.61612 -2.2334,4.83638 -4.46823,6.66081 -2.23661,1.81424 -4.94464,2.99632 -8.12412,3.54626 -3.21005,0.55524 -5.77762,0.24366 -7.7027,-0.93472 -1.91488,-1.18013 -3.06271,-2.87079 -3.44342,-5.07196 -0.24853,-1.43687 -0.092,-2.80737 0.46961,-4.11148 0.55981,-1.3143 1.49002,-2.3988 2.79056,-3.25348 1.30053,-0.85467 3.60525,-1.82007 6.91412,-2.89616 5.84402,-1.89244 10.15832,-3.7092 12.94284,-5.45029 z m -14.88773,-23.54291 c -4.18835,0.72444 -7.77267,1.9374 -10.75296,3.63887 -2.98208,1.69129 -5.12963,3.74727 -6.44268,6.16794 -1.31485,2.41048 -2.04035,5.40648 -2.17655,8.98799 l 8.26132,-0.29541 c 0.28907,-3.60795 1.23865,-6.24913 2.8487,-7.92352 1.61853,-1.68634 4.36908,-2.86528 8.25171,-3.53685 4.15777,-0.71915 7.45266,-0.32872 9.8847,1.17129 1.79712,1.10605 2.98651,3.34053 3.56818,6.70343 0.0529,0.30571 0.16183,1.0268 0.32693,2.16324 -2.95855,1.64523 -7.70141,3.44167 -14.2286,5.38928 -3.20243,0.96325 -5.57682,1.799 -7.12308,2.50725 -2.09543,0.99217 -3.92151,2.23686 -5.47824,3.7341 -1.54657,1.49547 -2.69406,3.32599 -3.44254,5.49158 -0.73999,2.15361 -0.90378,4.42273 -0.49133,6.80733 0.70328,4.06605 2.71829,7.16003 6.04504,9.28196 3.32502,2.11173 7.66254,2.7049 13.01261,1.77953 3.24063,-0.56052 6.17981,-1.6199 8.81753,-3.17816 2.64792,-1.56003 5.27573,-3.90373 7.88346,-7.03113 0.64114,2.25059 1.53781,4.15785 2.68994,5.72182 l 8.62127,-1.49118 c -1.362,-1.68509 -2.39672,-3.51076 -3.10415,-5.47699 -0.69904,-1.9782 -1.71216,-6.80405 -3.0394,-14.47757 L 378.58133,180.07 c -0.63452,-3.66861 -1.211,-6.18228 -1.7294,-7.54098 -0.88043,-2.17771 -2.0599,-3.89961 -3.53836,-5.16574 -1.48019,-1.27631 -3.60422,-2.17888 -6.37204,-2.70772 -2.76782,-0.52883 -6.23062,-0.43366 -10.3884,0.28549 z" />
  <path
     style="fill:#606c71;fill-rule:evenodd"
     inkscape:connector-curvature="0"
     id="path111"
     d="m 384.9975,142.07391 11.62805,67.22736 8.2544,-1.42772 -11.62806,-67.22737 z" />
  <path
     style="fill:#606c71;fill-rule:evenodd"
     inkscape:connector-curvature="0"
     id="path113"
     d="m 406.0921,138.42528 1.64188,9.49254 8.25439,-1.42774 -1.64188,-9.49253 z m 3.20444,18.5265 8.42358,48.70085 8.25443,-1.42771 -8.42362,-48.70087 z" />
  <path
     style="fill:#606c71;fill-rule:evenodd"
     inkscape:connector-curvature="0"
     id="path115"
     d="m 427.5938,153.78699 1.15805,6.69522 19.85642,-3.43448 c 2.69033,-0.46533 5.77752,-1.09376 9.26156,-1.8853 v 0 l -24.84482,40.94747 1.15805,6.69522 43.10636,-7.4559 -1.22943,-7.10795 -22.51618,3.89452 c -3.24063,0.56052 -6.68673,1.29826 -10.33835,2.21324 l 4.1146,-6.52092 21.02222,-35.46887 -0.94391,-5.45706 z" />
  <path
     style="fill:#606c71;fill-rule:evenodd"
     inkscape:connector-curvature="0"
     id="path117"
     d="m 512.36194,164.1095 0.5235,3.02661 c 0.62921,3.63805 0.66186,6.46617 0.0978,8.48441 -0.74402,2.6161 -2.23343,4.83638 -4.46826,6.66081 -2.23661,1.81424 -4.94464,2.99632 -8.12412,3.54626 -3.21005,0.55523 -5.77759,0.24366 -7.7027,-0.93472 -1.91488,-1.18013 -3.06268,-2.87079 -3.44342,-5.07196 -0.24853,-1.43687 -0.092,-2.80737 0.46961,-4.11148 0.55981,-1.31432 1.49002,-2.3988 2.79056,-3.25348 1.30056,-0.85467 3.60525,-1.82007 6.91412,-2.89616 5.84405,-1.89244 10.15832,-3.7092 12.94287,-5.45029 z m -14.88776,-23.54291 c -4.18835,0.72444 -7.77267,1.9374 -10.75296,3.63887 -2.98205,1.69129 -5.12963,3.74727 -6.44268,6.16794 -1.31482,2.41048 -2.04035,5.40646 -2.17655,8.98799 l 8.26135,-0.29541 c 0.28904,-3.60797 1.23862,-6.24914 2.8487,-7.92352 1.6185,-1.68634 4.36905,-2.86528 8.25168,-3.53685 4.15777,-0.71915 7.45266,-0.32872 9.8847,1.17129 1.79712,1.10605 2.98651,3.34053 3.56818,6.70343 0.0529,0.30571 0.16186,1.0268 0.32693,2.16324 -2.95852,1.64523 -7.70141,3.44167 -14.22857,5.38928 -3.20246,0.96325 -5.57682,1.799 -7.12311,2.50725 -2.0954,0.99217 -3.92148,2.23686 -5.47824,3.7341 -1.54657,1.49547 -2.69406,3.32599 -3.44251,5.49158 -0.74002,2.15361 -0.90381,4.42273 -0.49136,6.80733 0.70331,4.06605 2.71832,7.16003 6.04507,9.28195 3.32498,2.11174 7.66251,2.70491 13.01261,1.77954 3.2406,-0.56052 6.17978,-1.6199 8.8175,-3.17816 2.64792,-1.56003 5.27576,-3.90373 7.88349,-7.03113 0.64111,2.25058 1.53778,4.15785 2.68994,5.72182 l 8.62121,-1.49118 c -1.362,-1.68509 -2.39666,-3.51076 -3.10412,-5.47699 -0.69898,-1.9782 -1.71216,-6.80405 -3.03937,-14.47757 l -1.90369,-11.00585 c -0.63452,-3.66861 -1.211,-6.18228 -1.72937,-7.54098 -0.88043,-2.17771 -2.05993,-3.89963 -3.53839,-5.16574 -1.48022,-1.27632 -3.60422,-2.17888 -6.37204,-2.70772 -2.76782,-0.52883 -6.23062,-0.43366 -10.3884,0.28549 z" />
  <path
     style="fill:#606c71;fill-rule:evenodd"
     inkscape:connector-curvature="0"
     id="path119"
     d="m 536.0856,117.49947 -7.35187,6.37242 2.08606,12.06057 -6.05322,1.047 1.11041,6.42009 6.05322,-1.04701 4.84638,28.01905 c 0.85663,4.95263 1.75519,8.14525 2.69568,9.5779 0.93878,1.42244 2.31555,2.46475 4.13031,3.12694 1.81482,0.66218 4.22027,0.73416 7.21631,0.21596 1.83429,-0.31728 3.87091,-0.92144 6.10974,-1.81246 l -2.45349,-7.08514 c -1.461,0.47311 -2.65009,0.78898 -3.5672,0.94761 -1.2229,0.21152 -2.19989,0.17585 -2.93103,-0.10702 -0.72095,-0.28462 -1.28736,-0.73767 -1.69922,-1.35913 -0.40168,-0.62323 -0.80609,-2.11185 -1.21326,-4.46588 l -4.92566,-28.47762 8.30029,-1.43567 -1.11047,-6.42007 -8.30023,1.43567 z" />
  <path
     style="fill:#606c71;fill-rule:evenodd"
     inkscape:connector-curvature="0"
     id="path121"
     d="m 552.24097,113.14658 1.64185,9.49254 8.25439,-1.42773 -1.64185,-9.49254 z m 3.20441,18.5265 8.42358,48.70086 8.25446,-1.42773 -8.42365,-48.70085 z" />
  <path
     style="fill:#606c71;fill-rule:evenodd"
     inkscape:connector-curvature="0"
     id="path123"
     d="m 597.02106,130.38564 c 4.06604,-0.70328 7.7334,0.26294 11.00208,2.8987 3.27716,2.62379 5.43652,6.947 6.47827,12.96965 1.10516,6.38951 0.56695,11.37873 -1.61457,14.96768 -2.18152,3.58894 -5.32061,5.7377 -9.41723,6.44627 -4.1272,0.71387 -7.81916,-0.24287 -11.07593,-2.87019 -3.25848,-2.63751 -5.42712,-7.07459 -6.5058,-13.31123 -1.07873,-6.23664 -0.52472,-11.13416 1.66211,-14.69252 2.18683,-3.55837 5.34381,-5.69449 9.47107,-6.40836 z m -1.18188,-6.83279 c -6.02265,1.04171 -10.81617,3.72852 -14.38056,8.06044 -4.26288,5.2084 -5.61438,12.32194 -4.05444,21.34062 1.42242,8.22381 4.61102,14.15849 9.56567,17.80406 4.96491,3.6438 10.85614,4.8761 17.67365,3.69691 4.24951,-0.73501 7.99597,-2.40634 11.23932,-5.01394 3.2536,-2.60938 5.50769,-5.86977 6.76232,-9.78118 1.26307,-3.92337 1.3526,-9.01866 0.26856,-15.28587 -1.33783,-7.73466 -4.51044,-13.42547 -9.51788,-17.07241 -5.00916,-3.65713 -10.86139,-4.90668 -17.55664,-3.74863 z" />
  <path
     style="fill:#606c71;fill-rule:evenodd"
     inkscape:connector-curvature="0"
     id="path125"
     d="m 651.2354,113.97121 c -6.75635,1.16862 -11.46033,4.7373 -14.11188,10.70605 l -1.19769,-6.92451 -7.42895,1.28495 8.42358,48.70087 8.25439,-1.42773 -4.60046,-26.59746 c -1.07867,-6.23665 -0.53723,-10.69116 1.62439,-13.36357 2.17187,-2.67415 5.01562,-4.31529 8.53143,-4.92339 2.20117,-0.38073 4.20337,-0.21277 6.00659,0.50389 1.81165,0.70471 3.18305,1.83717 4.11414,3.39738 0.92932,1.55003 1.68481,4.00648 2.26648,7.36938 l 5.1239,29.62407 8.25446,-1.42774 -5.17951,-29.94507 c -0.66095,-3.82146 -1.27655,-6.47006 -1.84662,-7.94577 -0.89636,-2.26942 -2.104,-4.15438 -3.62298,-5.65489 -1.51898,-1.5005 -3.60236,-2.56229 -6.25,-3.18537 -2.63928,-0.63503 -5.42633,-0.69872 -8.36127,-0.19109 z" />
  <path
     style="fill-rule:evenodd;stroke:#ffffff;stroke-width:1;stroke-linecap:butt;stroke-linejoin:round"
     inkscape:connector-curvature="0"
     id="path127"
     d="m 257.7191,189.07314 c 4.06604,-0.70328 7.73343,0.26295 11.00211,2.8987 3.27713,2.62379 5.43652,6.947 6.47824,12.96965 1.10516,6.38951 0.56698,11.37873 -1.61454,14.96768 -2.18154,3.58894 -5.32061,5.7377 -9.41726,6.44627 -4.1272,0.71387 -7.81916,-0.24287 -11.0759,-2.87019 -3.2585,-2.63751 -5.42711,-7.07459 -6.50584,-13.31123 -1.07872,-6.23664 -0.52468,-11.13414 1.66214,-14.69252 2.18683,-3.55837 5.34384,-5.69449 9.47105,-6.40836 z m -1.18185,-6.83279 c -6.02266,1.04171 -10.81618,3.72853 -14.38056,8.06044 -4.26291,5.2084 -5.61439,12.32194 -4.05447,21.34062 1.42244,8.22381 4.61101,14.15849 9.5657,17.80406 4.96491,3.6438 10.85611,4.8761 17.67365,3.69691 4.24948,-0.73501 7.99591,-2.40632 11.23932,-5.01394 3.25357,-2.60938 5.50769,-5.86977 6.76229,-9.78118 1.26307,-3.92337 1.3526,-9.01866 0.26859,-15.28587 -1.33783,-7.73466 -4.51047,-13.42546 -9.51788,-17.07242 -5.00919,-3.65712 -10.86139,-4.90666 -17.55664,-3.74862 z" />
  <path
     style="fill-rule:evenodd;stroke:#ffffff;stroke-width:1;stroke-linecap:butt;stroke-linejoin:round"
     inkscape:connector-curvature="0"
     id="path129"
     d="m 308.67758,173.22186 c -4.18835,0.72444 -7.89493,2.38362 -11.11969,4.97751 -3.21634,2.58194 -5.35474,5.9955 -6.41519,10.24066 -1.06049,4.24518 -1.13596,8.99693 -0.22644,14.25528 1.40658,8.1321 4.50992,14.02905 9.31,17.69087 4.8085,3.64986 10.5451,4.89841 17.20977,3.74565 5.31949,-0.92009 9.53015,-3.27519 12.63199,-7.06529 3.11026,-3.80206 4.62485,-8.57709 4.54373,-14.32507 l -8.29925,0.34921 c 0.133,4.22766 -0.71396,7.5228 -2.54083,9.88539 -1.82691,2.36261 -4.36066,3.82417 -7.60126,4.38469 -4.03549,0.698 -7.56314,-0.21893 -10.58298,-2.75079 -3.0198,-2.53186 -5.09552,-7.06897 -6.22711,-13.61133 -1.11575,-6.45065 -0.63165,-11.38854 1.45227,-14.81366 2.08215,-3.43532 5.20212,-5.51254 9.3599,-6.2317 2.75146,-0.47591 5.23809,-0.0559 7.45983,1.26011 2.23197,1.31421 4.013,3.5408 5.34308,6.6798 l 7.81098,-2.62622 c -1.79908,-4.75814 -4.611,-8.18134 -8.4357,-10.26961 -3.82648,-2.09847 -8.38419,-2.6903 -13.6731,-1.7755 z" />
  <path
     style="fill-rule:evenodd;stroke:#ffffff;stroke-width:1;stroke-linecap:butt;stroke-linejoin:round"
     inkscape:connector-curvature="0"
     id="path131"
     d="m 371.44086,188.48396 0.5235,3.02661 c 0.62927,3.63805 0.66186,6.46619 0.0978,8.48441 -0.74399,2.61612 -2.2334,4.83638 -4.46823,6.66081 -2.23661,1.81424 -4.94464,2.99632 -8.12412,3.54626 -3.21005,0.55524 -5.77762,0.24366 -7.7027,-0.93472 -1.91488,-1.18013 -3.06271,-2.87079 -3.44342,-5.07196 -0.24853,-1.43687 -0.092,-2.80737 0.46961,-4.11148 0.55981,-1.3143 1.49002,-2.3988 2.79056,-3.25348 1.30053,-0.85467 3.60525,-1.82007 6.91412,-2.89616 5.84402,-1.89244 10.15832,-3.7092 12.94284,-5.45029 z m -14.88773,-23.54291 c -4.18835,0.72444 -7.77267,1.9374 -10.75296,3.63887 -2.98208,1.69129 -5.12963,3.74727 -6.44268,6.16794 -1.31485,2.41048 -2.04035,5.40648 -2.17655,8.98799 l 8.26132,-0.29541 c 0.28907,-3.60795 1.23865,-6.24913 2.8487,-7.92352 1.61853,-1.68634 4.36908,-2.86528 8.25171,-3.53685 4.15777,-0.71915 7.45266,-0.32872 9.8847,1.17129 1.79712,1.10605 2.98651,3.34053 3.56818,6.70343 0.0529,0.30571 0.16183,1.0268 0.32693,2.16324 -2.95855,1.64523 -7.70141,3.44167 -14.2286,5.38928 -3.20243,0.96325 -5.57682,1.799 -7.12308,2.50725 -2.09543,0.99217 -3.92151,2.23686 -5.47824,3.7341 -1.54657,1.49547 -2.69406,3.32599 -3.44254,5.49158 -0.73999,2.15361 -0.90378,4.42273 -0.49133,6.80733 0.70328,4.06605 2.71829,7.16003 6.04504,9.28196 3.32502,2.11173 7.66254,2.7049 13.01261,1.77953 3.24063,-0.56052 6.17981,-1.6199 8.81753,-3.17816 2.64792,-1.56003 5.27573,-3.90373 7.88346,-7.03113 0.64114,2.25059 1.53781,4.15785 2.68994,5.72182 l 8.62127,-1.49118 c -1.362,-1.68509 -2.39672,-3.51076 -3.10415,-5.47699 -0.69904,-1.9782 -1.71216,-6.80405 -3.0394,-14.47757 L 378.58133,180.07 c -0.63452,-3.66861 -1.211,-6.18228 -1.7294,-7.54098 -0.88043,-2.17771 -2.0599,-3.89961 -3.53836,-5.16574 -1.48019,-1.27631 -3.60422,-2.17888 -6.37204,-2.70772 -2.76782,-0.52883 -6.23062,-0.43366 -10.3884,0.28549 z" />
  <path
     style="fill-rule:evenodd;stroke:#ffffff;stroke-width:1;stroke-linecap:butt;stroke-linejoin:round"
     inkscape:connector-curvature="0"
     id="path133"
     d="m 384.9975,142.07391 11.62805,67.22736 8.2544,-1.42772 -11.62806,-67.22737 z" />
  <path
     style="fill-rule:evenodd;stroke:#ffffff;stroke-width:1;stroke-linecap:butt;stroke-linejoin:round"
     inkscape:connector-curvature="0"
     id="path135"
     d="m 406.0921,138.42528 1.64188,9.49254 8.25439,-1.42774 -1.64188,-9.49253 z m 3.20444,18.5265 8.42358,48.70085 8.25443,-1.42771 -8.42362,-48.70087 z" />
  <path
     style="fill-rule:evenodd;stroke:#ffffff;stroke-width:1;stroke-linecap:butt;stroke-linejoin:round"
     inkscape:connector-curvature="0"
     id="path137"
     d="m 427.5938,153.78699 1.15805,6.69522 19.85642,-3.43448 c 2.69033,-0.46533 5.77752,-1.09376 9.26156,-1.8853 v 0 l -24.84482,40.94747 1.15805,6.69522 43.10636,-7.4559 -1.22943,-7.10795 -22.51618,3.89452 c -3.24063,0.56052 -6.68673,1.29826 -10.33835,2.21324 l 4.1146,-6.52092 21.02222,-35.46887 -0.94391,-5.45706 z" />
  <path
     style="fill-rule:evenodd;stroke:#ffffff;stroke-width:1;stroke-linecap:butt;stroke-linejoin:round"
     inkscape:connector-curvature="0"
     id="path139"
     d="m 512.36194,164.1095 0.5235,3.02661 c 0.62921,3.63805 0.66186,6.46617 0.0978,8.48441 -0.74402,2.6161 -2.23343,4.83638 -4.46826,6.66081 -2.23661,1.81424 -4.94464,2.99632 -8.12412,3.54626 -3.21005,0.55523 -5.77759,0.24366 -7.7027,-0.93472 -1.91488,-1.18013 -3.06268,-2.87079 -3.44342,-5.07196 -0.24853,-1.43687 -0.092,-2.80737 0.46961,-4.11148 0.55981,-1.31432 1.49002,-2.3988 2.79056,-3.25348 1.30056,-0.85467 3.60525,-1.82007 6.91412,-2.89616 5.84405,-1.89244 10.15832,-3.7092 12.94287,-5.45029 z m -14.88776,-23.54291 c -4.18835,0.72444 -7.77267,1.9374 -10.75296,3.63887 -2.98205,1.69129 -5.12963,3.74727 -6.44268,6.16794 -1.31482,2.41048 -2.04035,5.40646 -2.17655,8.98799 l 8.26135,-0.29541 c 0.28904,-3.60797 1.23862,-6.24914 2.8487,-7.92352 1.6185,-1.68634 4.36905,-2.86528 8.25168,-3.53685 4.15777,-0.71915 7.45266,-0.32872 9.8847,1.17129 1.79712,1.10605 2.98651,3.34053 3.56818,6.70343 0.0529,0.30571 0.16186,1.0268 0.32693,2.16324 -2.95852,1.64523 -7.70141,3.44167 -14.22857,5.38928 -3.20246,0.96325 -5.57682,1.799 -7.12311,2.50725 -2.0954,0.99217 -3.92148,2.23686 -5.47824,3.7341 -1.54657,1.49547 -2.69406,3.32599 -3.44251,5.49158 -0.74002,2.15361 -0.90381,4.42273 -0.49136,6.80733 0.70331,4.06605 2.71832,7.16003 6.04507,9.28195 3.32498,2.11174 7.66251,2.70491 13.01261,1.77954 3.2406,-0.56052 6.17978,-1.6199 8.8175,-3.17816 2.64792,-1.56003 5.27576,-3.90373 7.88349,-7.03113 0.64111,2.25058 1.53778,4.15785 2.68994,5.72182 l 8.62121,-1.49118 c -1.362,-1.68509 -2.39666,-3.51076 -3.10412,-5.47699 -0.69898,-1.9782 -1.71216,-6.80405 -3.03937,-14.47757 l -1.90369,-11.00585 c -0.63452,-3.66861 -1.211,-6.18228 -1.72937,-7.54098 -0.88043,-2.17771 -2.05993,-3.89963 -3.53839,-5.16574 -1.48022,-1.27632 -3.60422,-2.17888 -6.37204,-2.70772 -2.76782,-0.52883 -6.23062,-0.43366 -10.3884,0.28549 z" />
  <path
     style="fill-rule:evenodd;stroke:#ffffff;stroke-width:1;stroke-linecap:butt;stroke-linejoin:round"
     inkscape:connector-curvature="0"
     id="path141"
     d="m 536.0856,117.49947 -7.35187,6.37242 2.08606,12.06057 -6.05322,1.047 1.11041,6.42009 6.05322,-1.04701 4.84638,28.01905 c 0.85663,4.95263 1.75519,8.14525 2.69568,9.5779 0.93878,1.42244 2.31555,2.46475 4.13031,3.12694 1.81482,0.66218 4.22027,0.73416 7.21631,0.21596 1.83429,-0.31728 3.87091,-0.92144 6.10974,-1.81246 l -2.45349,-7.08514 c -1.461,0.47311 -2.65009,0.78898 -3.5672,0.94761 -1.2229,0.21152 -2.19989,0.17585 -2.93103,-0.10702 -0.72095,-0.28462 -1.28736,-0.73767 -1.69922,-1.35913 -0.40168,-0.62323 -0.80609,-2.11185 -1.21326,-4.46588 l -4.92566,-28.47762 8.30029,-1.43567 -1.11047,-6.42007 -8.30023,1.43567 z" />
  <path
     style="fill-rule:evenodd;stroke:#ffffff;stroke-width:1;stroke-linecap:butt;stroke-linejoin:round"
     inkscape:connector-curvature="0"
     id="path143"
     d="m 552.24097,113.14658 1.64185,9.49254 8.25439,-1.42773 -1.64185,-9.49254 z m 3.20441,18.5265 8.42358,48.70086 8.25446,-1.42773 -8.42365,-48.70085 z" />
  <path
     style="fill-rule:evenodd;stroke:#ffffff;stroke-width:1;stroke-linecap:butt;stroke-linejoin:round"
     inkscape:connector-curvature="0"
     id="path145"
     d="m 597.02106,130.38564 c 4.06604,-0.70328 7.7334,0.26294 11.00208,2.8987 3.27716,2.62379 5.43652,6.947 6.47827,12.96965 1.10516,6.38951 0.56695,11.37873 -1.61457,14.96768 -2.18152,3.58894 -5.32061,5.7377 -9.41723,6.44627 -4.1272,0.71387 -7.81916,-0.24287 -11.07593,-2.87019 -3.25848,-2.63751 -5.42712,-7.07459 -6.5058,-13.31123 -1.07873,-6.23664 -0.52472,-11.13416 1.66211,-14.69252 2.18683,-3.55837 5.34381,-5.69449 9.47107,-6.40836 z m -1.18188,-6.83279 c -6.02265,1.04171 -10.81617,3.72852 -14.38056,8.06044 -4.26288,5.2084 -5.61438,12.32194 -4.05444,21.34062 1.42242,8.22381 4.61102,14.15849 9.56567,17.80406 4.96491,3.6438 10.85614,4.8761 17.67365,3.69691 4.24951,-0.73501 7.99597,-2.40634 11.23932,-5.01394 3.2536,-2.60938 5.50769,-5.86977 6.76232,-9.78118 1.26307,-3.92337 1.3526,-9.01866 0.26856,-15.28587 -1.33783,-7.73466 -4.51044,-13.42547 -9.51788,-17.07241 -5.00916,-3.65713 -10.86139,-4.90668 -17.55664,-3.74863 z" />
  <path
     style="fill-rule:evenodd;stroke:#ffffff;stroke-width:1;stroke-linecap:butt;stroke-linejoin:round"
     inkscape:connector-curvature="0"
     id="path147"
     d="m 651.2354,113.97121 c -6.75635,1.16862 -11.46033,4.7373 -14.11188,10.70605 l -1.19769,-6.92451 -7.42895,1.28495 8.42358,48.70087 8.25439,-1.42773 -4.60046,-26.59746 c -1.07867,-6.23665 -0.53723,-10.69116 1.62439,-13.36357 2.17187,-2.67415 5.01562,-4.31529 8.53143,-4.92339 2.20117,-0.38073 4.20337,-0.21277 6.00659,0.50389 1.81165,0.70471 3.18305,1.83717 4.11414,3.39738 0.92932,1.55003 1.68481,4.00648 2.26648,7.36938 l 5.1239,29.62407 8.25446,-1.42774 -5.17951,-29.94507 c -0.66095,-3.82146 -1.27655,-6.47006 -1.84662,-7.94577 -0.89636,-2.26942 -2.104,-4.15438 -3.62298,-5.65489 -1.51898,-1.5005 -3.60236,-2.56229 -6.25,-3.18537 -2.63928,-0.63503 -5.42633,-0.69872 -8.36127,-0.19109 z" />
  <path
     style="fill:#606c71;fill-rule:evenodd"
     inkscape:connector-curvature="0"
     id="path149"
     d="m 358.71573,240.45242 c -7.10333,1.22861 -12.04883,4.98051 -14.83652,11.25575 l -1.25918,-7.28009 -7.81046,1.35092 8.85599,51.20162 8.67828,-1.50101 -4.83661,-27.96322 c -1.13409,-6.55689 -0.56481,-11.24015 1.70783,-14.04976 2.28336,-2.81148 5.27316,-4.53687 8.96948,-5.1762 2.31421,-0.40027 4.41922,-0.22366 6.31503,0.5298 1.9047,0.74089 3.3465,1.93151 4.32538,3.57184 0.97702,1.62961 1.7713,4.21221 2.38285,7.74779 l 5.38696,31.14526 8.67825,-1.50103 -5.44534,-31.48273 c -0.69492,-4.0177 -1.34204,-6.80231 -1.94144,-8.35379 -0.94232,-2.38596 -2.212,-4.36771 -3.80899,-5.94527 -1.59698,-1.57756 -3.78729,-2.69388 -6.57092,-3.34897 -2.77478,-0.66763 -5.70499,-0.73462 -8.79059,-0.20091 z" />
  <path
     style="fill:#606c71;fill-rule:evenodd"
     inkscape:connector-curvature="0"
     id="path151"
     d="m 410.09933,238.96355 c 3.95343,-0.68381 7.56363,0.38004 10.83057,3.1915 3.26696,2.81146 5.5064,7.72064 6.71832,14.72752 1.10077,6.36405 0.59131,11.32935 -1.52835,14.89594 -2.11078,3.55404 -5.06253,5.65905 -8.85526,6.31506 -3.76059,0.65042 -7.30371,-0.40845 -10.62939,-3.17667 -3.32569,-2.76818 -5.55557,-7.43075 -6.68967,-13.98764 -1.17303,-6.78189 -0.7409,-11.97107 1.29633,-15.56755 2.04797,-3.59832 5.00042,-5.73105 8.85745,-6.39816 z m 8.89535,-27.80595 4.3863,25.35975 c -1.87201,-1.82792 -4.12546,-3.18159 -6.76032,-4.06102 -2.63669,-0.89015 -5.49786,-1.06837 -8.58346,-0.53468 -4.21058,0.72827 -7.82755,2.49594 -10.85099,5.30299 -3.02343,2.80707 -5.02649,6.44178 -6.00912,10.90412 -0.98453,4.45163 -1.03479,9.23269 -0.15088,14.34323 0.90619,5.23907 2.64603,9.71603 5.2196,13.43088 2.5824,3.70227 5.77707,6.38278 9.58396,8.04156 3.81759,1.65692 7.76739,2.13236 11.84939,1.42633 6.29978,-1.08963 10.63364,-4.45437 13.00159,-10.09424 l 1.1174,6.46048 8.05152,-1.39261 -12.22495,-70.67947 z" />
  <path
     style="fill-rule:evenodd;stroke:#ffffff;stroke-width:1;stroke-linecap:butt;stroke-linejoin:round"
     inkscape:connector-curvature="0"
     id="path153"
     d="m 358.71573,240.45242 c -7.10333,1.22861 -12.04883,4.98051 -14.83652,11.25575 l -1.25918,-7.28009 -7.81046,1.35092 8.85599,51.20162 8.67828,-1.50101 -4.83661,-27.96322 c -1.13409,-6.55689 -0.56481,-11.24015 1.70783,-14.04976 2.28336,-2.81148 5.27316,-4.53687 8.96948,-5.1762 2.31421,-0.40027 4.41922,-0.22366 6.31503,0.5298 1.9047,0.74089 3.3465,1.93151 4.32538,3.57184 0.97702,1.62961 1.7713,4.21221 2.38285,7.74779 l 5.38696,31.14526 8.67825,-1.50103 -5.44534,-31.48273 c -0.69492,-4.0177 -1.34204,-6.80231 -1.94144,-8.35379 -0.94232,-2.38596 -2.212,-4.36771 -3.80899,-5.94527 -1.59698,-1.57756 -3.78729,-2.69388 -6.57092,-3.34897 -2.77478,-0.66763 -5.70499,-0.73462 -8.79059,-0.20091 z" />
  <path
     style="fill-rule:evenodd;stroke:#ffffff;stroke-width:1;stroke-linecap:butt;stroke-linejoin:round"
     inkscape:connector-curvature="0"
     id="path155"
     d="m 410.09933,238.96355 c 3.95343,-0.68381 7.56363,0.38004 10.83057,3.1915 3.26696,2.81146 5.5064,7.72064 6.71832,14.72752 1.10077,6.36405 0.59131,11.32935 -1.52835,14.89594 -2.11078,3.55404 -5.06253,5.65905 -8.85526,6.31506 -3.76059,0.65042 -7.30371,-0.40845 -10.62939,-3.17667 -3.32569,-2.76818 -5.55557,-7.43075 -6.68967,-13.98764 -1.17303,-6.78189 -0.7409,-11.97107 1.29633,-15.56755 2.04797,-3.59832 5.00042,-5.73105 8.85745,-6.39816 z m 8.89535,-27.80595 4.3863,25.35975 c -1.87201,-1.82792 -4.12546,-3.18159 -6.76032,-4.06102 -2.63669,-0.89015 -5.49786,-1.06837 -8.58346,-0.53468 -4.21058,0.72827 -7.82755,2.49594 -10.85099,5.30299 -3.02343,2.80707 -5.02649,6.44178 -6.00912,10.90412 -0.98453,4.45163 -1.03479,9.23269 -0.15088,14.34323 0.90619,5.23907 2.64603,9.71603 5.2196,13.43088 2.5824,3.70227 5.77707,6.38278 9.58396,8.04156 3.81759,1.65692 7.76739,2.13236 11.84939,1.42633 6.29978,-1.08963 10.63364,-4.45437 13.00159,-10.09424 l 1.1174,6.46048 8.05152,-1.39261 -12.22495,-70.67947 z" />
  <path
     style="fill:#f3f6fa;fill-rule:evenodd"
     inkscape:connector-curvature="0"
     id="path157"
     d="M 0.5407948,22.511368 33.411855,107.35092 H 44.9283 L 78.146585,22.511368 H 66.688013 L 43.770868,84.14447 C 42.034719,88.774185 40.51077,93.4039 39.199014,98.033615 38.003,93.712547 36.517629,89.082832 34.742902,84.14447 L 12.693828,22.511368 Z" />
  <path
     style="fill:#ffffff;fill-rule:evenodd"
     inkscape:connector-curvature="0"
     id="path159"
     d="m 310.34808,255.61098 v 5.04454 c 0,6.0636 -0.73886,10.64954 -2.21655,13.75778 -1.93628,4.02542 -4.96811,7.2016 -9.09543,9.52854 -4.12735,2.30993 -8.84067,3.46493 -14.13998,3.46493 -5.35025,0 -9.41816,-1.22293 -12.20368,-3.66876 -2.76855,-2.44583 -4.15283,-5.50311 -4.15283,-9.17185 0,-2.39486 0.63693,-4.56893 1.9108,-6.52221 1.27386,-1.97025 3.08276,-3.46494 5.42669,-4.48401 2.34394,-1.01911 6.34388,-1.93628 11.99988,-2.75156 9.98715,-1.42676 17.47751,-3.15921 22.4711,-5.1974 z M 292.84506,213.344 c -6.98081,0 -13.12085,0.95965 -18.42017,2.87893 -5.29931,1.90232 -9.35022,4.62841 -12.15274,8.17826 -2.80252,3.53286 -4.81521,8.17823 -6.03814,13.93612 l 13.45208,1.83437 c 1.47769,-5.75789 3.75366,-9.76633 6.82794,-12.02531 3.09128,-2.27599 7.87253,-3.41398 14.34382,-3.41398 6.92984,0 12.15271,1.55411 15.66861,4.66236 2.59869,2.29297 3.89804,6.24196 3.89804,11.84698 0,0.50956 -0.0255,1.70699 -0.0764,3.59232 -5.24835,1.83436 -13.4266,3.41397 -24.53479,4.7388 -5.45215,0.6624 -9.52853,1.35029 -12.22916,2.06366 -3.66876,1.0191 -6.97232,2.52226 -9.9107,4.50949 -2.92142,1.98724 -5.29083,4.62839 -7.10822,7.92346 -1.8004,3.27811 -2.7006,6.90439 -2.7006,10.87885 0,6.777 2.39488,12.34805 7.18464,16.71319 4.78974,4.34812 11.64319,6.52219 20.56027,6.52219 5.40122,0 10.45426,-0.89169 15.15909,-2.67511 4.7218,-1.78342 9.63046,-4.8407 14.72595,-9.17188 0.40763,3.82163 1.32483,7.15915 2.75156,10.01264 h 14.36926 c -1.73245,-3.10825 -2.89593,-6.35239 -3.49041,-9.73236 -0.57749,-3.39701 -0.86622,-11.49033 -0.86622,-24.27997 v -18.34372 c 0,-6.11456 -0.2293,-10.34381 -0.68789,-12.68773 -0.81528,-3.77066 -2.24201,-6.88739 -4.28021,-9.3502 -2.03821,-2.4798 -5.22287,-4.53498 -9.55405,-6.16553 -4.33115,-1.63056 -9.96167,-2.44583 -16.89154,-2.44583 z" />
  <path
     style="fill:#ffffff;fill-rule:evenodd"
     inkscape:connector-curvature="0"
     id="path161"
     d="m 356.0248,274.52448 v 84.83954 h 10.82199 v -72.22357 l 24.53754,72.22357 h 10.12753 l 24.65329,-71.00827 v 71.00827 h 10.82199 v -84.83954 h -15.10449 l -20.3129,59.02887 c -2.0448,5.98007 -3.54947,10.51334 -4.514,13.59979 -0.84879,-2.77783 -2.1991,-6.96386 -4.051,-12.5581 L 372.9233,274.52448 Z" />
  <path
     style="fill:#606c71;fill-rule:evenodd"
     inkscape:connector-curvature="0"
     id="path163"
     d="m 476.65106,311.2955 0.50308,2.90854 c 0.60471,3.49612 0.63605,6.21393 0.094,8.15341 -0.71497,2.51407 -2.14627,4.64771 -4.29392,6.40097 -2.14935,1.74344 -4.75174,2.87943 -7.80719,3.4079 -3.08481,0.53357 -5.55218,0.23413 -7.40216,-0.89826 -1.84018,-1.13412 -2.94321,-2.75881 -3.30908,-4.87411 -0.23883,-1.38083 -0.0884,-2.69785 0.45126,-3.95108 0.538,-1.26303 1.43192,-2.30524 2.6817,-3.12656 1.24982,-0.82135 3.46463,-1.74905 6.64441,-2.78317 5.61603,-1.8186 9.762,-3.56448 12.43787,-5.23764 z m -14.30685,-22.62451 c -4.02497,0.6962 -7.46946,1.86181 -10.33347,3.49692 -2.86572,1.6253 -4.9295,3.60107 -6.19135,5.9273 -1.26351,2.31644 -1.96075,5.19556 -2.09161,8.63736 l 7.93903,-0.28387 c 0.27777,-3.46723 1.1903,-6.00534 2.73755,-7.61441 1.55535,-1.62055 4.19864,-2.75351 7.92977,-3.39887 3.99558,-0.6911 7.16193,-0.31588 9.49906,1.12561 1.72699,1.0629 2.86999,3.21021 3.42895,6.44193 0.0508,0.29379 0.15555,0.98672 0.31418,2.07886 -2.84311,1.58105 -7.40094,3.30737 -13.67346,5.17901 -3.07751,0.92566 -5.35925,1.72879 -6.84521,2.40943 -2.01368,0.95346 -3.7685,2.14959 -5.26453,3.58841 -1.48621,1.43713 -2.58896,3.19625 -3.3082,5.27734 -0.71115,2.06961 -0.86856,4.25018 -0.4722,6.54178 0.67585,3.90741 2.61225,6.8807 5.80921,8.91986 3.19528,2.02936 7.36358,2.59939 12.50494,1.71011 3.11417,-0.53863 5.93869,-1.5567 8.47351,-3.05417 2.54462,-1.49914 5.06992,-3.7514 7.5759,-6.7568 0.61615,2.16278 1.47781,3.99566 2.58499,5.49859 l 8.28491,-1.43298 c -1.30887,-1.61935 -2.30319,-3.37381 -2.98303,-5.26334 -0.67175,-1.90103 -1.64532,-6.5386 -2.92081,-13.91278 l -1.82934,-10.5765 c -0.6098,-3.52549 -1.16376,-5.94111 -1.66193,-7.2468 -0.8461,-2.09274 -1.97955,-3.7475 -3.40033,-4.96423 -1.42245,-1.22651 -3.46359,-2.09388 -6.12344,-2.60208 -2.65985,-0.50821 -5.98755,-0.41675 -9.98309,0.27432 z" />
  <path
     style="fill:#606c71;fill-rule:evenodd"
     inkscape:connector-curvature="0"
     id="path165"
     d="m 513.8776,286.15714 c 3.40802,-0.58945 6.59271,0.38773 9.55426,2.93158 2.97125,2.54211 4.97272,6.7952 6.00421,12.75915 1.0824,6.25776 0.62348,11.09772 -1.37671,14.51993 -1.99206,3.41071 -4.75085,5.42096 -8.27636,6.03076 -3.46674,0.59961 -6.66834,-0.32928 -9.60483,-2.78665 -2.93643,-2.45739 -4.92554,-6.69745 -5.96726,-12.72018 -1.04171,-6.02274 -0.53769,-10.83521 1.51203,-14.43744 2.05786,-3.61371 4.77606,-5.71277 8.15466,-6.29715 z m -0.32556,-6.34326 c -3.05542,0.52847 -5.55216,1.57556 -7.49021,3.14126 -1.93969,1.55594 -3.55575,3.67112 -4.84814,6.34555 l -1.05188,-6.08148 -7.22726,1.25006 11.19717,64.73694 7.93234,-1.37201 -3.9407,-22.78353 c 1.64615,1.47024 3.61365,2.58233 5.90243,3.33624 2.29865,0.75226 4.77002,0.89969 7.41413,0.44235 3.61364,-0.62503 6.8797,-2.23889 9.79828,-4.84158 2.92669,-2.6142 4.91571,-5.98404 5.96722,-10.10956 1.05957,-4.13699 1.17523,-8.59988 0.34692,-13.38867 -0.77234,-4.46564 -2.26062,-8.43427 -4.46478,-11.90589 -2.20581,-3.48141 -5.01434,-5.98617 -8.42548,-7.51422 -3.41113,-1.52807 -7.1145,-1.94656 -11.11004,-1.25546 z" />
  <path
     style="fill:#606c71;fill-rule:evenodd"
     inkscape:connector-curvature="0"
     id="path167"
     d="m 564.0719,277.47534 c 3.40802,-0.58948 6.59271,0.38773 9.55426,2.93155 2.97125,2.54214 4.97272,6.7952 6.00427,12.75915 1.08234,6.25776 0.62342,11.09775 -1.37677,14.51993 -1.99206,3.41074 -4.75085,5.42096 -8.27636,6.03076 -3.46674,0.59961 -6.66834,-0.32925 -9.6048,-2.78665 -2.93646,-2.4574 -4.92554,-6.69745 -5.96729,-12.72018 -1.04168,-6.02271 -0.53772,-10.83521 1.51203,-14.43744 2.05786,-3.61371 4.77606,-5.71277 8.15466,-6.29712 z m -0.32556,-6.34329 c -3.05542,0.5285 -5.55219,1.57559 -7.49017,3.14129 -1.93976,1.55591 -3.55579,3.67109 -4.84815,6.34552 l -1.05188,-6.08148 -7.22729,1.25006 11.19714,64.73697 7.93237,-1.37204 -3.94073,-22.7835 c 1.64618,1.47021 3.61371,2.5823 5.90252,3.33624 2.29859,0.75223 4.76996,0.89966 7.41407,0.44232 3.61364,-0.62503 6.87976,-2.23889 9.79828,-4.84158 2.92669,-2.6142 4.91577,-5.98404 5.96722,-10.10953 1.05957,-4.13703 1.17523,-8.59992 0.34699,-13.3887 -0.7724,-4.46564 -2.26069,-8.43427 -4.46485,-11.90589 -2.20581,-3.48141 -5.01434,-5.98614 -8.42547,-7.51422 -3.41114,-1.52804 -7.11451,-1.94653 -11.11005,-1.25546 z" />
  <path
     style="fill:#606c71;fill-rule:evenodd"
     inkscape:connector-curvature="0"
     id="path169"
     d="m 590.2878,249.29424 1.57782,9.12224 7.93237,-1.37204 -1.57782,-9.12222 z m 3.07941,17.80376 8.09491,46.80099 7.93237,-1.37201 -8.09491,-46.80099 z" />
  <path
     style="fill:#606c71;fill-rule:evenodd"
     inkscape:connector-curvature="0"
     id="path171"
     d="m 635.2258,258.76868 c -6.4928,1.12302 -11.01324,4.55246 -13.56134,10.28836 l -1.15094,-6.65439 -7.13916,1.23484 8.09491,46.80099 7.93237,-1.37204 -4.42096,-25.55984 c -1.03662,-5.99335 -0.51629,-10.27411 1.56104,-12.84226 2.0871,-2.56982 4.81995,-4.14691 8.19855,-4.73129 2.11529,-0.36588 4.03936,-0.20447 5.77227,0.48425 1.74097,0.67722 3.05884,1.76547 3.95362,3.26483 0.89306,1.48957 1.61908,3.85019 2.17804,7.08188 l 4.92401,28.46842 7.93237,-1.37201 -4.97736,-28.77689 c -0.63519,-3.67239 -1.22674,-6.21765 -1.77459,-7.6358 -0.86139,-2.18091 -2.02191,-3.99231 -3.48163,-5.4343 -1.45972,-1.44195 -3.46179,-2.46234 -6.00617,-3.06113 -2.53631,-0.61026 -5.21466,-0.67147 -8.03503,-0.18362 z" />
  <path
     style="fill:#606c71;fill-rule:evenodd"
     inkscape:connector-curvature="0"
     id="path173"
     d="m 682.32526,257.38483 c 3.58423,-0.61993 6.89612,0.30499 9.93555,2.77484 3.04931,2.46811 5.06939,6.56665 6.0603,12.29559 1.03662,5.99335 0.56409,10.60874 -1.41766,13.8462 -1.9834,3.22766 -4.79663,5.15655 -8.43964,5.78668 -3.67236,0.63519 -6.97174,-0.24655 -9.89801,-2.64517 -2.92633,-2.39863 -4.92047,-6.66807 -5.98254,-12.80832 -0.97565,-5.64078 -0.47687,-10.1044 1.4964,-13.39081 1.97155,-3.29621 4.72009,-5.24921 8.2456,-5.85901 z m -1.70862,-6.46715 c -4.14245,0.71651 -7.57336,2.36896 -10.29266,4.95737 -2.70954,2.58671 -4.54529,5.90987 -5.50733,9.96947 -0.96374,4.0498 -1.05938,8.30752 -0.28698,12.77316 1.12298,6.4928 3.84869,11.75525 8.17706,15.78738 4.32843,4.03211 9.70959,5.49173 16.14368,4.37888 5.17071,-0.89435 9.13629,-3.68317 11.89666,-8.36652 v 0 c 0.92377,5.16565 1.31971,8.59198 1.18787,10.27899 -0.24774,2.76606 -1.24347,5.05637 -2.98718,6.87085 -1.74372,1.81452 -4.45178,3.03937 -8.12415,3.67456 -3.40802,0.58945 -6.2232,0.31995 -8.44568,-0.80856 -1.65698,-0.83295 -2.8529,-2.41131 -3.58764,-4.73514 l -7.91022,0.18811 v 0 c 0.75653,5.07355 3.07025,8.56656 6.94122,10.47904 3.87268,1.92227 8.60004,2.40066 14.18213,1.43518 4.70062,-0.81305 8.50458,-2.37876 11.41181,-4.69708 2.91705,-2.32004 4.8515,-5.13074 5.80346,-8.43216 0.9635,-3.29331 0.81507,-8.58298 -0.44513,-15.86899 l -6.99731,-40.45511 -7.31537,1.2653 0.97565,5.6408 c -4.35669,-3.84568 -9.29663,-5.29085 -14.81989,-4.33553 z" />
  <path
     style="fill-rule:evenodd;stroke:#ffffff;stroke-width:1;stroke-linecap:butt;stroke-linejoin:round"
     inkscape:connector-curvature="0"
     id="path175"
     d="m 476.65106,311.2955 0.50308,2.90854 c 0.60471,3.49612 0.63605,6.21393 0.094,8.15341 -0.71497,2.51407 -2.14627,4.64771 -4.29392,6.40097 -2.14935,1.74344 -4.75174,2.87943 -7.80719,3.4079 -3.08481,0.53357 -5.55218,0.23413 -7.40216,-0.89826 -1.84018,-1.13412 -2.94321,-2.75881 -3.30908,-4.87411 -0.23883,-1.38083 -0.0884,-2.69785 0.45126,-3.95108 0.538,-1.26303 1.43192,-2.30524 2.6817,-3.12656 1.24982,-0.82135 3.46463,-1.74905 6.64441,-2.78317 5.61603,-1.8186 9.762,-3.56448 12.43787,-5.23764 z m -14.30685,-22.62451 c -4.02497,0.6962 -7.46946,1.86181 -10.33347,3.49692 -2.86572,1.6253 -4.9295,3.60107 -6.19135,5.9273 -1.26351,2.31644 -1.96075,5.19556 -2.09161,8.63736 l 7.93903,-0.28387 c 0.27777,-3.46723 1.1903,-6.00534 2.73755,-7.61441 1.55535,-1.62055 4.19864,-2.75351 7.92977,-3.39887 3.99558,-0.6911 7.16193,-0.31588 9.49906,1.12561 1.72699,1.0629 2.86999,3.21021 3.42895,6.44193 0.0508,0.29379 0.15555,0.98672 0.31418,2.07886 -2.84311,1.58105 -7.40094,3.30737 -13.67346,5.17901 -3.07751,0.92566 -5.35925,1.72879 -6.84521,2.40943 -2.01368,0.95346 -3.7685,2.14959 -5.26453,3.58841 -1.48621,1.43713 -2.58896,3.19625 -3.3082,5.27734 -0.71115,2.06961 -0.86856,4.25018 -0.4722,6.54178 0.67585,3.90741 2.61225,6.8807 5.80921,8.91986 3.19528,2.02936 7.36358,2.59939 12.50494,1.71011 3.11417,-0.53863 5.93869,-1.5567 8.47351,-3.05417 2.54462,-1.49914 5.06992,-3.7514 7.5759,-6.7568 0.61615,2.16278 1.47781,3.99566 2.58499,5.49859 l 8.28491,-1.43298 c -1.30887,-1.61935 -2.30319,-3.37381 -2.98303,-5.26334 -0.67175,-1.90103 -1.64532,-6.5386 -2.92081,-13.91278 l -1.82934,-10.5765 c -0.6098,-3.52549 -1.16376,-5.94111 -1.66193,-7.2468 -0.8461,-2.09274 -1.97955,-3.7475 -3.40033,-4.96423 -1.42245,-1.22651 -3.46359,-2.09388 -6.12344,-2.60208 -2.65985,-0.50821 -5.98755,-0.41675 -9.98309,0.27432 z" />
  <path
     style="fill-rule:evenodd;stroke:#ffffff;stroke-width:1;stroke-linecap:butt;stroke-linejoin:round"
     inkscape:connector-curvature="0"
     id="path177"
     d="m 513.8776,286.15714 c 3.40802,-0.58945 6.59271,0.38773 9.55426,2.93158 2.97125,2.54211 4.97272,6.7952 6.00421,12.75915 1.0824,6.25776 0.62348,11.09772 -1.37671,14.51993 -1.99206,3.41071 -4.75085,5.42096 -8.27636,6.03076 -3.46674,0.59961 -6.66834,-0.32928 -9.60483,-2.78665 -2.93643,-2.45739 -4.92554,-6.69745 -5.96726,-12.72018 -1.04171,-6.02274 -0.53769,-10.83521 1.51203,-14.43744 2.05786,-3.61371 4.77606,-5.71277 8.15466,-6.29715 z m -0.32556,-6.34326 c -3.05542,0.52847 -5.55216,1.57556 -7.49021,3.14126 -1.93969,1.55594 -3.55575,3.67112 -4.84814,6.34555 l -1.05188,-6.08148 -7.22726,1.25006 11.19717,64.73694 7.93234,-1.37201 -3.9407,-22.78353 c 1.64615,1.47024 3.61365,2.58233 5.90243,3.33624 2.29865,0.75226 4.77002,0.89969 7.41413,0.44235 3.61364,-0.62503 6.8797,-2.23889 9.79828,-4.84158 2.92669,-2.6142 4.91571,-5.98404 5.96722,-10.10956 1.05957,-4.13699 1.17523,-8.59988 0.34692,-13.38867 -0.77234,-4.46564 -2.26062,-8.43427 -4.46478,-11.90589 -2.20581,-3.48141 -5.01434,-5.98617 -8.42548,-7.51422 -3.41113,-1.52807 -7.1145,-1.94656 -11.11004,-1.25546 z" />
  <path
     style="fill-rule:evenodd;stroke:#ffffff;stroke-width:1;stroke-linecap:butt;stroke-linejoin:round"
     inkscape:connector-curvature="0"
     id="path179"
     d="m 564.0719,277.47534 c 3.40802,-0.58948 6.59271,0.38773 9.55426,2.93155 2.97125,2.54214 4.97272,6.7952 6.00427,12.75915 1.08234,6.25776 0.62342,11.09775 -1.37677,14.51993 -1.99206,3.41074 -4.75085,5.42096 -8.27636,6.03076 -3.46674,0.59961 -6.66834,-0.32925 -9.6048,-2.78665 -2.93646,-2.4574 -4.92554,-6.69745 -5.96729,-12.72018 -1.04168,-6.02271 -0.53772,-10.83521 1.51203,-14.43744 2.05786,-3.61371 4.77606,-5.71277 8.15466,-6.29712 z m -0.32556,-6.34329 c -3.05542,0.5285 -5.55219,1.57559 -7.49017,3.14129 -1.93976,1.55591 -3.55579,3.67109 -4.84815,6.34552 l -1.05188,-6.08148 -7.22729,1.25006 11.19714,64.73697 7.93237,-1.37204 -3.94073,-22.7835 c 1.64618,1.47021 3.61371,2.5823 5.90252,3.33624 2.29859,0.75223 4.76996,0.89966 7.41407,0.44232 3.61364,-0.62503 6.87976,-2.23889 9.79828,-4.84158 2.92669,-2.6142 4.91577,-5.98404 5.96722,-10.10953 1.05957,-4.13703 1.17523,-8.59992 0.34699,-13.3887 -0.7724,-4.46564 -2.26069,-8.43427 -4.46485,-11.90589 -2.20581,-3.48141 -5.01434,-5.98614 -8.42547,-7.51422 -3.41114,-1.52804 -7.11451,-1.94653 -11.11005,-1.25546 z" />
  <path
     style="fill-rule:evenodd;stroke:#ffffff;stroke-width:1;stroke-linecap:butt;stroke-linejoin:round"
     inkscape:connector-curvature="0"
     id="path181"
     d="m 590.2878,249.29424 1.57782,9.12224 7.93237,-1.37204 -1.57782,-9.12222 z m 3.07941,17.80376 8.09491,46.80099 7.93237,-1.37201 -8.09491,-46.80099 z" />
  <path
     style="fill-rule:evenodd;stroke:#ffffff;stroke-width:1;stroke-linecap:butt;stroke-linejoin:round"
     inkscape:connector-curvature="0"
     id="path183"
     d="m 635.2258,258.76868 c -6.4928,1.12302 -11.01324,4.55246 -13.56134,10.28836 l -1.15094,-6.65439 -7.13916,1.23484 8.09491,46.80099 7.93237,-1.37204 -4.42096,-25.55984 c -1.03662,-5.99335 -0.51629,-10.27411 1.56104,-12.84226 2.0871,-2.56982 4.81995,-4.14691 8.19855,-4.73129 2.11529,-0.36588 4.03936,-0.20447 5.77227,0.48425 1.74097,0.67722 3.05884,1.76547 3.95362,3.26483 0.89306,1.48957 1.61908,3.85019 2.17804,7.08188 l 4.92401,28.46842 7.93237,-1.37201 -4.97736,-28.77689 c -0.63519,-3.67239 -1.22674,-6.21765 -1.77459,-7.6358 -0.86139,-2.18091 -2.02191,-3.99231 -3.48163,-5.4343 -1.45972,-1.44195 -3.46179,-2.46234 -6.00617,-3.06113 -2.53631,-0.61026 -5.21466,-0.67147 -8.03503,-0.18362 z" />
  <path
     style="fill-rule:evenodd;stroke:#ffffff;stroke-width:1;stroke-linecap:butt;stroke-linejoin:round"
     inkscape:connector-curvature="0"
     id="path185"
     d="m 682.32526,257.38483 c 3.58423,-0.61993 6.89612,0.30499 9.93555,2.77484 3.04931,2.46811 5.06939,6.56665 6.0603,12.29559 1.03662,5.99335 0.56409,10.60874 -1.41766,13.8462 -1.9834,3.22766 -4.79663,5.15655 -8.43964,5.78668 -3.67236,0.63519 -6.97174,-0.24655 -9.89801,-2.64517 -2.92633,-2.39863 -4.92047,-6.66807 -5.98254,-12.80832 -0.97565,-5.64078 -0.47687,-10.1044 1.4964,-13.39081 1.97155,-3.29621 4.72009,-5.24921 8.2456,-5.85901 z m -1.70862,-6.46715 c -4.14245,0.71651 -7.57336,2.36896 -10.29266,4.95737 -2.70954,2.58671 -4.54529,5.90987 -5.50733,9.96947 -0.96374,4.0498 -1.05938,8.30752 -0.28698,12.77316 1.12298,6.4928 3.84869,11.75525 8.17706,15.78738 4.32843,4.03211 9.70959,5.49173 16.14368,4.37888 5.17071,-0.89435 9.13629,-3.68317 11.89666,-8.36652 v 0 c 0.92377,5.16565 1.31971,8.59198 1.18787,10.27899 -0.24774,2.76606 -1.24347,5.05637 -2.98718,6.87085 -1.74372,1.81452 -4.45178,3.03937 -8.12415,3.67456 -3.40802,0.58945 -6.2232,0.31995 -8.44568,-0.80856 -1.65698,-0.83295 -2.8529,-2.41131 -3.58764,-4.73514 l -7.91022,0.18811 v 0 c 0.75653,5.07355 3.07025,8.56656 6.94122,10.47904 3.87268,1.92227 8.60004,2.40066 14.18213,1.43518 4.70062,-0.81305 8.50458,-2.37876 11.41181,-4.69708 2.91705,-2.32004 4.8515,-5.13074 5.80346,-8.43216 0.9635,-3.29331 0.81507,-8.58298 -0.44513,-15.86899 l -6.99731,-40.45511 -7.31537,1.2653 0.97565,5.6408 c -4.35669,-3.84568 -9.29663,-5.29085 -14.81989,-4.33553 z" />
  <path
     style="fill:#000000;fill-opacity:0;fill-rule:evenodd"
     inkscape:connector-curvature="0"
     id="path187"
     d="M -23.178478,133.16798 909.82942,-27.30446" />
  <path
     style="fill-rule:evenodd;stroke:url(#linearGradient5079);stroke-width:8;stroke-linecap:butt;stroke-linejoin:round;stroke-opacity:1"
     inkscape:connector-curvature="0"
     id="path189"
     d="M -23.178478,133.16798 909.82942,-27.30446" />
  <path
     style="fill:#606c71;fill-rule:evenodd"
     inkscape:connector-curvature="0"
     id="path191"
     d="m 78.17447,37.965717 1.726166,9.979927 9.176613,-1.587246 -1.726166,-9.979927 z m 3.36895,19.47773 8.855988,51.201363 9.176613,-1.58725 -8.855995,-51.201358 z" />
  <path
     style="fill:#606c71;fill-rule:evenodd"
     inkscape:connector-curvature="0"
     id="path193"
     d="m 122.28117,49.20548 c -2.82096,0.48793 -5.40609,1.29369 -7.7554,2.417271 -2.33983,1.110912 -4.1373,2.288009 -5.39244,3.531299 -1.68092,1.614865 -2.90788,3.493275 -3.68088,5.635227 -0.76351,2.12928 -0.94791,4.334938 -0.5532,6.616982 0.43363,2.507034 1.49862,4.684181 3.19496,6.531433 1.70582,1.834579 3.95783,3.11676 6.75605,3.846542 2.80769,0.717102 7.71528,1.297211 14.72275,1.740303 5.20186,0.325066 8.49826,0.764542 9.88922,1.318428 1.99591,0.813378 3.16343,2.200386 3.50255,4.161011 0.37802,2.185623 -0.31174,4.269043 -2.06932,6.250267 -1.75943,1.970505 -4.74637,3.320236 -8.9608,4.049194 -4.18046,0.723084 -7.59604,0.370423 -10.24672,-1.057968 -2.63936,-1.430359 -4.51137,-3.821014 -5.61603,-7.171966 l -8.84115,2.919548 c 1.95915,5.255546 5.01876,8.946976 9.17883,11.074289 4.1714,2.12534 9.77481,2.57957 16.81021,1.36268 4.24843,-0.73483 7.93457,-2.08964 11.05843,-4.064426 3.12201,-1.985504 5.35182,-4.407021 6.68947,-7.264565 1.3471,-2.870216 1.77049,-5.751686 1.27015,-8.644417 -0.51146,-2.957016 -1.67025,-5.305519 -3.47639,-7.045502 -1.80614,-1.73999 -4.08495,-2.907196 -6.83641,-3.501617 -2.74199,-0.607094 -7.50055,-1.168831 -14.27568,-1.685219 -4.68648,-0.381103 -7.51634,-0.653 -8.4896,-0.815689 -1.70304,-0.334396 -3.00903,-0.902977 -3.91797,-1.705742 -0.90338,-0.77063 -1.45236,-1.718422 -1.64694,-2.843376 -0.30577,-1.76778 0.32805,-3.466354 1.90145,-5.095726 1.57341,-1.629372 4.46733,-2.808533 8.68177,-3.537491 3.56869,-0.61726 6.4552,-0.355159 8.65955,0.786301 2.21567,1.139503 3.75536,2.991783 4.61908,5.556839 l 8.77254,-2.709065 c -1.15039,-3.210632 -2.6608,-5.669349 -4.53121,-7.376152 -1.87225,-1.717517 -4.51719,-2.876564 -7.9348,-3.477142 -3.40629,-0.602535 -7.23365,-0.536388 -11.48208,0.198448 z" />
  <path
     style="fill:#606c71;fill-rule:evenodd"
     inkscape:connector-curvature="0"
     id="path195"
     d="m 156.68967,44.445675 5.48705,31.723629 c 0.63932,3.696266 1.29324,6.363815 1.96174,8.002647 0.98299,2.445122 2.29485,4.430595 3.93559,5.956436 1.65024,1.513161 3.95757,2.60923 6.92202,3.288185 2.97578,0.677002 6.06108,0.739205 9.2559,0.186607 7.23932,-1.252159 12.46587,-5.135452 15.67964,-11.649872 l 1.30088,7.521103 8.20797,-1.4197 -8.85598,-51.201355 -9.17663,1.587246 4.74488,27.432743 c 0.75607,4.371239 0.82916,7.795791 0.21928,10.273666 -0.60039,2.465195 -1.99133,4.576103 -4.1728,6.332718 -2.18332,1.745903 -4.65148,2.856941 -7.40447,3.333114 -2.75297,0.476174 -5.17624,0.22773 -7.26977,-0.745307 -2.09539,-0.983765 -3.62934,-2.566689 -4.60183,-4.748802 -0.64627,-1.510262 -1.36134,-4.531372 -2.1452,-9.063316 l -4.91165,-28.396984 z" />
  <path
     style="fill:#606c71;fill-rule:evenodd"
     inkscape:connector-curvature="0"
     id="path197"
     d="m 253.93771,53.892303 0.55037,3.182007 c 0.66156,3.824833 0.66908,6.802807 0.0226,8.933914 -0.85234,2.762565 -2.52806,5.115829 -5.02718,7.059799 -2.50096,1.93325 -5.51878,3.205574 -9.05348,3.816955 -3.56868,0.617264 -6.41544,0.315186 -8.54027,-0.906234 -2.11349,-1.223381 -3.37038,-2.992173 -3.77064,-5.306359 -0.2613,-1.510643 -0.0737,-2.955497 0.56292,-4.334556 0.63474,-1.389771 1.67821,-2.541279 3.13045,-3.454529 1.45224,-0.913246 4.02019,-1.95327 7.70384,-3.120068 6.50588,-2.052185 11.31302,-4.009159 14.42142,-5.870929 z m -16.28615,-24.64202 c -4.65628,0.80538 -8.64706,2.119095 -11.97235,3.941137 -3.32715,1.811333 -5.73173,3.998257 -7.21374,6.560772 -1.48386,2.551804 -2.31955,5.714241 -2.50704,9.487316 l 9.17282,-0.394882 c 0.35744,-3.802467 1.4382,-6.593506 3.24233,-8.373127 1.81358,-1.79229 4.87858,-3.061737 9.19499,-3.80833 4.62228,-0.7995 8.27556,-0.42175 10.95981,1.133251 1.98353,1.146553 3.28106,3.48761 3.89258,7.02317 0.0556,0.321415 0.16925,1.079678 0.34095,2.274792 -3.30056,1.762596 -8.58322,3.702511 -15.84794,5.819744 -3.56438,1.046856 -6.20833,1.951061 -7.93184,2.712612 -2.33591,1.066094 -4.37543,2.395405 -6.11855,3.987923 -1.73181,1.590565 -3.02408,3.529919 -3.87678,5.818077 -0.84323,2.275474 -1.04805,4.66674 -0.61443,7.173775 0.7394,4.274811 2.94463,7.512642 6.61569,9.713501 3.66922,2.190139 8.47773,2.770828 14.42554,1.742065 3.60266,-0.623146 6.87579,-1.768585 9.8194,-3.43634 2.95492,-1.669709 5.89549,-4.164513 8.82168,-7.484406 0.68885,2.363587 1.66477,4.363037 2.92774,5.998352 l 9.58447,-1.657791 c -1.49469,-1.76075 -2.62469,-3.672867 -3.38998,-5.736328 -0.7558,-2.076141 -1.83142,-7.147964 -3.22681,-15.215469 l -2.00134,-11.57093 c -0.66712,-3.856976 -1.2815,-6.498265 -1.84311,-7.923863 -0.95517,-2.284408 -2.24686,-4.085792 -3.87506,-5.40415 -1.63007,-1.329069 -3.9785,-2.258024 -7.04534,-2.786863 -3.06683,-0.528839 -6.91139,-0.393507 -11.53369,0.405992 z" />
  <path
     style="fill:#606c71;fill-rule:evenodd"
     inkscape:connector-curvature="0"
     id="path199"
     d="m 269.45584,4.8804827 12.22495,70.6790853 9.1766,-1.58725 -12.22494,-70.6790851 z" />
  <path
     style="fill-rule:evenodd;stroke:#ffffff;stroke-width:1;stroke-linecap:butt;stroke-linejoin:round"
     inkscape:connector-curvature="0"
     id="path201"
     d="m 78.17447,37.965717 1.726166,9.979927 9.176613,-1.587246 -1.726166,-9.979927 z m 3.36895,19.47773 8.855988,51.201363 9.176613,-1.58725 -8.855995,-51.201358 z" />
  <path
     style="fill-rule:evenodd;stroke:#ffffff;stroke-width:1;stroke-linecap:butt;stroke-linejoin:round"
     inkscape:connector-curvature="0"
     id="path203"
     d="m 122.28117,49.20548 c -2.82096,0.48793 -5.40609,1.29369 -7.7554,2.417271 -2.33983,1.110912 -4.1373,2.288009 -5.39244,3.531299 -1.68092,1.614865 -2.90788,3.493275 -3.68088,5.635227 -0.76351,2.12928 -0.94791,4.334938 -0.5532,6.616982 0.43363,2.507034 1.49862,4.684181 3.19496,6.531433 1.70582,1.834579 3.95783,3.11676 6.75605,3.846542 2.80769,0.717102 7.71528,1.297211 14.72275,1.740303 5.20186,0.325066 8.49826,0.764542 9.88922,1.318428 1.99591,0.813378 3.16343,2.200386 3.50255,4.161011 0.37802,2.185623 -0.31174,4.269043 -2.06932,6.250267 -1.75943,1.970505 -4.74637,3.320236 -8.9608,4.049194 -4.18046,0.723084 -7.59604,0.370423 -10.24672,-1.057968 -2.63936,-1.430359 -4.51137,-3.821014 -5.61603,-7.171966 l -8.84115,2.919548 c 1.95915,5.255546 5.01876,8.946976 9.17883,11.074289 4.1714,2.12534 9.77481,2.57957 16.81021,1.36268 4.24843,-0.73483 7.93457,-2.08964 11.05843,-4.064426 3.12201,-1.985504 5.35182,-4.407021 6.68947,-7.264565 1.3471,-2.870216 1.77049,-5.751686 1.27015,-8.644417 -0.51146,-2.957016 -1.67025,-5.305519 -3.47639,-7.045502 -1.80614,-1.73999 -4.08495,-2.907196 -6.83641,-3.501617 -2.74199,-0.607094 -7.50055,-1.168831 -14.27568,-1.685219 -4.68648,-0.381103 -7.51634,-0.653 -8.4896,-0.815689 -1.70304,-0.334396 -3.00903,-0.902977 -3.91797,-1.705742 -0.90338,-0.77063 -1.45236,-1.718422 -1.64694,-2.843376 -0.30577,-1.76778 0.32805,-3.466354 1.90145,-5.095726 1.57341,-1.629372 4.46733,-2.808533 8.68177,-3.537491 3.56869,-0.61726 6.4552,-0.355159 8.65955,0.786301 2.21567,1.139503 3.75536,2.991783 4.61908,5.556839 l 8.77254,-2.709065 c -1.15039,-3.210632 -2.6608,-5.669349 -4.53121,-7.376152 -1.87225,-1.717517 -4.51719,-2.876564 -7.9348,-3.477142 -3.40629,-0.602535 -7.23365,-0.536388 -11.48208,0.198448 z" />
  <path
     style="fill-rule:evenodd;stroke:#ffffff;stroke-width:1;stroke-linecap:butt;stroke-linejoin:round"
     inkscape:connector-curvature="0"
     id="path205"
     d="m 156.68967,44.445675 5.48705,31.723629 c 0.63932,3.696266 1.29324,6.363815 1.96174,8.002647 0.98299,2.445122 2.29485,4.430595 3.93559,5.956436 1.65024,1.513161 3.95757,2.60923 6.92202,3.288185 2.97578,0.677002 6.06108,0.739205 9.2559,0.186607 7.23932,-1.252159 12.46587,-5.135452 15.67964,-11.649872 l 1.30088,7.521103 8.20797,-1.4197 -8.85598,-51.201355 -9.17663,1.587246 4.74488,27.432743 c 0.75607,4.371239 0.82916,7.795791 0.21928,10.273666 -0.60039,2.465195 -1.99133,4.576103 -4.1728,6.332718 -2.18332,1.745903 -4.65148,2.856941 -7.40447,3.333114 -2.75297,0.476174 -5.17624,0.22773 -7.26977,-0.745307 -2.09539,-0.983765 -3.62934,-2.566689 -4.60183,-4.748802 -0.64627,-1.510262 -1.36134,-4.531372 -2.1452,-9.063316 l -4.91165,-28.396984 z" />
  <path
     style="fill-rule:evenodd;stroke:#ffffff;stroke-width:1;stroke-linecap:butt;stroke-linejoin:round"
     inkscape:connector-curvature="0"
     id="path207"
     d="m 253.93771,53.892303 0.55037,3.182007 c 0.66156,3.824833 0.66908,6.802807 0.0226,8.933914 -0.85234,2.762565 -2.52806,5.115829 -5.02718,7.059799 -2.50096,1.93325 -5.51878,3.205574 -9.05348,3.816955 -3.56868,0.617264 -6.41544,0.315186 -8.54027,-0.906234 -2.11349,-1.223381 -3.37038,-2.992173 -3.77064,-5.306359 -0.2613,-1.510643 -0.0737,-2.955497 0.56292,-4.334556 0.63474,-1.389771 1.67821,-2.541279 3.13045,-3.454529 1.45224,-0.913246 4.02019,-1.95327 7.70384,-3.120068 6.50588,-2.052185 11.31302,-4.009159 14.42142,-5.870929 z m -16.28615,-24.64202 c -4.65628,0.80538 -8.64706,2.119095 -11.97235,3.941137 -3.32715,1.811333 -5.73173,3.998257 -7.21374,6.560772 -1.48386,2.551804 -2.31955,5.714241 -2.50704,9.487316 l 9.17282,-0.394882 c 0.35744,-3.802467 1.4382,-6.593506 3.24233,-8.373127 1.81358,-1.79229 4.87858,-3.061737 9.19499,-3.80833 4.62228,-0.7995 8.27556,-0.42175 10.95981,1.133251 1.98353,1.146553 3.28106,3.48761 3.89258,7.02317 0.0556,0.321415 0.16925,1.079678 0.34095,2.274792 -3.30056,1.762596 -8.58322,3.702511 -15.84794,5.819744 -3.56438,1.046856 -6.20833,1.951061 -7.93184,2.712612 -2.33591,1.066094 -4.37543,2.395405 -6.11855,3.987923 -1.73181,1.590565 -3.02408,3.529919 -3.87678,5.818077 -0.84323,2.275474 -1.04805,4.66674 -0.61443,7.173775 0.7394,4.274811 2.94463,7.512642 6.61569,9.713501 3.66922,2.190139 8.47773,2.770828 14.42554,1.742065 3.60266,-0.623146 6.87579,-1.768585 9.8194,-3.43634 2.95492,-1.669709 5.89549,-4.164513 8.82168,-7.484406 0.68885,2.363587 1.66477,4.363037 2.92774,5.998352 l 9.58447,-1.657791 c -1.49469,-1.76075 -2.62469,-3.672867 -3.38998,-5.736328 -0.7558,-2.076141 -1.83142,-7.147964 -3.22681,-15.215469 l -2.00134,-11.57093 c -0.66712,-3.856976 -1.2815,-6.498265 -1.84311,-7.923863 -0.95517,-2.284408 -2.24686,-4.085792 -3.87506,-5.40415 -1.63007,-1.329069 -3.9785,-2.258024 -7.04534,-2.786863 -3.06683,-0.528839 -6.91139,-0.393507 -11.53369,0.405992 z" />
  <path
     style="fill-rule:evenodd;stroke:#ffffff;stroke-width:1;stroke-linecap:butt;stroke-linejoin:round"
     inkscape:connector-curvature="0"
     id="path209"
     d="m 269.45584,4.8804827 12.22495,70.6790853 9.1766,-1.58725 -12.22494,-70.6790851 z" />
  <path
     style="fill:#159957;fill-rule:evenodd"
     inkscape:connector-curvature="0"
     id="path211"
     d="m 32.988632,182.5023 c -0.813293,-0.40927 -2.07025,-0.89488 -3.770863,-1.45683 -1.696926,-0.56928 -2.941045,-1.05301 -3.732359,-1.45122 -1.208952,-0.60837 -2.391689,-0.7123 -3.548208,-0.31175 -1.145506,0.39689 -2.02244,1.19981 -2.630802,2.40878 -1.028685,2.04424 -2.428789,5.16417 -4.200313,9.35977 -1.760508,4.19196 -3.155107,7.31006 -4.183792,9.35431 -0.530934,1.05509 -1.4335762,2.58426 -2.7079273,4.58753 -1.267024,2.00694 -2.1715336,3.54896 -2.713529,4.62603 -0.4756284,0.94519 -0.5605655,1.88037 -0.2548108,2.80556 0.3057551,0.92519 0.9312229,1.6256 1.8764033,2.10124 0.9671617,0.4867 1.9133315,0.57717 2.838509,0.27141 0.9251788,-0.30576 1.6255818,-0.93123 2.1012108,-1.87642 0.541995,-1.07707 1.442841,-2.62092 2.702538,-4.63156 1.259696,-2.01064 2.155013,-3.5435 2.685947,-4.59859 0.995502,-1.9783 2.235056,-4.7153 3.71866,-8.21101 1.682987,-4.0014 2.884108,-6.77153 3.603365,-8.31035 2.506817,0.87582 4.144892,1.50731 4.914225,1.89446 1.780456,0.89596 4.066402,2.07385 6.857841,3.53366 3.692658,1.91333 5.967617,3.08567 6.824871,3.51707 -3.228717,5.9783 -4.964748,9.20925 -5.208095,9.69283 -0.895951,1.78047 -2.085942,4.50108 -3.569969,8.16186 -1.484028,3.66077 -2.674019,6.38139 -3.569971,8.16187 -0.475628,0.94519 -0.560565,1.88037 -0.254811,2.80557 0.305756,0.92518 0.931223,1.62559 1.876402,2.10123 0.967163,0.48669 1.913334,0.57716 2.838512,0.2714 0.925179,-0.30574 1.62558,-0.93121 2.101208,-1.8764 0.918076,-1.82443 2.12286,-4.59271 3.614357,-8.30483 1.498821,-3.70842 2.70174,-6.46385 3.608753,-8.26631 0.718975,-1.42877 1.852387,-3.54428 3.400238,-6.34651 1.547852,-2.80225 2.681267,-4.91774 3.400238,-6.34651 0.442444,-0.87926 0.499848,-1.80534 0.172207,-2.77828 -0.316631,-0.97656 -0.914562,-1.68608 -1.7938,-2.12852 -1.890362,-0.95128 -4.723988,-2.40936 -8.500881,-4.37425 -3.773209,-1.97223 -6.604992,-3.43398 -8.495354,-4.38524 z" />
  <path
     style="fill:#159957;fill-rule:evenodd"
     inkscape:connector-curvature="0"
     id="path213"
     d="m 77.13678,211.3713 c 3.494972,1.75874 5.63427,3.62039 6.417892,5.58493 0.790955,1.96822 0.34578,4.62289 -1.33551,7.96402 -2.01313,4.00056 -4.85466,7.04709 -8.52459,9.13956 -3.978508,2.26776 -7.638321,2.56097 -10.979423,0.87967 -2.879502,-1.44904 -4.882756,-3.43505 -6.009758,-5.95804 -1.170681,-2.65517 -1.092354,-5.30161 0.234981,-7.93935 1.96888,-3.91264 4.920315,-6.90385 8.854298,-8.97363 4.176346,-2.16821 7.957047,-2.40061 11.34211,-0.69716 z m 3.33493,-6.6273 c -5.693062,-2.86489 -11.669014,-2.70417 -17.927853,0.48213 -5.575596,2.81389 -9.729439,6.9355 -12.46154,12.36484 -2.322837,4.61602 -2.488784,9.24311 -0.497844,13.88125 1.870537,4.38471 5.135788,7.74956 9.795746,10.09456 5.693062,2.86487 11.597687,2.62694 17.71386,-0.71379 5.25666,-2.89174 9.251038,-7.05228 11.983139,-12.48161 C 94.24276,218.10619 91.374261,210.2304 80.47171,204.744 Z" />
  <path
     style="fill:#159957;fill-rule:evenodd"
     inkscape:connector-curvature="0"
     id="path215"
     d="m 113.54327,240.1874 c -1.73648,-0.87384 -4.37995,-2.10767 -7.93036,-3.70149 -3.55042,-1.59381 -6.193873,-2.82764 -7.930369,-3.70148 -1.846397,-0.92915 -3.200981,-0.53647 -4.063751,1.17806 -0.86277,1.71453 -0.370949,3.03637 1.475449,3.96551 7.649371,3.84934 13.046181,6.3723 16.190441,7.56891 1.83605,0.67601 3.13568,0.25566 3.8989,-1.26103 0.86277,-1.71453 0.316,-3.06401 -1.64031,-4.04848 z" />
  <path
     style="fill:#159957;fill-rule:evenodd"
     inkscape:connector-curvature="0"
     id="path217"
     d="m 143.81586,247.11572 c 1.97829,0.99551 2.95323,2.73494 2.92485,5.21828 -0.0174,2.4797 -1.03262,5.71983 -3.04576,9.72038 -1.42688,2.83557 -3.21475,4.82834 -5.36362,5.97833 -2.47943,1.31418 -5.09295,1.27997 -7.84057,-0.10272 -2.39592,-1.20566 -4.55956,-2.87295 -6.49092,-5.00183 2.76528,-5.4953 5.26049,-10.80968 7.48561,-15.94319 2.63217,-0.79659 4.69113,-1.22048 6.17689,-1.27169 2.08009,-0.0827 4.13127,0.3848 6.15352,1.40244 z m -8.79157,-15.45682 c -1.25289,-0.63049 -2.53538,-0.46321 -3.84741,0.50183 -1.11351,0.78948 -2.06292,1.96456 -2.84826,3.52521 l -2.87355,6.94214 c -1.72722,4.08932 -3.76906,8.55753 -6.12551,13.40457 l -6.62008,13.1557 -6.7356,13.13889 c -0.48669,0.96716 -0.58449,1.90967 -0.29338,2.82748 0.29842,0.92148 0.92023,1.62006 1.86541,2.0957 0.94518,0.47562 1.87303,0.55689 2.78356,0.24375 0.91785,-0.30945 1.62012,-0.94772 2.10681,-1.91492 l 7.99678,-15.72726 c 2.28375,2.03076 4.52468,3.59918 6.72277,4.70532 4.5061,2.26758 8.9295,2.45502 13.2702,0.56235 4.09834,-1.79425 7.34212,-5.06534 9.73132,-9.81323 2.62149,-5.20954 3.90434,-9.81174 3.84859,-13.80661 -0.0751,-5.0514 -2.36565,-8.71087 -6.87174,-10.97844 -1.60461,-0.80747 -3.45022,-1.32761 -5.53685,-1.56041 -2.08294,-0.24012 -4.39589,-0.18738 -6.93885,0.15823 0.33154,-0.54938 0.72372,-1.13713 1.17653,-1.76323 0.3314,-0.49437 0.54689,-0.84047 0.64643,-1.0383 0.44245,-0.87924 0.52175,-1.76675 0.23793,-2.66253 -0.27281,-0.89943 -0.83783,-1.56484 -1.69509,-1.99624 z" />
  <path
     style="fill:#159957;fill-rule:evenodd"
     inkscape:connector-curvature="0"
     id="path219"
     d="m 192.83342,263.18768 c -1.14301,-0.5752 -2.37592,-0.42429 -3.69873,0.4527 -3.05347,2.01703 -6.44942,4.55038 -10.18784,7.6001 l -10.60391,8.91961 c 0.53638,-11.74069 0.2414,-21.14505 -0.88495,-28.21301 -0.16238,-1.04587 -0.74913,-1.82321 -1.76025,-2.33203 -0.85726,-0.4314 -1.80538,-0.48152 -2.84433,-0.15038 -1.03163,0.33483 -1.7742,0.95285 -2.22771,1.85407 -0.34289,0.68142 -0.472,1.67702 -0.38733,2.9868 l 0.27252,3.15356 0.37209,28.65741 c -10.04616,8.13971 -15.6223,13.30863 -16.72841,15.50675 -0.4535,0.90121 -0.49806,1.82 -0.13363,2.75635 0.36805,0.94735 1.01368,1.65332 1.93688,2.11788 1.40679,0.70795 2.79412,0.41437 4.16204,-0.88067 l 5.3949,-5.30142 c 3.52995,-3.29236 8.21154,-7.23105 14.0448,-11.81604 l 23.81869,-18.922 c 0.59547,-0.47168 1.01488,-0.94931 1.25821,-1.43289 0.44246,-0.87924 0.47604,-1.81272 0.10074,-2.80045 -0.36797,-0.98404 -1.00255,-1.70282 -1.90378,-2.15634 z" />
  <path
     style="fill:#159957;fill-rule:evenodd"
     inkscape:connector-curvature="0"
     id="path221"
     d="m 217.08633,274.4419 c -4.13242,-2.0795 -9.17453,-1.31113 -15.12634,2.30515 -5.35663,3.25463 -9.15766,7.11303 -11.40306,11.57519 -2.35602,4.68198 -2.67038,9.24817 -0.94307,13.69855 1.63981,4.24106 4.71277,7.49536 9.21885,9.76294 1.9563,0.98443 4.75,1.56387 8.38111,1.73828 4.13722,0.20874 6.60956,-0.48923 7.41702,-2.09384 0.42032,-0.8353 0.49597,-1.72464 0.22694,-2.66809 -0.26533,-0.95075 -0.80465,-1.63077 -1.61795,-2.04004 -0.28575,-0.1438 -0.84683,-0.20575 -1.68322,-0.18592 l -4.85338,0.1196 c -1.84867,-0.0488 -3.43242,-0.405 -4.75127,-1.06869 -2.90149,-1.46009 -4.88277,-3.43503 -5.94382,-5.92484 -1.13765,-2.66608 -0.97642,-5.44989 0.48365,-8.35138 1.34945,-2.6817 3.94792,-5.35467 7.79539,-8.01895 4.21123,-2.89444 7.43787,-3.77753 9.67992,-2.64926 2.94545,1.48221 4.80667,3.06616 5.58368,4.75189 0.25157,0.59491 0.51413,1.20453 0.78762,1.82883 0.28455,0.62067 0.74552,1.0914 1.38297,1.41217 0.81329,0.40927 1.65694,0.42978 2.53091,0.0615 0.87767,-0.37555 1.52668,-0.98099 1.947,-1.81628 0.9402,-1.86838 0.0551,-4.29721 -2.65542,-7.28647 -2.15089,-2.34955 -4.30339,-4.06635 -6.45753,-5.15036 z" />
  <path
     style="fill:#159957;fill-rule:evenodd"
     inkscape:connector-curvature="0"
     id="path223"
     d="m 251.77228,291.89664 c -4.13243,-2.07953 -9.17455,-1.31116 -15.12636,2.30511 -5.35663,3.25467 -9.15765,7.11307 -11.40306,11.57523 -2.35602,4.68198 -2.67038,9.24817 -0.94307,13.69852 1.63982,4.24106 4.71277,7.49539 9.21886,9.76294 1.95631,0.98446 4.75001,1.5639 8.3811,1.73831 4.13722,0.20871 6.60956,-0.48923 7.41702,-2.09384 0.42034,-0.8353 0.49598,-1.72464 0.22695,-2.66809 -0.26534,-0.95075 -0.80466,-1.63077 -1.61795,-2.04004 -0.28575,-0.1438 -0.84683,-0.20578 -1.68323,-0.18592 l -4.85338,0.11957 c -1.84866,-0.0488 -3.43242,-0.405 -4.75126,-1.06866 -2.90149,-1.46009 -4.88277,-3.43503 -5.94382,-5.92484 -1.13765,-2.6661 -0.97643,-5.44989 0.48364,-8.35141 1.34946,-2.68167 3.94792,-5.35467 7.7954,-8.01892 4.21122,-2.89444 7.43786,-3.77753 9.67991,-2.64929 2.94545,1.48224 4.80667,3.06619 5.58368,4.75192 0.25157,0.59491 0.51413,1.20453 0.78763,1.82883 0.28455,0.62067 0.74553,1.09137 1.38298,1.41217 0.81329,0.40927 1.65692,0.42978 2.53091,0.0615 0.87766,-0.37558 1.52668,-0.98098 1.947,-1.81628 0.94018,-1.86841 0.055,-4.29721 -2.65543,-7.2865 -2.15088,-2.34955 -4.30339,-4.06632 -6.45752,-5.15033 z" />
  <path
     style="fill:#159957;fill-rule:evenodd"
     inkscape:connector-curvature="0"
     id="path225"
     d="m 275.0169,303.6765 c -2.26404,-1.13931 -4.1095,-0.2912 -5.53638,2.54437 -1.06189,2.11017 -2.56668,5.29221 -4.51443,9.54602 -1.94776,4.25385 -3.44702,7.42487 -4.49784,9.5131 -0.53094,1.05508 -1.39709,2.6669 -2.59851,4.83541 -1.19772,2.1612 -2.05653,3.75834 -2.5764,4.79145 -0.4535,0.90124 -0.49612,1.78885 -0.12788,2.66284 0.37558,0.87768 1.02496,1.5488 1.94815,2.01337 1.80243,0.90704 3.32748,0.5588 4.57513,-1.04468 0.36432,-0.45026 1.45346,-2.47785 3.26749,-6.08277 0.44244,-0.87924 1.10605,-2.17059 1.99081,-3.87405 0.95112,-1.83536 1.60917,-3.11572 1.97419,-3.8411 l 3.95657,1.99103 c 0.80225,0.43128 1.60916,3.31659 2.42081,8.65601 0.7464,5.0311 1.01635,8.47262 0.80984,10.32455 -0.19919,1.85562 0.47055,3.1706 2.00922,3.94489 0.85727,0.43136 1.76852,0.54559 2.73379,0.34265 0.9726,-0.19925 1.68012,-0.7385 2.12256,-1.61774 0.94019,-1.86838 1.09198,-5.26297 0.45532,-10.18374 -0.61492,-4.79969 -1.62878,-8.5329 -3.04153,-11.19968 1.17816,-0.26111 2.42322,-0.84665 3.73511,-1.75668 0.22052,-0.16449 1.29565,-1.01459 3.2254,-2.5503 2.80106,-2.2818 4.81705,-3.11297 6.04797,-2.49356 1.49472,0.75217 2.67899,0.26001 3.5528,-1.4765 0.39819,-0.79132 0.16946,-1.70529 -0.68625,-2.74194 -0.66922,-0.80509 -1.39947,-1.40671 -2.1908,-1.80493 -2.50582,-1.26099 -5.48989,-0.55884 -8.9522,2.10641 -1.22413,1.00928 -2.21665,1.83209 -2.9776,2.46842 -2.30414,1.62277 -4.84131,1.84735 -7.61148,0.67373 l -2.4069,-1.21121 c 2.3017,-4.95725 3.8563,-8.23816 4.66373,-9.8428 0.44248,-0.87925 0.48874,-1.76499 0.13889,-2.65729 -0.34986,-0.89227 -0.98639,-1.57071 -1.90958,-2.03528 z" />
  <path
     style="fill:#159957;fill-rule:evenodd"
     inkscape:connector-curvature="0"
     id="path227"
     d="m 306.98154,320.21634 c -2.19809,-1.10614 -3.86127,-0.53815 -4.9895,1.70389 v 0 c 0.002,-0.004 0.003,-0.006 0.003,-0.006 0.006,0.003 -1.60559,3.50589 -4.83396,10.50897 -3.19809,6.90277 -6.37335,13.48648 -9.52575,19.7511 -0.47565,0.94516 -0.47257,1.8971 0.009,2.85575 0.44901,0.85952 1.15707,1.53265 2.12424,2.01934 1.2749,0.64154 2.79901,0.65097 4.57235,0.0283 2.21396,-0.78665 5.45166,-1.69171 9.71311,-2.71521 3.23743,-0.79501 6.77328,-2.10101 10.60757,-3.91794 1.9943,-0.9523 5.32776,-2.73199 10.00046,-5.33911 -0.81015,2.65006 -1.89548,5.32694 -3.25601,8.03061 -0.71896,1.42877 -1.85785,3.52777 -3.41663,6.29697 -1.55874,2.76919 -2.69763,4.86816 -3.41659,6.29694 -0.46457,0.92321 -0.54215,1.85293 -0.23276,2.78912 0.31302,0.9472 0.94214,1.65863 1.8873,2.13428 0.92322,0.46457 1.85477,0.53851 2.79461,0.22177 0.94355,-0.3057 1.64759,-0.92017 2.11216,-1.84336 0.43136,-0.85727 1.11688,-2.11004 2.05652,-3.75836 0.93963,-1.64828 1.62512,-2.90109 2.05651,-3.75833 1.22779,-2.43991 3.03287,-6.13653 5.41529,-11.0899 2.38608,-4.9607 4.19299,-8.66098 5.42077,-11.1009 0.47565,-0.94519 0.55326,-1.88406 0.23285,-2.81662 -0.31308,-0.92886 -0.93124,-1.62561 -1.85443,-2.09017 -1.47272,-0.74112 -3.29443,-0.56971 -5.46515,0.51416 -8.36316,4.1383 -13.4537,6.61779 -15.27157,7.4385 -5.85028,2.6481 -11.17057,4.59879 -15.96082,5.85199 l 7.85043,-16.586 c 1.9032,-4.05587 2.91581,-6.25973 3.03776,-6.61157 0.75415,-2.26504 0.19702,-3.86767 -1.67136,-4.80789 z" />
  <path
     style="fill:#ffffff;fill-rule:evenodd"
     inkscape:connector-curvature="0"
     id="path229"
     d="m 113.95735,93.666435 c -5.52167,0 -10.53969,0.932716 -15.054031,2.798142 -4.514343,1.865425 -7.946732,4.601383 -10.29718,8.207873 -2.350441,3.59406 -3.525658,7.46171 -3.525658,11.60296 0,3.76816 0.957589,7.17568 2.872757,10.22254 1.927613,3.03443 4.850121,5.57763 8.767532,7.6296 3.021996,1.60426 8.30116,3.31424 15.8375,5.12991 7.53635,1.80325 12.40512,3.13393 14.60633,3.99202 3.4324,1.3058 5.89476,2.9225 7.38711,4.85011 1.49234,1.91517 2.23851,4.1599 2.23851,6.7342 0,2.53697 -0.77727,4.88119 -2.33179,7.03265 -1.54208,2.13902 -3.89874,3.82413 -7.06998,5.0553 -3.17123,1.23118 -6.82748,1.84677 -10.96873,1.84677 -4.66358,0 -8.8608,-0.80835 -12.59166,-2.42505 -3.73086,-1.62913 -6.485479,-3.75572 -8.26386,-6.37976 -1.765945,-2.63647 -2.891418,-6.00667 -3.376427,-10.11061 l -10.241219,0.8954 c 0.149231,5.48436 1.647797,10.40286 4.49569,14.75552 2.860328,4.34023 6.796386,7.5923 11.808174,9.7562 5.024232,2.16389 11.248552,3.24583 18.672962,3.24583 5.85746,0 11.12419,-1.06952 15.8002,-3.20852 4.68845,-2.15148 8.28252,-5.1548 10.7822,-9.01001 2.49967,-3.86766 3.74951,-7.98404 3.74951,-12.34914 0,-4.4024 -1.13791,-8.28871 -3.41374,-11.6589 -2.27582,-3.38265 -5.80148,-6.17458 -10.577,-8.37578 -3.28315,-1.49234 -9.33959,-3.2334 -18.16929,-5.22319 -8.81727,-2.00222 -14.27055,-3.95471 -16.359827,-5.85744 -2.126594,-1.90274 -3.189888,-4.32779 -3.189888,-7.27517 0,-3.39507 1.498566,-6.2927 4.495685,-8.69289 3.00956,-2.41262 7.79751,-3.61892 14.36382,-3.61892 6.30516,0 11.06822,1.32445 14.28921,3.97336 3.23341,2.64891 5.12993,6.5663 5.68956,11.75219 l 10.4091,-0.78348 c -0.18654,-4.81281 -1.52965,-9.12194 -4.02933,-12.92741 -2.49968,-3.80547 -6.07509,-6.684446 -10.72622,-8.636923 -4.63871,-1.96492 -9.99872,-2.94738 -16.08002,-2.94738 z" />
  <path
     style="fill:#606c71;fill-rule:evenodd"
     inkscape:connector-curvature="0"
     id="path231"
     d="m 154.61504,97.7568 1.85721,10.73763 9.3371,-1.61496 -1.85721,-10.737644 z m 3.62471,20.95655 9.52834,55.08874 9.33711,-1.61497 -9.52835,-55.08874 z" />
  <path
     style="fill:#606c71;fill-rule:evenodd"
     inkscape:connector-curvature="0"
     id="path233"
     d="m 206.62921,109.06157 c -3.66568,0.63403 -6.79111,2.02347 -9.3763,4.16832 -2.58717,2.13332 -4.51202,4.69821 -5.77456,7.69466 l -1.33684,-7.72903 -8.35152,1.4445 9.52834,55.08876 9.33709,-1.61498 -4.94361,-28.58183 c -0.8673,-5.01435 -1.02979,-8.93965 -0.48749,-11.77591 0.54231,-2.83626 1.80621,-5.13842 3.79173,-6.9065 1.99704,-1.77006 4.30966,-2.88239 6.93788,-3.33697 3.45819,-0.59814 6.12752,0.009 8.00801,1.82037 1.88048,1.81173 3.17961,4.7925 3.89737,8.94231 l 6.19074,35.79213 9.33709,-1.61498 -5.53576,-32.00541 c -0.98096,-5.67142 -0.4142,-10.01372 1.70024,-13.02692 2.11244,-3.02473 5.10525,-4.87205 8.97842,-5.54197 2.14408,-0.37084 4.09822,-0.1924 5.86244,0.53533 1.76423,0.72773 3.08861,1.86395 3.97313,3.40867 0.89408,1.5312 1.6641,4.16421 2.31009,7.89904 l 6.00231,34.70281 9.28525,-1.60601 -6.54065,-37.81516 c -1.08863,-6.29388 -3.36383,-10.69668 -6.82567,-13.2084 -3.46382,-2.52325 -7.92771,-3.31235 -13.39163,-2.36729 -6.98554,1.20824 -12.1007,5.40529 -15.34546,12.59115 -1.59841,-2.85777 -3.8525,-4.90762 -6.76227,-6.14953 -2.89827,-1.24391 -6.38771,-1.51296 -10.46837,-0.80716 z" />
  <path
     style="fill:#606c71;fill-rule:evenodd"
     inkscape:connector-curvature="0"
     id="path235"
     d="m 270.07745,99.36956 5.90363,34.13219 c 0.68783,3.9769 1.38049,6.84888 2.07791,8.61593 1.02581,2.63624 2.38235,4.78198 4.06955,6.43718 1.69674,1.64167 4.05908,2.84175 7.08706,3.6002 3.03952,0.75647 6.18463,0.85358 9.43534,0.29132 7.36593,-1.27403 12.65463,-5.39426 15.86615,-12.36066 l 1.39962,8.09214 8.35154,-1.44451 -9.52836,-55.08875 -9.33709,1.614975 5.1051,29.515535 c 0.81348,4.70312 0.92157,8.38257 0.32431,11.0384 -0.58774,2.64227 -1.98462,4.89621 -4.19073,6.76179 -2.20807,1.85407 -4.71268,3.02333 -7.5138,3.50783 -2.80115,0.4845 -5.27331,0.19383 -7.41656,-0.87199 -2.14527,-1.07735 -3.72415,-2.79284 -4.73673,-5.14646 -0.67349,-1.62871 -1.43191,-4.88109 -2.2753,-9.75711 l -5.28454,-30.552985 z" />
  <path
     style="fill:#606c71;fill-rule:evenodd"
     inkscape:connector-curvature="0"
     id="path237"
     d="m 325.53583,68.19382 13.15305,76.0453 9.33709,-1.61497 -13.15304,-76.045301 z" />
  <path
     style="fill:#606c71;fill-rule:evenodd"
     inkscape:connector-curvature="0"
     id="path239"
     d="m 360.63852,63.885357 -8.31625,7.208248 2.35968,13.642502 -6.84723,1.184311 1.2561,7.262176 6.8472,-1.184318 5.48193,31.694194 c 0.969,5.60224 1.98542,9.21363 3.04926,10.83419 1.06189,1.60902 2.61923,2.78805 4.67209,3.53709 2.05282,0.74904 4.77377,0.83048 8.16278,0.24431 2.07492,-0.35889 4.37863,-1.04228 6.91113,-2.05017 l -2.77524,-8.01448 c -1.65265,0.53517 -2.99768,0.89247 -4.03515,1.07191 -1.38327,0.23924 -2.48844,0.1989 -3.31546,-0.12108 -0.81549,-0.32196 -1.45618,-0.83442 -1.92206,-1.5374 -0.45438,-0.70497 -0.91184,-2.38886 -1.37238,-5.05165 l -5.57168,-32.21291 9.38897,-1.623947 -1.25607,-7.262169 -9.38898,1.623939 z" />
  <path
     style="fill:#606c71;fill-rule:evenodd"
     inkscape:connector-curvature="0"
     id="path241"
     d="m 422.4017,101.28464 0.59216,3.4236 c 0.7118,4.11523 0.74866,7.31432 0.11066,9.59727 -0.84158,2.95925 -2.52637,5.47073 -5.05435,7.53446 -2.52997,2.0522 -5.5932,3.38933 -9.18973,4.0114 -3.63107,0.62804 -6.53543,0.27559 -8.71301,-1.05735 -2.16605,-1.33494 -3.46439,-3.24735 -3.89505,-5.73724 -0.28113,-1.62534 -0.10407,-3.1756 0.53119,-4.65076 0.63327,-1.48671 1.68548,-2.71344 3.15661,-3.68022 1.47113,-0.96678 4.07816,-2.05879 7.82102,-3.27603 6.61056,-2.14064 11.49075,-4.19568 14.6405,-6.16513 z M 405.56128,74.653674 c -4.73771,0.81945 -8.79218,2.191498 -12.16339,4.116142 -3.3732,1.913117 -5.80246,4.238762 -7.28776,6.976929 -1.4873,2.726646 -2.30798,6.115616 -2.46203,10.166908 l 9.34494,-0.334145 c 0.32696,-4.081199 1.40109,-7.068794 3.22235,-8.962799 1.83078,-1.907516 4.94214,-3.241104 9.33404,-4.000732 4.70313,-0.813469 8.43021,-0.371819 11.18122,1.324951 2.03283,1.251129 3.37823,3.778694 4.03616,7.582688 0.0598,0.345817 0.18311,1.161476 0.36984,2.446983 -3.34662,1.861031 -8.71157,3.893074 -16.09491,6.096141 -3.62249,1.08957 -6.30829,2.03493 -8.0574,2.83609 -2.37027,1.1223 -4.43585,2.53026 -6.19681,4.22387 -1.74942,1.69162 -3.04745,3.76224 -3.89407,6.21186 -0.8371,2.4361 -1.02234,5.00284 -0.55582,7.70022 0.79553,4.59938 3.07486,8.09919 6.83795,10.49945 3.76111,2.38871 8.66758,3.05972 14.71939,2.01298 3.66568,-0.63403 6.99036,-1.83237 9.9741,-3.59502 2.9952,-1.76463 5.96771,-4.41574 8.91748,-7.95333 0.72528,2.54579 1.73953,4.70323 3.04278,6.47233 l 9.75208,-1.68675 c -1.54065,-1.90612 -2.71109,-3.97125 -3.51133,-6.1954 -0.79068,-2.23766 -1.93667,-7.6965 -3.43802,-16.37652 l -2.15328,-12.449435 c -0.71778,-4.149811 -1.36985,-6.99318 -1.95621,-8.530113 -0.99594,-2.463349 -2.33008,-4.411118 -4.00247,-5.843315 -1.67435,-1.443726 -4.07697,-2.464684 -7.20783,-3.062882 -3.13086,-0.598198 -7.04788,-0.49057 -11.75101,0.322899 z" />
  <path
     style="fill:#606c71;fill-rule:evenodd"
     inkscape:connector-curvature="0"
     id="path243"
     d="m 467.2899,63.976906 c -7.64258,1.321884 -12.96356,5.358643 -15.96289,12.110275 l -1.35477,-7.832771 -8.40341,1.453476 9.52835,55.088744 9.3371,-1.61497 -5.2038,-30.086133 c -1.22021,-7.05468 -0.60769,-12.093483 1.83747,-15.116394 2.45672,-3.02491 5.67352,-4.881294 9.65042,-5.569153 2.48989,-0.430664 4.75473,-0.240661 6.79449,0.570008 2.04929,0.797142 3.60053,2.07814 4.65372,3.843002 1.05121,1.753334 1.90579,4.531998 2.56375,8.335991 l 5.79596,33.509729 9.3371,-1.61498 -5.85877,-33.87283 c -0.74768,-4.322723 -1.44397,-7.318718 -2.08884,-8.987991 -1.01388,-2.567093 -2.37994,-4.699303 -4.09817,-6.396629 -1.71823,-1.697319 -4.0748,-2.898384 -7.06979,-3.603196 -2.98542,-0.71833 -6.13807,-0.79039 -9.45792,-0.216178 z" />
  <path
     style="fill:#606c71;fill-rule:evenodd"
     inkscape:connector-curvature="0"
     id="path245"
     d="m 524.48474,61.99114 c 4.73767,-0.81945 8.9046,0.311878 12.50073,3.393978 2.33728,1.982025 4.1142,5.254127 5.33069,9.816307 l -30.76053,5.320435 c -0.52017,-4.860695 0.42972,-8.978409 2.84964,-12.353119 2.43152,-3.376709 5.79132,-5.43591 10.07947,-6.177601 z m -1.43164,-7.65921 c -7.60797,1.315906 -13.35553,4.945622 -17.24258,10.889156 -3.88706,5.943527 -5.02906,13.549255 -3.42606,22.817162 1.54919,8.95668 5.11078,15.511402 10.68475,19.664192 5.5835,4.13926 12.40406,5.51207 20.46161,4.11841 6.39765,-1.10656 11.38495,-3.57191 14.96185,-7.39605 3.57691,-3.82414 5.63868,-8.68622 6.18531,-14.586229 l -9.85468,0.475731 c -0.73596,4.187561 -2.15881,7.389817 -4.26849,9.606766 -2.10968,2.216942 -4.87634,3.621502 -8.29999,4.213652 -4.59936,0.79553 -8.71606,-0.1486 -12.35016,-2.83235 -3.63403,-2.683761 -6.14734,-7.021644 -7.53992,-13.013634 l 41.08326,-7.10588 c -0.1568,-1.112603 -0.28308,-1.945557 -0.37879,-2.498864 -1.57312,-9.095001 -5.12756,-15.745941 -10.66345,-19.952808 -5.53583,-4.206867 -11.98669,-5.673286 -19.35266,-4.399254 z" />
  <path
     style="fill:#606c71;fill-rule:evenodd"
     inkscape:connector-curvature="0"
     id="path247"
     d="m 583.2137,51.886623 c 4.59937,-0.795525 8.7478,0.297451 12.44519,3.278927 3.70697,2.967956 6.1496,7.858238 7.32794,14.670845 1.25012,7.227585 0.6413,12.871223 -1.82635,16.930908 -2.46772,4.059677 -6.01856,6.490272 -10.65247,7.291778 -4.66858,0.807488 -8.84479,-0.274742 -12.52869,-3.246681 -3.68591,-2.983475 -6.13897,-8.002548 -7.35913,-15.057228 -1.22021,-7.05468 -0.5935,-12.594566 1.88019,-16.619667 2.47363,-4.0251 6.04474,-6.441395 10.71332,-7.248882 z M 581.87685,44.1576 c -6.81263,1.178333 -12.23487,4.217548 -16.26679,9.117645 -4.82208,5.891556 -6.35083,13.938141 -4.58636,24.139763 1.60901,9.302498 5.21582,16.015617 10.82037,20.139366 5.61609,4.121746 12.28003,5.515706 19.99176,4.181866 4.80689,-0.83142 9.04474,-2.721943 12.71356,-5.671566 3.68036,-2.95163 6.23011,-6.639671 7.6493,-11.064117 1.42877,-4.437973 1.53002,-10.201591 0.30383,-17.290848 -1.51325,-8.749187 -5.10199,-15.186432 -10.76624,-19.31174 -5.6662,-4.136833 -12.28601,-5.550289 -19.85943,-4.240369 z" />
  <path
     style="fill:#606c71;fill-rule:evenodd"
     inkscape:connector-curvature="0"
     id="path249"
     d="m 618.6106,39.086205 5.90363,34.132202 c 0.68786,3.976898 1.38049,6.848869 2.07788,8.615906 1.02588,2.636261 2.38238,4.781982 4.06958,6.437195 1.69677,1.64167 4.05914,2.841744 7.08709,3.600204 3.03949,0.756463 6.18463,0.85357 9.43531,0.291321 7.3659,-1.274032 12.65466,-5.394256 15.86615,-12.360664 l 1.39965,8.092133 8.35151,-1.444504 -9.52832,-55.088745 -9.3371,1.614974 5.1051,29.515533 c 0.81348,4.703121 0.92157,8.38258 0.32428,11.038395 -0.58771,2.64228 -1.98462,4.896217 -4.19073,6.761802 -2.20807,1.854058 -4.71265,3.023331 -7.5138,3.507828 -2.80115,0.48449 -5.27331,0.193825 -7.41656,-0.871994 -2.14527,-1.077354 -3.72419,-2.792839 -4.7367,-5.146461 -0.67352,-1.628708 -1.43194,-4.881081 -2.27533,-9.757111 L 627.9477,37.471237 Z" />
  <path
     style="fill:#606c71;fill-rule:evenodd"
     inkscape:connector-curvature="0"
     id="path251"
     d="m 695.7894,24.45493 c -2.8703,0.496454 -5.49707,1.336641 -7.88043,2.520561 -2.37384,1.170397 -4.19428,2.417221 -5.46124,3.740475 -1.69733,1.718227 -2.92939,3.724018 -3.69623,6.017368 -0.75727,2.279831 -0.92359,4.6474 -0.4989,7.102707 0.46655,2.697377 1.57336,5.046574 3.32037,7.047592 1.75653,1.987496 4.06433,3.386956 6.9234,4.19838 2.86859,0.797893 7.87604,1.469234 15.02234,2.014007 5.30481,0.400261 8.66876,0.904721 10.09186,1.513371 2.04217,0.893349 3.24572,2.394768 3.61059,4.504253 0.40674,2.351559 -0.27581,4.582852 -2.04767,6.693882 -1.77386,2.099495 -4.80487,3.520088 -9.09301,4.26178 -4.25354,0.73571 -7.7381,0.323342 -10.45368,-1.237091 -2.70404,-1.562439 -4.63543,-4.148918 -5.79419,-7.759445 l -8.98211,3.049469 c 2.04834,5.664871 5.20288,9.660332 9.46362,11.986382 4.27228,2.324059 9.98767,2.867012 17.14612,1.628868 4.32269,-0.747673 8.06628,-2.166862 11.23071,-4.25756 3.16241,-2.102227 5.41126,-4.681603 6.74646,-7.738106 1.34479,-3.070038 1.74805,-6.161232 1.20972,-9.27359 -0.5503,-3.181523 -1.75434,-5.715718 -3.61219,-7.602589 -1.85791,-1.886871 -4.19183,-3.163086 -7.00195,-3.828633 -2.80054,-0.679081 -7.65594,-1.329227 -14.5661,-1.95045 -4.78015,-0.455403 -7.66699,-0.775261 -8.66052,-0.959584 -1.73895,-0.375927 -3.07562,-0.999531 -4.00989,-1.870811 -0.92828,-0.836701 -1.49707,-1.86023 -1.70642,-3.070591 -0.32898,-1.901997 0.30035,-3.720429 1.88794,-5.455296 1.58758,-1.734863 4.52545,-2.973144 8.8136,-3.714832 3.6311,-0.628046 6.57562,-0.318157 8.83343,0.929672 2.26935,1.245834 3.85675,3.250717 4.76221,6.014645 l 8.91431,-2.824028 C 719.09757,32.6755 717.53403,30.019454 715.611,28.1676 c -1.92505,-1.863379 -4.63208,-3.134425 -8.12116,-3.813128 -3.47754,-0.680702 -7.37769,-0.647215 -11.70044,0.100458 z" />
  <path
     style="fill-rule:evenodd;stroke:#ffffff;stroke-width:1;stroke-linecap:butt;stroke-linejoin:round"
     inkscape:connector-curvature="0"
     id="path253"
     d="m 154.61504,97.7568 1.85721,10.73763 9.3371,-1.61496 -1.85721,-10.737644 z m 3.62471,20.95655 9.52834,55.08874 9.33711,-1.61497 -9.52835,-55.08874 z" />
  <path
     style="fill-rule:evenodd;stroke:#ffffff;stroke-width:1;stroke-linecap:butt;stroke-linejoin:round"
     inkscape:connector-curvature="0"
     id="path255"
     d="m 206.62921,109.06157 c -3.66568,0.63403 -6.79111,2.02347 -9.3763,4.16832 -2.58717,2.13332 -4.51202,4.69821 -5.77456,7.69466 l -1.33684,-7.72903 -8.35152,1.4445 9.52834,55.08876 9.33709,-1.61498 -4.94361,-28.58183 c -0.8673,-5.01435 -1.02979,-8.93965 -0.48749,-11.77591 0.54231,-2.83626 1.80621,-5.13842 3.79173,-6.9065 1.99704,-1.77006 4.30966,-2.88239 6.93788,-3.33697 3.45819,-0.59814 6.12752,0.009 8.00801,1.82037 1.88048,1.81173 3.17961,4.7925 3.89737,8.94231 l 6.19074,35.79213 9.33709,-1.61498 -5.53576,-32.00541 c -0.98096,-5.67142 -0.4142,-10.01372 1.70024,-13.02692 2.11244,-3.02473 5.10525,-4.87205 8.97842,-5.54197 2.14408,-0.37084 4.09822,-0.1924 5.86244,0.53533 1.76423,0.72773 3.08861,1.86395 3.97313,3.40867 0.89408,1.5312 1.6641,4.16421 2.31009,7.89904 l 6.00231,34.70281 9.28525,-1.60601 -6.54065,-37.81516 c -1.08863,-6.29388 -3.36383,-10.69668 -6.82567,-13.2084 -3.46382,-2.52325 -7.92771,-3.31235 -13.39163,-2.36729 -6.98554,1.20824 -12.1007,5.40529 -15.34546,12.59115 -1.59841,-2.85777 -3.8525,-4.90762 -6.76227,-6.14953 -2.89827,-1.24391 -6.38771,-1.51296 -10.46837,-0.80716 z" />
  <path
     style="fill-rule:evenodd;stroke:#ffffff;stroke-width:1;stroke-linecap:butt;stroke-linejoin:round"
     inkscape:connector-curvature="0"
     id="path257"
     d="m 270.07745,99.36956 5.90363,34.13219 c 0.68783,3.9769 1.38049,6.84888 2.07791,8.61593 1.02581,2.63624 2.38235,4.78198 4.06955,6.43718 1.69674,1.64167 4.05908,2.84175 7.08706,3.6002 3.03952,0.75647 6.18463,0.85358 9.43534,0.29132 7.36593,-1.27403 12.65463,-5.39426 15.86615,-12.36066 l 1.39962,8.09214 8.35154,-1.44451 -9.52836,-55.08875 -9.33709,1.614975 5.1051,29.515535 c 0.81348,4.70312 0.92157,8.38257 0.32431,11.0384 -0.58774,2.64227 -1.98462,4.89621 -4.19073,6.76179 -2.20807,1.85407 -4.71268,3.02333 -7.5138,3.50783 -2.80115,0.4845 -5.27331,0.19383 -7.41656,-0.87199 -2.14527,-1.07735 -3.72415,-2.79284 -4.73673,-5.14646 -0.67349,-1.62871 -1.43191,-4.88109 -2.2753,-9.75711 l -5.28454,-30.552985 z" />
  <path
     style="fill-rule:evenodd;stroke:#ffffff;stroke-width:1;stroke-linecap:butt;stroke-linejoin:round"
     inkscape:connector-curvature="0"
     id="path259"
     d="m 325.53583,68.19382 13.15305,76.0453 9.33709,-1.61497 -13.15304,-76.045301 z" />
  <path
     style="fill-rule:evenodd;stroke:#ffffff;stroke-width:1;stroke-linecap:butt;stroke-linejoin:round"
     inkscape:connector-curvature="0"
     id="path261"
     d="m 360.63852,63.885357 -8.31625,7.208248 2.35968,13.642502 -6.84723,1.184311 1.2561,7.262176 6.8472,-1.184318 5.48193,31.694194 c 0.969,5.60224 1.98542,9.21363 3.04926,10.83419 1.06189,1.60902 2.61923,2.78805 4.67209,3.53709 2.05282,0.74904 4.77377,0.83048 8.16278,0.24431 2.07492,-0.35889 4.37863,-1.04228 6.91113,-2.05017 l -2.77524,-8.01448 c -1.65265,0.53517 -2.99768,0.89247 -4.03515,1.07191 -1.38327,0.23924 -2.48844,0.1989 -3.31546,-0.12108 -0.81549,-0.32196 -1.45618,-0.83442 -1.92206,-1.5374 -0.45438,-0.70497 -0.91184,-2.38886 -1.37238,-5.05165 l -5.57168,-32.21291 9.38897,-1.623947 -1.25607,-7.262169 -9.38898,1.623939 z" />
  <path
     style="fill-rule:evenodd;stroke:#ffffff;stroke-width:1;stroke-linecap:butt;stroke-linejoin:round"
     inkscape:connector-curvature="0"
     id="path263"
     d="m 422.4017,101.28464 0.59216,3.4236 c 0.7118,4.11523 0.74866,7.31432 0.11066,9.59727 -0.84158,2.95925 -2.52637,5.47073 -5.05435,7.53446 -2.52997,2.0522 -5.5932,3.38933 -9.18973,4.0114 -3.63107,0.62804 -6.53543,0.27559 -8.71301,-1.05735 -2.16605,-1.33494 -3.46439,-3.24735 -3.89505,-5.73724 -0.28113,-1.62534 -0.10407,-3.1756 0.53119,-4.65076 0.63327,-1.48671 1.68548,-2.71344 3.15661,-3.68022 1.47113,-0.96678 4.07816,-2.05879 7.82102,-3.27603 6.61056,-2.14064 11.49075,-4.19568 14.6405,-6.16513 z M 405.56128,74.653674 c -4.73771,0.81945 -8.79218,2.191498 -12.16339,4.116142 -3.3732,1.913117 -5.80246,4.238762 -7.28776,6.976929 -1.4873,2.726646 -2.30798,6.115616 -2.46203,10.166908 l 9.34494,-0.334145 c 0.32696,-4.081199 1.40109,-7.068794 3.22235,-8.962799 1.83078,-1.907516 4.94214,-3.241104 9.33404,-4.000732 4.70313,-0.813469 8.43021,-0.371819 11.18122,1.324951 2.03283,1.251129 3.37823,3.778694 4.03616,7.582688 0.0598,0.345817 0.18311,1.161476 0.36984,2.446983 -3.34662,1.861031 -8.71157,3.893074 -16.09491,6.096141 -3.62249,1.08957 -6.30829,2.03493 -8.0574,2.83609 -2.37027,1.1223 -4.43585,2.53026 -6.19681,4.22387 -1.74942,1.69162 -3.04745,3.76224 -3.89407,6.21186 -0.8371,2.4361 -1.02234,5.00284 -0.55582,7.70022 0.79553,4.59938 3.07486,8.09919 6.83795,10.49945 3.76111,2.38871 8.66758,3.05972 14.71939,2.01298 3.66568,-0.63403 6.99036,-1.83237 9.9741,-3.59502 2.9952,-1.76463 5.96771,-4.41574 8.91748,-7.95333 0.72528,2.54579 1.73953,4.70323 3.04278,6.47233 l 9.75208,-1.68675 c -1.54065,-1.90612 -2.71109,-3.97125 -3.51133,-6.1954 -0.79068,-2.23766 -1.93667,-7.6965 -3.43802,-16.37652 l -2.15328,-12.449435 c -0.71778,-4.149811 -1.36985,-6.99318 -1.95621,-8.530113 -0.99594,-2.463349 -2.33008,-4.411118 -4.00247,-5.843315 -1.67435,-1.443726 -4.07697,-2.464684 -7.20783,-3.062882 -3.13086,-0.598198 -7.04788,-0.49057 -11.75101,0.322899 z" />
  <path
     style="fill-rule:evenodd;stroke:#ffffff;stroke-width:1;stroke-linecap:butt;stroke-linejoin:round"
     inkscape:connector-curvature="0"
     id="path265"
     d="m 467.2899,63.976906 c -7.64258,1.321884 -12.96356,5.358643 -15.96289,12.110275 l -1.35477,-7.832771 -8.40341,1.453476 9.52835,55.088744 9.3371,-1.61497 -5.2038,-30.086133 c -1.22021,-7.05468 -0.60769,-12.093483 1.83747,-15.116394 2.45672,-3.02491 5.67352,-4.881294 9.65042,-5.569153 2.48989,-0.430664 4.75473,-0.240661 6.79449,0.570008 2.04929,0.797142 3.60053,2.07814 4.65372,3.843002 1.05121,1.753334 1.90579,4.531998 2.56375,8.335991 l 5.79596,33.509729 9.3371,-1.61498 -5.85877,-33.87283 c -0.74768,-4.322723 -1.44397,-7.318718 -2.08884,-8.987991 -1.01388,-2.567093 -2.37994,-4.699303 -4.09817,-6.396629 -1.71823,-1.697319 -4.0748,-2.898384 -7.06979,-3.603196 -2.98542,-0.71833 -6.13807,-0.79039 -9.45792,-0.216178 z" />
  <path
     style="fill-rule:evenodd;stroke:#ffffff;stroke-width:1;stroke-linecap:butt;stroke-linejoin:round"
     inkscape:connector-curvature="0"
     id="path267"
     d="m 524.48474,61.99114 c 4.73767,-0.81945 8.9046,0.311878 12.50073,3.393978 2.33728,1.982025 4.1142,5.254127 5.33069,9.816307 l -30.76053,5.320435 c -0.52017,-4.860695 0.42972,-8.978409 2.84964,-12.353119 2.43152,-3.376709 5.79132,-5.43591 10.07947,-6.177601 z m -1.43164,-7.65921 c -7.60797,1.315906 -13.35553,4.945622 -17.24258,10.889156 -3.88706,5.943527 -5.02906,13.549255 -3.42606,22.817162 1.54919,8.95668 5.11078,15.511402 10.68475,19.664192 5.5835,4.13926 12.40406,5.51207 20.46161,4.11841 6.39765,-1.10656 11.38495,-3.57191 14.96185,-7.39605 3.57691,-3.82414 5.63868,-8.68622 6.18531,-14.586229 l -9.85468,0.475731 c -0.73596,4.187561 -2.15881,7.389817 -4.26849,9.606766 -2.10968,2.216942 -4.87634,3.621502 -8.29999,4.213652 -4.59936,0.79553 -8.71606,-0.1486 -12.35016,-2.83235 -3.63403,-2.683761 -6.14734,-7.021644 -7.53992,-13.013634 l 41.08326,-7.10588 c -0.1568,-1.112603 -0.28308,-1.945557 -0.37879,-2.498864 -1.57312,-9.095001 -5.12756,-15.745941 -10.66345,-19.952808 -5.53583,-4.206867 -11.98669,-5.673286 -19.35266,-4.399254 z" />
  <path
     style="fill-rule:evenodd;stroke:#ffffff;stroke-width:1;stroke-linecap:butt;stroke-linejoin:round"
     inkscape:connector-curvature="0"
     id="path269"
     d="m 583.2137,51.886623 c 4.59937,-0.795525 8.7478,0.297451 12.44519,3.278927 3.70697,2.967956 6.1496,7.858238 7.32794,14.670845 1.25012,7.227585 0.6413,12.871223 -1.82635,16.930908 -2.46772,4.059677 -6.01856,6.490272 -10.65247,7.291778 -4.66858,0.807488 -8.84479,-0.274742 -12.52869,-3.246681 -3.68591,-2.983475 -6.13897,-8.002548 -7.35913,-15.057228 -1.22021,-7.05468 -0.5935,-12.594566 1.88019,-16.619667 2.47363,-4.0251 6.04474,-6.441395 10.71332,-7.248882 z M 581.87685,44.1576 c -6.81263,1.178333 -12.23487,4.217548 -16.26679,9.117645 -4.82208,5.891556 -6.35083,13.938141 -4.58636,24.139763 1.60901,9.302498 5.21582,16.015617 10.82037,20.139366 5.61609,4.121746 12.28003,5.515706 19.99176,4.181866 4.80689,-0.83142 9.04474,-2.721943 12.71356,-5.671566 3.68036,-2.95163 6.23011,-6.639671 7.6493,-11.064117 1.42877,-4.437973 1.53002,-10.201591 0.30383,-17.290848 -1.51325,-8.749187 -5.10199,-15.186432 -10.76624,-19.31174 -5.6662,-4.136833 -12.28601,-5.550289 -19.85943,-4.240369 z" />
  <path
     style="fill-rule:evenodd;stroke:#ffffff;stroke-width:1;stroke-linecap:butt;stroke-linejoin:round"
     inkscape:connector-curvature="0"
     id="path271"
     d="m 618.6106,39.086205 5.90363,34.132202 c 0.68786,3.976898 1.38049,6.848869 2.07788,8.615906 1.02588,2.636261 2.38238,4.781982 4.06958,6.437195 1.69677,1.64167 4.05914,2.841744 7.08709,3.600204 3.03949,0.756463 6.18463,0.85357 9.43531,0.291321 7.3659,-1.274032 12.65466,-5.394256 15.86615,-12.360664 l 1.39965,8.092133 8.35151,-1.444504 -9.52832,-55.088745 -9.3371,1.614974 5.1051,29.515533 c 0.81348,4.703121 0.92157,8.38258 0.32428,11.038395 -0.58771,2.64228 -1.98462,4.896217 -4.19073,6.761802 -2.20807,1.854058 -4.71265,3.023331 -7.5138,3.507828 -2.80115,0.48449 -5.27331,0.193825 -7.41656,-0.871994 -2.14527,-1.077354 -3.72419,-2.792839 -4.7367,-5.146461 -0.67352,-1.628708 -1.43194,-4.881081 -2.27533,-9.757111 L 627.9477,37.471237 Z" />
  <path
     style="fill-rule:evenodd;stroke:#ffffff;stroke-width:1;stroke-linecap:butt;stroke-linejoin:round"
     inkscape:connector-curvature="0"
     id="path273"
     d="m 695.7894,24.45493 c -2.8703,0.496454 -5.49707,1.336641 -7.88043,2.520561 -2.37384,1.170397 -4.19428,2.417221 -5.46124,3.740475 -1.69733,1.718227 -2.92939,3.724018 -3.69623,6.017368 -0.75727,2.279831 -0.92359,4.6474 -0.4989,7.102707 0.46655,2.697377 1.57336,5.046574 3.32037,7.047592 1.75653,1.987496 4.06433,3.386956 6.9234,4.19838 2.86859,0.797893 7.87604,1.469234 15.02234,2.014007 5.30481,0.400261 8.66876,0.904721 10.09186,1.513371 2.04217,0.893349 3.24572,2.394768 3.61059,4.504253 0.40674,2.351559 -0.27581,4.582852 -2.04767,6.693882 -1.77386,2.099495 -4.80487,3.520088 -9.09301,4.26178 -4.25354,0.73571 -7.7381,0.323342 -10.45368,-1.237091 -2.70404,-1.562439 -4.63543,-4.148918 -5.79419,-7.759445 l -8.98211,3.049469 c 2.04834,5.664871 5.20288,9.660332 9.46362,11.986382 4.27228,2.324059 9.98767,2.867012 17.14612,1.628868 4.32269,-0.747673 8.06628,-2.166862 11.23071,-4.25756 3.16241,-2.102227 5.41126,-4.681603 6.74646,-7.738106 1.34479,-3.070038 1.74805,-6.161232 1.20972,-9.27359 -0.5503,-3.181523 -1.75434,-5.715718 -3.61219,-7.602589 -1.85791,-1.886871 -4.19183,-3.163086 -7.00195,-3.828633 -2.80054,-0.679081 -7.65594,-1.329227 -14.5661,-1.95045 -4.78015,-0.455403 -7.66699,-0.775261 -8.66052,-0.959584 -1.73895,-0.375927 -3.07562,-0.999531 -4.00989,-1.870811 -0.92828,-0.836701 -1.49707,-1.86023 -1.70642,-3.070591 -0.32898,-1.901997 0.30035,-3.720429 1.88794,-5.455296 1.58758,-1.734863 4.52545,-2.973144 8.8136,-3.714832 3.6311,-0.628046 6.57562,-0.318157 8.83343,0.929672 2.26935,1.245834 3.85675,3.250717 4.76221,6.014645 l 8.91431,-2.824028 C 719.09757,32.6755 717.53403,30.019454 715.611,28.1676 c -1.92505,-1.863379 -4.63208,-3.134425 -8.12116,-3.813128 -3.47754,-0.680702 -7.37769,-0.647215 -11.70044,0.100458 z" />
  <path
     style="fill:#ffffff;fill-rule:evenodd"
     inkscape:connector-curvature="0"
     id="path275"
     d="m 177.70581,149.39813 v 84.83955 h 53.01036 v -10.01176 h -41.78328 v -74.82779 z" />
</svg>
