<?xml version="1.0" standalone="yes"?>

<svg version="1.1" viewBox="0.0 0.0 780.9632545931759 375.5853018372703" fill="none" stroke="none" stroke-linecap="square" stroke-miterlimit="10" xmlns="http://www.w3.org/2000/svg" xmlns:xlink="http://www.w3.org/1999/xlink"><clipPath id="p.0"><path d="m0 0l780.96326 0l0 375.5853l-780.96326 0l0 -375.5853z" clip-rule="nonzero"></path></clipPath><g clip-path="url(#p.0)"><path fill="#000000" fill-opacity="0.0" d="m0 0l780.96326 0l0 375.5853l-780.96326 0z" fill-rule="evenodd"></path><path fill="#606c71" d="m257.7191 189.07314c4.06604 -0.7032776 7.733429 0.2629547 11.002106 2.898697c3.2771301 2.6237946 5.4365234 6.947006 6.478241 12.96965c1.1051636 6.389511 0.5669861 11.378738 -1.6145325 14.967682c-2.181549 3.5889435 -5.3206177 5.7377014 -9.417267 6.446274c-4.1271973 0.7138672 -7.819153 -0.24287415 -11.075897 -2.8701935c-3.2584991 -2.6375122 -5.427109 -7.074585 -6.505844 -13.3112335c-1.0787201 -6.2366333 -0.52467346 -11.13414 1.6621399 -14.69252c2.1868286 -3.5583649 5.3438416 -5.6944885 9.471054 -6.4083557zm-1.1818542 -6.832794c-6.0226593 1.0417175 -10.816177 3.728531 -14.380554 8.06044c-4.262909 5.2084045 -5.614395 12.321945 -4.054474 21.340622c1.4224396 8.223816 4.6110077 14.158493 9.565704 17.804062c4.964905 3.6437988 10.85611 4.8760986 17.673645 3.6969147c4.249481 -0.73501587 7.9959106 -2.4063263 11.239319 -5.0139465c3.2535706 -2.609375 5.5076904 -5.869766 6.7622986 -9.781174c1.2630615 -3.9233704 1.3526001 -9.0186615 0.2685852 -15.285873c-1.3378296 -7.734665 -4.5104675 -13.425461 -9.517883 -17.072418c-5.009186 -3.6571198 -10.861389 -4.906662 -17.55664 -3.7486267z" fill-rule="evenodd"></path><path fill="#606c71" d="m308.67758 173.22186c-4.1883545 0.7244415 -7.894928 2.3836212 -11.11969 4.9775085c-3.216339 2.5819397 -5.3547363 5.9954987 -6.4151917 10.240662c-1.0604858 4.245178 -1.1359558 8.996933 -0.22644043 14.25528c1.4065857 8.132095 4.509918 14.029053 9.309998 17.690872c4.808502 3.6498566 10.545105 4.898407 17.209778 3.7456512c5.3194885 -0.9200897 9.530151 -3.2751923 12.631989 -7.0652924c3.11026 -3.802063 4.6248474 -8.577087 4.5437317 -14.325073l-8.299255 0.34921265c0.1329956 4.227661 -0.71395874 7.5227966 -2.5408325 9.885391c-1.8269043 2.3626099 -4.3606567 3.824173 -7.6012573 4.3846893c-4.035492 0.69799805 -7.563141 -0.2189331 -10.582977 -2.7507935c-3.019806 -2.5318604 -5.09552 -7.0689697 -6.227112 -13.611328c-1.1157532 -6.450653 -0.63165283 -11.388535 1.4522705 -14.81366c2.0821533 -3.435318 5.202118 -5.5125427 9.359894 -6.2317047c2.7514648 -0.47590637 5.238098 -0.055862427 7.459839 1.2601166c2.231964 1.314209 4.0130005 3.540802 5.3430786 6.6797943l7.810974 -2.6262207c-1.7990723 -4.758133 -4.6109924 -8.181335 -8.435699 -10.269608c-3.826477 -2.098465 -8.384186 -2.6902924 -13.673096 -1.7754974z" fill-rule="evenodd"></path><path fill="#606c71" d="m371.44086 188.48396l0.52349854 3.0266113c0.62927246 3.6380463 0.66186523 6.4661865 0.097839355 8.4844055c-0.74398804 2.6161194 -2.2333984 4.83638 -4.468231 6.6608124c-2.2366028 1.8142395 -4.944641 2.9963226 -8.124115 3.5462646c-3.2100525 0.5552368 -5.7776184 0.24365234 -7.7026978 -0.9347229c-1.9148865 -1.18013 -3.0627136 -2.8707886 -3.4434204 -5.0719604c-0.24853516 -1.4368744 -0.0920105 -2.807373 0.4696045 -4.1114807c0.55981445 -1.3143005 1.4900208 -2.3988037 2.7905579 -3.253479c1.3005371 -0.8546753 3.6052551 -1.8200684 6.9141235 -2.896164c5.8440247 -1.8924408 10.158325 -3.709198 12.942841 -5.450287zm-14.887726 -23.542908c-4.1883545 0.7244415 -7.7726746 1.9373932 -10.75296 3.6388702c-2.9820862 1.6912842 -5.1296387 3.7472687 -6.442688 6.167938c-1.3148499 2.4104767 -2.0403442 5.406479 -2.1765442 8.987991l8.261322 -0.29541016c0.2890625 -3.607956 1.2386475 -6.2491302 2.8486938 -7.923523c1.6185303 -1.6863403 4.3690796 -2.8652802 8.251709 -3.53685c4.157776 -0.7191467 7.452667 -0.3287201 9.884705 1.1712952c1.7971191 1.1060486 2.9865112 3.3405304 3.5681763 6.70343c0.052856445 0.30570984 0.16183472 1.0267944 0.3269348 2.1632385c-2.9585571 1.6452332 -7.701416 3.4416656 -14.228607 5.389282c-3.202423 0.9632416 -5.5768127 1.798996 -7.1230774 2.507248c-2.0954285 0.99217224 -3.9215088 2.2368622 -5.478241 3.7341003c-1.5465698 1.4954681 -2.6940613 3.3259888 -3.4425354 5.491577c-0.73999023 2.1536102 -0.9037781 4.4227295 -0.491333 6.8073273c0.7032776 4.0660553 2.7182922 7.160034 6.045044 9.281967c3.3250122 2.1117249 7.6625366 2.704895 13.012604 1.7795258c3.240631 -0.56051636 6.1798096 -1.6199036 8.817535 -3.1781616c2.6479187 -1.5600281 5.2757263 -3.9037323 7.8834534 -7.031128c0.6411438 2.250595 1.5378113 4.157852 2.6899414 5.721817l8.621277 -1.4911804c-1.3619995 -1.6850891 -2.3967285 -3.5107574 -3.1041565 -5.4769897c-0.69903564 -1.9781952 -1.7121582 -6.8040466 -3.0393982 -14.47757l-1.903656 -11.005844c-0.6345215 -3.6686096 -1.2109985 -6.1822815 -1.7294006 -7.540985c-0.8804321 -2.1777039 -2.059906 -3.8996124 -3.5383606 -5.165741c-1.4801941 -1.2763062 -3.6042175 -2.1788788 -6.37204 -2.707718c-2.7678223 -0.52882385 -6.2306213 -0.4336548 -10.388397 0.28549194z" fill-rule="evenodd"></path><path fill="#606c71" d="m384.9975 142.07391l11.628052 67.227356l8.254395 -1.4277191l-11.628052 -67.22737z" fill-rule="evenodd"></path><path fill="#606c71" d="m406.0921 138.42528l1.6418762 9.492538l8.254395 -1.4277344l-1.6418762 -9.492538zm3.2044373 18.526505l8.423584 48.70085l8.254425 -1.4277191l-8.4236145 -48.700867z" fill-rule="evenodd"></path><path fill="#606c71" d="m427.5938 153.78699l1.1580505 6.695221l19.856415 -3.4344788c2.6903381 -0.46533203 5.777527 -1.0937653 9.261566 -1.8852997l0 0l-24.844818 40.947464l1.1580505 6.695221l43.106354 -7.455902l-1.2294312 -7.1079407l-22.516174 3.894516c-3.240631 0.56051636 -6.686737 1.2982635 -10.338348 2.2132416l4.1145935 -6.52092l21.022217 -35.468872l-0.9439087 -5.457062z" fill-rule="evenodd"></path><path fill="#606c71" d="m512.36194 164.1095l0.52349854 3.0266113c0.6292114 3.6380463 0.66186523 6.4661713 0.097839355 8.4844055c-0.74401855 2.6161041 -2.233429 4.83638 -4.4682617 6.6608124c-2.2366028 1.8142395 -4.944641 2.9963226 -8.124115 3.5462646c-3.2100525 0.55522156 -5.777588 0.24365234 -7.7026978 -0.9347229c-1.9148865 -1.18013 -3.062683 -2.8707886 -3.4434204 -5.0719604c-0.24853516 -1.4368744 -0.0920105 -2.807373 0.4696045 -4.1114807c0.55981445 -1.3143158 1.4900208 -2.3988037 2.7905579 -3.253479c1.3005676 -0.8546753 3.6052551 -1.8200684 6.9141235 -2.896164c5.844055 -1.8924408 10.158325 -3.709198 12.942871 -5.450287zm-14.887756 -23.542908c-4.1883545 0.7244415 -7.7726746 1.9373932 -10.75296 3.6388702c-2.9820557 1.6912842 -5.1296387 3.7472687 -6.442688 6.167938c-1.3148193 2.4104767 -2.0403442 5.4064636 -2.1765442 8.987991l8.261353 -0.29541016c0.28903198 -3.6079712 1.238617 -6.2491455 2.8486938 -7.923523c1.6184998 -1.6863403 4.369049 -2.8652802 8.251678 -3.53685c4.157776 -0.7191467 7.452667 -0.3287201 9.884705 1.1712952c1.7971191 1.1060486 2.9865112 3.3405304 3.5681763 6.70343c0.052886963 0.30570984 0.16186523 1.0267944 0.3269348 2.1632385c-2.9585266 1.6452332 -7.701416 3.4416656 -14.228577 5.389282c-3.2024536 0.9632416 -5.5768127 1.798996 -7.123108 2.507248c-2.095398 0.99217224 -3.9214783 2.2368622 -5.478241 3.7341003c-1.5465698 1.4954681 -2.6940613 3.3259888 -3.442505 5.491577c-0.74002075 2.1536102 -0.9038086 4.4227295 -0.49136353 6.8073273c0.7033081 4.0660553 2.7183228 7.160034 6.0450745 9.281952c3.3249817 2.11174 7.662506 2.7049103 13.012604 1.779541c3.2406006 -0.56051636 6.179779 -1.6199036 8.817505 -3.1781616c2.6479187 -1.5600281 5.275757 -3.9037323 7.883484 -7.031128c0.6411133 2.2505798 1.5377808 4.157852 2.6899414 5.721817l8.621216 -1.4911804c-1.3619995 -1.6850891 -2.3966675 -3.5107574 -3.104126 -5.4769897c-0.6989746 -1.9781952 -1.7121582 -6.8040466 -3.0393677 -14.47757l-1.9036865 -11.005844c-0.6345215 -3.6686096 -1.2109985 -6.1822815 -1.7293701 -7.540985c-0.8804321 -2.1777039 -2.0599365 -3.8996277 -3.538391 -5.165741c-1.4802246 -1.2763214 -3.6042175 -2.1788788 -6.37204 -2.707718c-2.7678223 -0.52882385 -6.2306213 -0.4336548 -10.388397 0.28549194z" fill-rule="evenodd"></path><path fill="#606c71" d="m536.0856 117.49947l-7.3518677 6.3724213l2.0860596 12.06057l-6.0532227 1.0469971l1.1104126 6.4200897l6.0532227 -1.0470123l4.8463745 28.019058c0.8566284 4.9526215 1.755188 8.145248 2.6956787 9.577896c0.93878174 1.4224396 2.3155518 2.4647522 4.13031 3.1269379c1.8148193 0.66218567 4.220276 0.7341614 7.2163086 0.21595764c1.8342896 -0.317276 3.8709106 -0.9214325 6.109741 -1.8124542l-2.4534912 -7.085144c-1.4609985 0.473114 -2.6500854 0.7889862 -3.5671997 0.9476166c-1.2229004 0.21151733 -2.1998901 0.17584229 -2.9310303 -0.10702515c-0.72094727 -0.2846222 -1.2873535 -0.7376709 -1.6992188 -1.3591309c-0.40167236 -0.62323 -0.8060913 -2.111847 -1.2132568 -4.4658813l-4.925659 -28.477615l8.300293 -1.435669l-1.1104736 -6.4200745l-8.300232 1.435669l-2.942749 -17.013206z" fill-rule="evenodd"></path><path fill="#606c71" d="m552.24097 113.14658l1.6418457 9.492538l8.254395 -1.4277267l-1.6418457 -9.492538zm3.2044067 18.526497l8.423584 48.700867l8.254456 -1.4277344l-8.423645 -48.70085z" fill-rule="evenodd"></path><path fill="#606c71" d="m597.02106 130.38564c4.06604 -0.7032776 7.7333984 0.26293945 11.002075 2.898697c3.2771606 2.6237946 5.4365234 6.947006 6.4782715 12.96965c1.1051636 6.389511 0.56695557 11.378738 -1.614563 14.967682c-2.1815186 3.5889435 -5.3206177 5.7377014 -9.417236 6.446274c-4.1271973 0.7138672 -7.819153 -0.24287415 -11.075928 -2.8701935c-3.258484 -2.6375122 -5.427124 -7.074585 -6.5057983 -13.3112335c-1.0787354 -6.2366333 -0.52471924 -11.134155 1.6621094 -14.69252c2.1868286 -3.5583649 5.343811 -5.6944885 9.471069 -6.4083557zm-1.1818848 -6.832794c-6.022644 1.0417175 -10.816162 3.7285233 -14.380554 8.06044c-4.2628784 5.2084045 -5.61438 12.321945 -4.0544434 21.340622c1.4224243 8.223816 4.611023 14.158493 9.565674 17.804062c4.964905 3.6437988 10.85614 4.8760986 17.673645 3.6969147c4.2495117 -0.73501587 7.9959717 -2.4063416 11.239319 -5.0139465c3.253601 -2.609375 5.5076904 -5.869766 6.762329 -9.781174c1.2630615 -3.9233704 1.3526001 -9.0186615 0.2685547 -15.285873c-1.3378296 -7.734665 -4.510437 -13.425476 -9.517883 -17.07241c-5.0091553 -3.657135 -10.861389 -4.9066772 -17.55664 -3.7486343z" fill-rule="evenodd"></path><path fill="#606c71" d="m651.2354 113.971214c-6.7563477 1.1686172 -11.460327 4.737297 -14.111877 10.706047l-1.1976929 -6.924515l-7.428955 1.2849579l8.423584 48.700867l8.254395 -1.4277344l-4.600464 -26.597458c-1.0786743 -6.2366486 -0.53723145 -10.691162 1.6243896 -13.363564c2.171875 -2.6741562 5.015625 -4.3152924 8.531433 -4.9233932c2.2011719 -0.38072968 4.203369 -0.21276855 6.006592 0.503891c1.8116455 0.7047043 3.1830444 1.8371658 4.1141357 3.397377c0.9293213 1.5500259 1.6848145 4.0064774 2.2664795 7.369377l5.1239014 29.62407l8.254456 -1.4277344l-5.1795044 -29.945068c-0.6609497 -3.8214645 -1.2765503 -6.4700623 -1.8466187 -7.9457703c-0.8963623 -2.2694244 -2.104004 -4.1543884 -3.6229858 -5.654892c-1.5189819 -1.5005035 -3.602356 -2.562294 -6.25 -3.1853714c-2.6392822 -0.63503265 -5.4263306 -0.69872284 -8.361267 -0.19108582z" fill-rule="evenodd"></path><path stroke="#ffffff" stroke-width="1.0" stroke-linejoin="round" stroke-linecap="butt" d="m257.7191 189.07314c4.06604 -0.7032776 7.733429 0.2629547 11.002106 2.898697c3.2771301 2.6237946 5.4365234 6.947006 6.478241 12.96965c1.1051636 6.389511 0.5669861 11.378738 -1.6145325 14.967682c-2.181549 3.5889435 -5.3206177 5.7377014 -9.417267 6.446274c-4.1271973 0.7138672 -7.819153 -0.24287415 -11.075897 -2.8701935c-3.2584991 -2.6375122 -5.427109 -7.074585 -6.505844 -13.3112335c-1.0787201 -6.2366333 -0.52467346 -11.13414 1.6621399 -14.69252c2.1868286 -3.5583649 5.3438416 -5.6944885 9.471054 -6.4083557zm-1.1818542 -6.832794c-6.0226593 1.0417175 -10.816177 3.728531 -14.380554 8.06044c-4.262909 5.2084045 -5.614395 12.321945 -4.054474 21.340622c1.4224396 8.223816 4.6110077 14.158493 9.565704 17.804062c4.964905 3.6437988 10.85611 4.8760986 17.673645 3.6969147c4.249481 -0.73501587 7.9959106 -2.4063263 11.239319 -5.0139465c3.2535706 -2.609375 5.5076904 -5.869766 6.7622986 -9.781174c1.2630615 -3.9233704 1.3526001 -9.0186615 0.2685852 -15.285873c-1.3378296 -7.734665 -4.5104675 -13.425461 -9.517883 -17.072418c-5.009186 -3.6571198 -10.861389 -4.906662 -17.55664 -3.7486267z" fill-rule="evenodd"></path><path stroke="#ffffff" stroke-width="1.0" stroke-linejoin="round" stroke-linecap="butt" d="m308.67758 173.22186c-4.1883545 0.7244415 -7.894928 2.3836212 -11.11969 4.9775085c-3.216339 2.5819397 -5.3547363 5.9954987 -6.4151917 10.240662c-1.0604858 4.245178 -1.1359558 8.996933 -0.22644043 14.25528c1.4065857 8.132095 4.509918 14.029053 9.309998 17.690872c4.808502 3.6498566 10.545105 4.898407 17.209778 3.7456512c5.3194885 -0.9200897 9.530151 -3.2751923 12.631989 -7.0652924c3.11026 -3.802063 4.6248474 -8.577087 4.5437317 -14.325073l-8.299255 0.34921265c0.1329956 4.227661 -0.71395874 7.5227966 -2.5408325 9.885391c-1.8269043 2.3626099 -4.3606567 3.824173 -7.6012573 4.3846893c-4.035492 0.69799805 -7.563141 -0.2189331 -10.582977 -2.7507935c-3.019806 -2.5318604 -5.09552 -7.0689697 -6.227112 -13.611328c-1.1157532 -6.450653 -0.63165283 -11.388535 1.4522705 -14.81366c2.0821533 -3.435318 5.202118 -5.5125427 9.359894 -6.2317047c2.7514648 -0.47590637 5.238098 -0.055862427 7.459839 1.2601166c2.231964 1.314209 4.0130005 3.540802 5.3430786 6.6797943l7.810974 -2.6262207c-1.7990723 -4.758133 -4.6109924 -8.181335 -8.435699 -10.269608c-3.826477 -2.098465 -8.384186 -2.6902924 -13.673096 -1.7754974z" fill-rule="evenodd"></path><path stroke="#ffffff" stroke-width="1.0" stroke-linejoin="round" stroke-linecap="butt" d="m371.44086 188.48396l0.52349854 3.0266113c0.62927246 3.6380463 0.66186523 6.4661865 0.097839355 8.4844055c-0.74398804 2.6161194 -2.2333984 4.83638 -4.468231 6.6608124c-2.2366028 1.8142395 -4.944641 2.9963226 -8.124115 3.5462646c-3.2100525 0.5552368 -5.7776184 0.24365234 -7.7026978 -0.9347229c-1.9148865 -1.18013 -3.0627136 -2.8707886 -3.4434204 -5.0719604c-0.24853516 -1.4368744 -0.0920105 -2.807373 0.4696045 -4.1114807c0.55981445 -1.3143005 1.4900208 -2.3988037 2.7905579 -3.253479c1.3005371 -0.8546753 3.6052551 -1.8200684 6.9141235 -2.896164c5.8440247 -1.8924408 10.158325 -3.709198 12.942841 -5.450287zm-14.887726 -23.542908c-4.1883545 0.7244415 -7.7726746 1.9373932 -10.75296 3.6388702c-2.9820862 1.6912842 -5.1296387 3.7472687 -6.442688 6.167938c-1.3148499 2.4104767 -2.0403442 5.406479 -2.1765442 8.987991l8.261322 -0.29541016c0.2890625 -3.607956 1.2386475 -6.2491302 2.8486938 -7.923523c1.6185303 -1.6863403 4.3690796 -2.8652802 8.251709 -3.53685c4.157776 -0.7191467 7.452667 -0.3287201 9.884705 1.1712952c1.7971191 1.1060486 2.9865112 3.3405304 3.5681763 6.70343c0.052856445 0.30570984 0.16183472 1.0267944 0.3269348 2.1632385c-2.9585571 1.6452332 -7.701416 3.4416656 -14.228607 5.389282c-3.202423 0.9632416 -5.5768127 1.798996 -7.1230774 2.507248c-2.0954285 0.99217224 -3.9215088 2.2368622 -5.478241 3.7341003c-1.5465698 1.4954681 -2.6940613 3.3259888 -3.4425354 5.491577c-0.73999023 2.1536102 -0.9037781 4.4227295 -0.491333 6.8073273c0.7032776 4.0660553 2.7182922 7.160034 6.045044 9.281967c3.3250122 2.1117249 7.6625366 2.704895 13.012604 1.7795258c3.240631 -0.56051636 6.1798096 -1.6199036 8.817535 -3.1781616c2.6479187 -1.5600281 5.2757263 -3.9037323 7.8834534 -7.031128c0.6411438 2.250595 1.5378113 4.157852 2.6899414 5.721817l8.621277 -1.4911804c-1.3619995 -1.6850891 -2.3967285 -3.5107574 -3.1041565 -5.4769897c-0.69903564 -1.9781952 -1.7121582 -6.8040466 -3.0393982 -14.47757l-1.903656 -11.005844c-0.6345215 -3.6686096 -1.2109985 -6.1822815 -1.7294006 -7.540985c-0.8804321 -2.1777039 -2.059906 -3.8996124 -3.5383606 -5.165741c-1.4801941 -1.2763062 -3.6042175 -2.1788788 -6.37204 -2.707718c-2.7678223 -0.52882385 -6.2306213 -0.4336548 -10.388397 0.28549194z" fill-rule="evenodd"></path><path stroke="#ffffff" stroke-width="1.0" stroke-linejoin="round" stroke-linecap="butt" d="m384.9975 142.07391l11.628052 67.227356l8.254395 -1.4277191l-11.628052 -67.22737z" fill-rule="evenodd"></path><path stroke="#ffffff" stroke-width="1.0" stroke-linejoin="round" stroke-linecap="butt" d="m406.0921 138.42528l1.6418762 9.492538l8.254395 -1.4277344l-1.6418762 -9.492538zm3.2044373 18.526505l8.423584 48.70085l8.254425 -1.4277191l-8.4236145 -48.700867z" fill-rule="evenodd"></path><path stroke="#ffffff" stroke-width="1.0" stroke-linejoin="round" stroke-linecap="butt" d="m427.5938 153.78699l1.1580505 6.695221l19.856415 -3.4344788c2.6903381 -0.46533203 5.777527 -1.0937653 9.261566 -1.8852997l0 0l-24.844818 40.947464l1.1580505 6.695221l43.106354 -7.455902l-1.2294312 -7.1079407l-22.516174 3.894516c-3.240631 0.56051636 -6.686737 1.2982635 -10.338348 2.2132416l4.1145935 -6.52092l21.022217 -35.468872l-0.9439087 -5.457062z" fill-rule="evenodd"></path><path stroke="#ffffff" stroke-width="1.0" stroke-linejoin="round" stroke-linecap="butt" d="m512.36194 164.1095l0.52349854 3.0266113c0.6292114 3.6380463 0.66186523 6.4661713 0.097839355 8.4844055c-0.74401855 2.6161041 -2.233429 4.83638 -4.4682617 6.6608124c-2.2366028 1.8142395 -4.944641 2.9963226 -8.124115 3.5462646c-3.2100525 0.55522156 -5.777588 0.24365234 -7.7026978 -0.9347229c-1.9148865 -1.18013 -3.062683 -2.8707886 -3.4434204 -5.0719604c-0.24853516 -1.4368744 -0.0920105 -2.807373 0.4696045 -4.1114807c0.55981445 -1.3143158 1.4900208 -2.3988037 2.7905579 -3.253479c1.3005676 -0.8546753 3.6052551 -1.8200684 6.9141235 -2.896164c5.844055 -1.8924408 10.158325 -3.709198 12.942871 -5.450287zm-14.887756 -23.542908c-4.1883545 0.7244415 -7.7726746 1.9373932 -10.75296 3.6388702c-2.9820557 1.6912842 -5.1296387 3.7472687 -6.442688 6.167938c-1.3148193 2.4104767 -2.0403442 5.4064636 -2.1765442 8.987991l8.261353 -0.29541016c0.28903198 -3.6079712 1.238617 -6.2491455 2.8486938 -7.923523c1.6184998 -1.6863403 4.369049 -2.8652802 8.251678 -3.53685c4.157776 -0.7191467 7.452667 -0.3287201 9.884705 1.1712952c1.7971191 1.1060486 2.9865112 3.3405304 3.5681763 6.70343c0.052886963 0.30570984 0.16186523 1.0267944 0.3269348 2.1632385c-2.9585266 1.6452332 -7.701416 3.4416656 -14.228577 5.389282c-3.2024536 0.9632416 -5.5768127 1.798996 -7.123108 2.507248c-2.095398 0.99217224 -3.9214783 2.2368622 -5.478241 3.7341003c-1.5465698 1.4954681 -2.6940613 3.3259888 -3.442505 5.491577c-0.74002075 2.1536102 -0.9038086 4.4227295 -0.49136353 6.8073273c0.7033081 4.0660553 2.7183228 7.160034 6.0450745 9.281952c3.3249817 2.11174 7.662506 2.7049103 13.012604 1.779541c3.2406006 -0.56051636 6.179779 -1.6199036 8.817505 -3.1781616c2.6479187 -1.5600281 5.275757 -3.9037323 7.883484 -7.031128c0.6411133 2.2505798 1.5377808 4.157852 2.6899414 5.721817l8.621216 -1.4911804c-1.3619995 -1.6850891 -2.3966675 -3.5107574 -3.104126 -5.4769897c-0.6989746 -1.9781952 -1.7121582 -6.8040466 -3.0393677 -14.47757l-1.9036865 -11.005844c-0.6345215 -3.6686096 -1.2109985 -6.1822815 -1.7293701 -7.540985c-0.8804321 -2.1777039 -2.0599365 -3.8996277 -3.538391 -5.165741c-1.4802246 -1.2763214 -3.6042175 -2.1788788 -6.37204 -2.707718c-2.7678223 -0.52882385 -6.2306213 -0.4336548 -10.388397 0.28549194z" fill-rule="evenodd"></path><path stroke="#ffffff" stroke-width="1.0" stroke-linejoin="round" stroke-linecap="butt" d="m536.0856 117.49947l-7.3518677 6.3724213l2.0860596 12.06057l-6.0532227 1.0469971l1.1104126 6.4200897l6.0532227 -1.0470123l4.8463745 28.019058c0.8566284 4.9526215 1.755188 8.145248 2.6956787 9.577896c0.93878174 1.4224396 2.3155518 2.4647522 4.13031 3.1269379c1.8148193 0.66218567 4.220276 0.7341614 7.2163086 0.21595764c1.8342896 -0.317276 3.8709106 -0.9214325 6.109741 -1.8124542l-2.4534912 -7.085144c-1.4609985 0.473114 -2.6500854 0.7889862 -3.5671997 0.9476166c-1.2229004 0.21151733 -2.1998901 0.17584229 -2.9310303 -0.10702515c-0.72094727 -0.2846222 -1.2873535 -0.7376709 -1.6992188 -1.3591309c-0.40167236 -0.62323 -0.8060913 -2.111847 -1.2132568 -4.4658813l-4.925659 -28.477615l8.300293 -1.435669l-1.1104736 -6.4200745l-8.300232 1.435669l-2.942749 -17.013206z" fill-rule="evenodd"></path><path stroke="#ffffff" stroke-width="1.0" stroke-linejoin="round" stroke-linecap="butt" d="m552.24097 113.14658l1.6418457 9.492538l8.254395 -1.4277267l-1.6418457 -9.492538zm3.2044067 18.526497l8.423584 48.700867l8.254456 -1.4277344l-8.423645 -48.70085z" fill-rule="evenodd"></path><path stroke="#ffffff" stroke-width="1.0" stroke-linejoin="round" stroke-linecap="butt" d="m597.02106 130.38564c4.06604 -0.7032776 7.7333984 0.26293945 11.002075 2.898697c3.2771606 2.6237946 5.4365234 6.947006 6.4782715 12.96965c1.1051636 6.389511 0.56695557 11.378738 -1.614563 14.967682c-2.1815186 3.5889435 -5.3206177 5.7377014 -9.417236 6.446274c-4.1271973 0.7138672 -7.819153 -0.24287415 -11.075928 -2.8701935c-3.258484 -2.6375122 -5.427124 -7.074585 -6.5057983 -13.3112335c-1.0787354 -6.2366333 -0.52471924 -11.134155 1.6621094 -14.69252c2.1868286 -3.5583649 5.343811 -5.6944885 9.471069 -6.4083557zm-1.1818848 -6.832794c-6.022644 1.0417175 -10.816162 3.7285233 -14.380554 8.06044c-4.2628784 5.2084045 -5.61438 12.321945 -4.0544434 21.340622c1.4224243 8.223816 4.611023 14.158493 9.565674 17.804062c4.964905 3.6437988 10.85614 4.8760986 17.673645 3.6969147c4.2495117 -0.73501587 7.9959717 -2.4063416 11.239319 -5.0139465c3.253601 -2.609375 5.5076904 -5.869766 6.762329 -9.781174c1.2630615 -3.9233704 1.3526001 -9.0186615 0.2685547 -15.285873c-1.3378296 -7.734665 -4.510437 -13.425476 -9.517883 -17.07241c-5.0091553 -3.657135 -10.861389 -4.9066772 -17.55664 -3.7486343z" fill-rule="evenodd"></path><path stroke="#ffffff" stroke-width="1.0" stroke-linejoin="round" stroke-linecap="butt" d="m651.2354 113.971214c-6.7563477 1.1686172 -11.460327 4.737297 -14.111877 10.706047l-1.1976929 -6.924515l-7.428955 1.2849579l8.423584 48.700867l8.254395 -1.4277344l-4.600464 -26.597458c-1.0786743 -6.2366486 -0.53723145 -10.691162 1.6243896 -13.363564c2.171875 -2.6741562 5.015625 -4.3152924 8.531433 -4.9233932c2.2011719 -0.38072968 4.203369 -0.21276855 6.006592 0.503891c1.8116455 0.7047043 3.1830444 1.8371658 4.1141357 3.397377c0.9293213 1.5500259 1.6848145 4.0064774 2.2664795 7.369377l5.1239014 29.62407l8.254456 -1.4277344l-5.1795044 -29.945068c-0.6609497 -3.8214645 -1.2765503 -6.4700623 -1.8466187 -7.9457703c-0.8963623 -2.2694244 -2.104004 -4.1543884 -3.6229858 -5.654892c-1.5189819 -1.5005035 -3.602356 -2.562294 -6.25 -3.1853714c-2.6392822 -0.63503265 -5.4263306 -0.69872284 -8.361267 -0.19108582z" fill-rule="evenodd"></path><path fill="#606c71" d="m358.71573 240.45242c-7.1033325 1.2286072 -12.048828 4.9805145 -14.836517 11.255753l-1.2591858 -7.2800903l-7.8104553 1.3509216l8.855988 51.201614l8.678284 -1.5010071l-4.836609 -27.963226c-1.1340942 -6.556885 -0.56481934 -11.240143 1.7078247 -14.049759c2.2833557 -2.8114777 5.273163 -4.536865 8.969482 -5.176193c2.314209 -0.40026855 4.41922 -0.22366333 6.315033 0.5298004c1.9046936 0.7408905 3.3464966 1.9315033 4.3253784 3.5718384c0.97702026 1.6296082 1.7713013 4.212204 2.382843 7.7477875l5.386963 31.145264l8.678253 -1.5010376l-5.445343 -31.482727c-0.6949158 -4.0177 -1.342041 -6.802307 -1.9414368 -8.35379c-0.9423218 -2.3859558 -2.2120056 -4.3677063 -3.8089905 -5.9452667c-1.5969849 -1.5775604 -3.7872925 -2.6938782 -6.570923 -3.3489685c-2.7747803 -0.66763306 -5.7049866 -0.73461914 -8.790588 -0.20091248z" fill-rule="evenodd"></path><path fill="#606c71" d="m410.09933 238.96355c3.9534302 -0.6838074 7.563629 0.3800354 10.830566 3.1914978c3.2669678 2.8114624 5.5064087 7.720642 6.7183228 14.727524c1.100769 6.364044 0.5913086 11.329346 -1.5283508 14.895935c-2.1107788 3.5540466 -5.0625305 5.6590576 -8.855255 6.3150635c-3.7605896 0.65042114 -7.303711 -0.40844727 -10.629395 -3.1766663c-3.3256836 -2.7681885 -5.5555725 -7.4307556 -6.6896667 -13.98764c-1.1730347 -6.781891 -0.74090576 -11.971069 1.2963257 -15.567551c2.0479736 -3.5983276 5.0004272 -5.7310486 8.857452 -6.398163zm8.895355 -27.805954l4.3862915 25.359756c-1.8720093 -1.8279266 -4.125458 -3.1815948 -6.760315 -4.06102c-2.6366882 -0.890152 -5.497864 -1.0683746 -8.583466 -0.5346832c-4.2105713 0.7282715 -7.827545 2.4959412 -10.850983 5.302994c-3.0234375 2.8070679 -5.0264893 6.4417725 -6.0091248 10.904114c-0.9845276 4.4516296 -1.03479 9.232697 -0.1508789 14.343231c0.90618896 5.2390747 2.6460266 9.716034 5.2196045 13.430878c2.5823975 3.7022705 5.777069 6.382782 9.583954 8.041565c3.8175964 1.6569214 7.767395 2.1323547 11.849396 1.4263306c6.299774 -1.0896301 10.633636 -4.454376 13.001587 -10.094238l1.1174011 6.4604797l8.051514 -1.3926086l-12.224945 -70.679474z" fill-rule="evenodd"></path><path stroke="#ffffff" stroke-width="1.0" stroke-linejoin="round" stroke-linecap="butt" d="m358.71573 240.45242c-7.1033325 1.2286072 -12.048828 4.9805145 -14.836517 11.255753l-1.2591858 -7.2800903l-7.8104553 1.3509216l8.855988 51.201614l8.678284 -1.5010071l-4.836609 -27.963226c-1.1340942 -6.556885 -0.56481934 -11.240143 1.7078247 -14.049759c2.2833557 -2.8114777 5.273163 -4.536865 8.969482 -5.176193c2.314209 -0.40026855 4.41922 -0.22366333 6.315033 0.5298004c1.9046936 0.7408905 3.3464966 1.9315033 4.3253784 3.5718384c0.97702026 1.6296082 1.7713013 4.212204 2.382843 7.7477875l5.386963 31.145264l8.678253 -1.5010376l-5.445343 -31.482727c-0.6949158 -4.0177 -1.342041 -6.802307 -1.9414368 -8.35379c-0.9423218 -2.3859558 -2.2120056 -4.3677063 -3.8089905 -5.9452667c-1.5969849 -1.5775604 -3.7872925 -2.6938782 -6.570923 -3.3489685c-2.7747803 -0.66763306 -5.7049866 -0.73461914 -8.790588 -0.20091248z" fill-rule="evenodd"></path><path stroke="#ffffff" stroke-width="1.0" stroke-linejoin="round" stroke-linecap="butt" d="m410.09933 238.96355c3.9534302 -0.6838074 7.563629 0.3800354 10.830566 3.1914978c3.2669678 2.8114624 5.5064087 7.720642 6.7183228 14.727524c1.100769 6.364044 0.5913086 11.329346 -1.5283508 14.895935c-2.1107788 3.5540466 -5.0625305 5.6590576 -8.855255 6.3150635c-3.7605896 0.65042114 -7.303711 -0.40844727 -10.629395 -3.1766663c-3.3256836 -2.7681885 -5.5555725 -7.4307556 -6.6896667 -13.98764c-1.1730347 -6.781891 -0.74090576 -11.971069 1.2963257 -15.567551c2.0479736 -3.5983276 5.0004272 -5.7310486 8.857452 -6.398163zm8.895355 -27.805954l4.3862915 25.359756c-1.8720093 -1.8279266 -4.125458 -3.1815948 -6.760315 -4.06102c-2.6366882 -0.890152 -5.497864 -1.0683746 -8.583466 -0.5346832c-4.2105713 0.7282715 -7.827545 2.4959412 -10.850983 5.302994c-3.0234375 2.8070679 -5.0264893 6.4417725 -6.0091248 10.904114c-0.9845276 4.4516296 -1.03479 9.232697 -0.1508789 14.343231c0.90618896 5.2390747 2.6460266 9.716034 5.2196045 13.430878c2.5823975 3.7022705 5.777069 6.382782 9.583954 8.041565c3.8175964 1.6569214 7.767395 2.1323547 11.849396 1.4263306c6.299774 -1.0896301 10.633636 -4.454376 13.001587 -10.094238l1.1174011 6.4604797l8.051514 -1.3926086l-12.224945 -70.679474z" fill-rule="evenodd"></path><path fill="#f3f6fa" d="m0.5407948 22.511368l32.87106 84.839554l11.516445 0l33.218285 -84.839554l-11.458572 0l-22.917145 61.633102c-1.7361488 4.629715 -3.2600975 9.25943 -4.5718536 13.889145c-1.1960144 -4.321068 -2.681385 -8.950783 -4.456112 -13.889145l-22.049074 -61.633102z" fill-rule="evenodd"></path><path fill="#ffffff" d="m310.34808 255.61098l0 5.0445404c0 6.0635986 -0.7388611 10.649536 -2.2165527 13.757782c-1.9362793 4.025421 -4.968109 7.201599 -9.095428 9.528534c-4.12735 2.3099365 -8.840668 3.4649353 -14.139984 3.4649353c-5.3502502 0 -9.418152 -1.2229309 -12.203674 -3.6687622c-2.7685547 -2.4458313 -4.152832 -5.503113 -4.152832 -9.1718445c0 -2.394867 0.6369324 -4.568939 1.9107971 -6.522217c1.2738647 -1.9702454 3.0827637 -3.4649353 5.426697 -4.484009c2.343933 -1.019104 6.343872 -1.9362793 11.999878 -2.7515564c9.987152 -1.4267578 17.477509 -3.1592102 22.4711 -5.197403zm-17.503021 -42.266983c-6.9808044 0 -13.12085 0.95965576 -18.420166 2.8789368c-5.2993164 1.9023132 -9.35022 4.6284027 -12.1527405 8.178253c-2.8025208 3.5328674 -4.815216 8.178238 -6.038147 13.936127l13.452087 1.8343658c1.4776917 -5.757889 3.753662 -9.766327 6.827942 -12.025314c3.091278 -2.2759857 7.872528 -3.413971 14.343811 -3.413971c6.92984 0 12.15271 1.5541077 15.66861 4.6623535c2.5986938 2.2929688 3.8980408 6.2419586 3.8980408 11.846985c0 0.509552 -0.025482178 1.7069855 -0.076416016 3.5923157c-5.248352 1.8343658 -13.426605 3.413971 -24.53479 4.7388c-5.4521484 0.6623993 -9.528534 1.350296 -12.2291565 2.0636597c-3.6687622 1.019104 -6.9723206 2.5222626 -9.910706 4.509491c-2.9214172 1.9872437 -5.2908325 4.6283875 -7.1082153 7.923462c-1.8003998 3.2781067 -2.7006073 6.9043884 -2.7006073 10.878845c0 6.777008 2.3948822 12.348053 7.1846466 16.713196c4.789734 4.348114 11.643188 6.5221863 20.560272 6.5221863c5.4012146 0 10.454254 -0.8916931 15.159088 -2.6751099c4.7218018 -1.7834167 9.630463 -4.8406982 14.725952 -9.171875c0.4076233 3.8216248 1.3248291 7.159149 2.7515564 10.012634l14.369263 0c-1.7324524 -3.1082458 -2.895935 -6.3523865 -3.4904175 -9.732361c-0.57748413 -3.3970032 -0.86621094 -11.490326 -0.86621094 -24.279968l0 -18.34372c0 -6.114563 -0.22930908 -10.343811 -0.6878967 -12.687729c-0.8152771 -3.7706604 -2.2420044 -6.88739 -4.2802124 -9.350204c-2.038208 -2.4797974 -5.22287 -4.534973 -9.554047 -6.1655273c-4.3311462 -1.6305542 -9.96167 -2.4458313 -16.89154 -2.4458313z" fill-rule="evenodd"></path><path fill="#ffffff" d="m356.0248 274.52448l0 84.83954l10.821991 0l0 -72.22357l24.537537 72.22357l10.127533 0l24.65329 -71.00827l0 71.00827l10.821991 0l0 -84.83954l-15.104492 0l-20.312897 59.02887c-2.0447998 5.980072 -3.549469 10.513336 -4.5140076 13.5997925c-0.8487854 -2.777832 -2.1990967 -6.963867 -4.050995 -12.558105l-20.081451 -60.070557z" fill-rule="evenodd"></path><path fill="#606c71" d="m476.65106 311.2955l0.5030823 2.9085388c0.6047058 3.4961243 0.63604736 6.213928 0.09402466 8.153412c-0.7149658 2.5140686 -2.1462708 4.647705 -4.293915 6.4009705c-2.149353 1.7434387 -4.7517395 2.879425 -7.80719 3.407898c-3.0848083 0.53356934 -5.552185 0.23413086 -7.4021606 -0.8982544c-1.8401794 -1.1341248 -2.9432068 -2.7588196 -3.309082 -4.874115c-0.23883057 -1.3808289 -0.088409424 -2.6978455 0.45126343 -3.9510803c0.5379944 -1.263031 1.4319153 -2.3052368 2.6817017 -3.1265564c1.2498169 -0.8213501 3.4646301 -1.749054 6.644409 -2.7831726c5.616028 -1.8186035 9.761993 -3.5644836 12.437866 -5.2376404zm-14.306854 -22.624512c-4.0249634 0.6961975 -7.469452 1.8618164 -10.333466 3.4969177c-2.8657227 1.6253052 -4.9295044 3.6010742 -6.191345 5.927307c-1.2635193 2.3164368 -1.9607544 5.1955566 -2.0916138 8.63736l7.939026 -0.2838745c0.277771 -3.4672241 1.1903076 -6.0053406 2.7375488 -7.6144104c1.5553589 -1.6205444 4.198639 -2.7535095 7.929779 -3.3988647c3.995575 -0.6911011 7.1619263 -0.31588745 9.499054 1.1256104c1.7269897 1.0628967 2.869995 3.210205 3.428955 6.441925c0.050811768 0.29379272 0.1555481 0.98672485 0.31417847 2.0788574c-2.8431091 1.5810547 -7.40094 3.307373 -13.673462 5.179016c-3.0775146 0.9256592 -5.359253 1.7287903 -6.845215 2.4094238c-2.0136719 0.9534607 -3.7684937 2.1495972 -5.2645264 3.5884094c-1.486206 1.4371338 -2.5889587 3.1962585 -3.308197 5.2773438c-0.7111511 2.0696106 -0.8685608 4.250183 -0.4721985 6.5417786c0.6758423 3.9074097 2.6122437 6.880707 5.809204 8.919861c3.195282 2.029358 7.3635864 2.5993958 12.504944 1.7101135c3.1141663 -0.53863525 5.93869 -1.5567017 8.473511 -3.0541687c2.5446167 -1.4991455 5.069916 -3.7514038 7.575897 -6.7568054c0.6161499 2.1627808 1.4778137 3.9956665 2.5849915 5.498596l8.284912 -1.4329834c-1.3088684 -1.6193542 -2.3031921 -3.3738098 -2.9830322 -5.263336c-0.6717529 -1.9010315 -1.6453247 -6.5386047 -2.920807 -13.912781l-1.8293457 -10.576508c-0.60980225 -3.5254822 -1.1637573 -5.941101 -1.6619263 -7.2467957c-0.84609985 -2.092743 -1.9795532 -3.7474976 -3.4003296 -4.9642334c-1.4224548 -1.2265015 -3.4635925 -2.093872 -6.1234436 -2.6020813c-2.659851 -0.5082092 -5.987549 -0.41674805 -9.983093 0.2743225z" fill-rule="evenodd"></path><path fill="#606c71" d="m513.8776 286.15714c3.40802 -0.589447 6.5927124 0.38772583 9.55426 2.9315796c2.9712524 2.5421143 4.9727173 6.7951965 6.0042114 12.759155c1.0823975 6.2577515 0.6234741 11.097717 -1.376709 14.519928c-1.9920654 3.4107056 -4.7508545 5.4209595 -8.276367 6.0307617c-3.4667358 0.5996094 -6.668335 -0.32928467 -9.604828 -2.7866516c-2.936432 -2.4573975 -4.925537 -6.6974487 -5.9672546 -12.720184c-1.0417175 -6.0227356 -0.5376892 -10.835205 1.5120239 -14.437439c2.0578613 -3.6137085 4.776062 -5.7127686 8.154663 -6.2971497zm-0.32556152 -6.3432617c-3.05542 0.5284729 -5.5521545 1.5755615 -7.490204 3.1412659c-1.9396973 1.5559387 -3.5557556 3.671112 -4.8481445 6.3455505l-1.0518799 -6.081482l-7.2272644 1.250061l11.197174 64.73694l7.9323425 -1.3720093l-3.9407043 -22.783539c1.6461487 1.4702454 3.6136475 2.5823364 5.9024353 3.3362427c2.298645 0.7522583 4.7700195 0.8996887 7.4141235 0.4423523c3.6136475 -0.6250305 6.8796997 -2.2388916 9.798279 -4.8415833c2.9266968 -2.6141968 4.9157104 -5.9840393 5.967224 -10.109558c1.0595703 -4.1369934 1.1752319 -8.599884 0.34692383 -13.388672c-0.77233887 -4.465637 -2.26062 -8.434265 -4.4647827 -11.905884c-2.2058105 -3.4814148 -5.0143433 -5.9861755 -8.425476 -7.514221c-3.4111328 -1.5280762 -7.114502 -1.9465637 -11.110046 -1.2554626z" fill-rule="evenodd"></path><path fill="#606c71" d="m564.0719 277.47534c3.40802 -0.58947754 6.5927124 0.38772583 9.55426 2.931549c2.9712524 2.5421448 4.9727173 6.7951965 6.0042725 12.759155c1.0823364 6.2577515 0.6234131 11.097748 -1.37677 14.519928c-1.9920654 3.410736 -4.7508545 5.4209595 -8.276367 6.0307617c-3.4667358 0.5996094 -6.668335 -0.32925415 -9.604797 -2.7866516c-2.9364624 -2.4573975 -4.925537 -6.6974487 -5.967285 -12.720184c-1.041687 -6.022705 -0.5377197 -10.835205 1.5120239 -14.437439c2.0578613 -3.6137085 4.776062 -5.7127686 8.154663 -6.297119zm-0.32556152 -6.343292c-3.05542 0.5285034 -5.552185 1.575592 -7.4901733 3.1412964c-1.9397583 1.5559082 -3.5557861 3.6710815 -4.8481445 6.34552l-1.0518799 -6.081482l-7.227295 1.250061l11.197144 64.73697l7.932373 -1.3720398l-3.9407349 -22.783508c1.6461792 1.4702148 3.6137085 2.582306 5.902527 3.3362427c2.298584 0.7522278 4.7699585 0.8996582 7.4140625 0.44232178c3.6136475 -0.6250305 6.8797607 -2.2388916 9.798279 -4.8415833c2.9266968 -2.6141968 4.9157715 -5.9840393 5.967224 -10.109528c1.0595703 -4.137024 1.1752319 -8.599915 0.34698486 -13.388702c-0.7723999 -4.465637 -2.2606812 -8.434265 -4.4648438 -11.905884c-2.2058105 -3.4814148 -5.0143433 -5.986145 -8.425476 -7.514221c-3.4111328 -1.5280457 -7.114502 -1.9465332 -11.110046 -1.2554626z" fill-rule="evenodd"></path><path fill="#606c71" d="m590.2878 249.29424l1.5778198 9.122238l7.932373 -1.3720398l-1.5778198 -9.122223zm3.0794067 17.803757l8.09491 46.800995l7.932373 -1.3720093l-8.09491 -46.800995z" fill-rule="evenodd"></path><path fill="#606c71" d="m635.2258 258.76868c-6.492798 1.1230164 -11.013245 4.5524597 -13.56134 10.288361l-1.15094 -6.6543884l-7.13916 1.2348328l8.09491 46.800995l7.932373 -1.3720398l-4.4209595 -25.559845c-1.0366211 -5.993347 -0.5162964 -10.274109 1.5610352 -12.842255c2.0870972 -2.5698242 4.8199463 -4.1469116 8.198547 -4.7312927c2.1152954 -0.36587524 4.0393677 -0.20446777 5.772278 0.48425293c1.7409668 0.6772156 3.058838 1.7654724 3.9536133 3.2648315c0.8930664 1.489563 1.6190796 3.8501892 2.1780396 7.0818787l4.924011 28.468414l7.932373 -1.3720093l-4.977356 -28.776886c-0.6351929 -3.6723938 -1.2267456 -6.2176514 -1.7745972 -7.635803c-0.86138916 -2.1809082 -2.0219116 -3.9923096 -3.4816284 -5.4342957c-1.4597168 -1.4419556 -3.461792 -2.4623413 -6.0061646 -3.0611267c-2.536316 -0.61026 -5.2146606 -0.6714783 -8.035034 -0.18362427z" fill-rule="evenodd"></path><path fill="#606c71" d="m682.32526 257.38483c3.5842285 -0.6199341 6.896118 0.30499268 9.935547 2.7748413c3.0493164 2.4681091 5.069397 6.5666504 6.0603027 12.295593c1.0366211 5.993347 0.5640869 10.608734 -1.4176636 13.846191c-1.9833984 3.2276611 -4.796631 5.156555 -8.439636 5.786682c-3.6723633 0.6351929 -6.9717407 -0.24655151 -9.89801 -2.645172c-2.9263306 -2.3986206 -4.920471 -6.6680603 -5.982544 -12.808319c-0.975647 -5.6407776 -0.47686768 -10.104401 1.4963989 -13.390808c1.9715576 -3.2962036 4.720093 -5.2492065 8.245605 -5.859009zm-1.7086182 -6.467148c-4.142456 0.71650696 -7.5733643 2.3689575 -10.292664 4.957367c-2.7095337 2.5867157 -4.545288 5.9098663 -5.507324 9.969467c-0.9637451 4.0498047 -1.0593872 8.307526 -0.2869873 12.773163c1.1229858 6.492798 3.8486938 11.755249 8.177063 15.787384c4.32843 4.0321045 9.709595 5.4917297 16.143677 4.3788757c5.1707153 -0.89434814 9.1362915 -3.6831665 11.8966675 -8.366516l0 0c0.9237671 5.1656494 1.3197021 8.59198 1.1878662 10.278992c-0.2477417 2.7660522 -1.2434692 5.056366 -2.9871826 6.8708496c-1.7437134 1.8145142 -4.451782 3.0393677 -8.1241455 3.6745605c-3.40802 0.589447 -6.2232056 0.3199463 -8.445679 -0.80856323c-1.6569824 -0.8329468 -2.8529053 -2.411316 -3.5876465 -4.735138l-7.9102173 0.18811035l0 0c0.75653076 5.0735474 3.0702515 8.566559 6.941223 10.479034c3.8726807 1.9222717 8.600037 2.4006653 14.182129 1.4351807c4.7006226 -0.8130493 8.504578 -2.3787537 11.411804 -4.6970825c2.9170532 -2.3200378 4.8515015 -5.1307373 5.803467 -8.432159c0.963501 -3.2933044 0.8150635 -8.582977 -0.4451294 -15.868988l-6.9973145 -40.45511l-7.3153687 1.2653046l0.975647 5.640793c-4.3566895 -3.8456726 -9.296631 -5.290848 -14.819885 -4.3355255z" fill-rule="evenodd"></path><path stroke="#ffffff" stroke-width="1.0" stroke-linejoin="round" stroke-linecap="butt" d="m476.65106 311.2955l0.5030823 2.9085388c0.6047058 3.4961243 0.63604736 6.213928 0.09402466 8.153412c-0.7149658 2.5140686 -2.1462708 4.647705 -4.293915 6.4009705c-2.149353 1.7434387 -4.7517395 2.879425 -7.80719 3.407898c-3.0848083 0.53356934 -5.552185 0.23413086 -7.4021606 -0.8982544c-1.8401794 -1.1341248 -2.9432068 -2.7588196 -3.309082 -4.874115c-0.23883057 -1.3808289 -0.088409424 -2.6978455 0.45126343 -3.9510803c0.5379944 -1.263031 1.4319153 -2.3052368 2.6817017 -3.1265564c1.2498169 -0.8213501 3.4646301 -1.749054 6.644409 -2.7831726c5.616028 -1.8186035 9.761993 -3.5644836 12.437866 -5.2376404zm-14.306854 -22.624512c-4.0249634 0.6961975 -7.469452 1.8618164 -10.333466 3.4969177c-2.8657227 1.6253052 -4.9295044 3.6010742 -6.191345 5.927307c-1.2635193 2.3164368 -1.9607544 5.1955566 -2.0916138 8.63736l7.939026 -0.2838745c0.277771 -3.4672241 1.1903076 -6.0053406 2.7375488 -7.6144104c1.5553589 -1.6205444 4.198639 -2.7535095 7.929779 -3.3988647c3.995575 -0.6911011 7.1619263 -0.31588745 9.499054 1.1256104c1.7269897 1.0628967 2.869995 3.210205 3.428955 6.441925c0.050811768 0.29379272 0.1555481 0.98672485 0.31417847 2.0788574c-2.8431091 1.5810547 -7.40094 3.307373 -13.673462 5.179016c-3.0775146 0.9256592 -5.359253 1.7287903 -6.845215 2.4094238c-2.0136719 0.9534607 -3.7684937 2.1495972 -5.2645264 3.5884094c-1.486206 1.4371338 -2.5889587 3.1962585 -3.308197 5.2773438c-0.7111511 2.0696106 -0.8685608 4.250183 -0.4721985 6.5417786c0.6758423 3.9074097 2.6122437 6.880707 5.809204 8.919861c3.195282 2.029358 7.3635864 2.5993958 12.504944 1.7101135c3.1141663 -0.53863525 5.93869 -1.5567017 8.473511 -3.0541687c2.5446167 -1.4991455 5.069916 -3.7514038 7.575897 -6.7568054c0.6161499 2.1627808 1.4778137 3.9956665 2.5849915 5.498596l8.284912 -1.4329834c-1.3088684 -1.6193542 -2.3031921 -3.3738098 -2.9830322 -5.263336c-0.6717529 -1.9010315 -1.6453247 -6.5386047 -2.920807 -13.912781l-1.8293457 -10.576508c-0.60980225 -3.5254822 -1.1637573 -5.941101 -1.6619263 -7.2467957c-0.84609985 -2.092743 -1.9795532 -3.7474976 -3.4003296 -4.9642334c-1.4224548 -1.2265015 -3.4635925 -2.093872 -6.1234436 -2.6020813c-2.659851 -0.5082092 -5.987549 -0.41674805 -9.983093 0.2743225z" fill-rule="evenodd"></path><path stroke="#ffffff" stroke-width="1.0" stroke-linejoin="round" stroke-linecap="butt" d="m513.8776 286.15714c3.40802 -0.589447 6.5927124 0.38772583 9.55426 2.9315796c2.9712524 2.5421143 4.9727173 6.7951965 6.0042114 12.759155c1.0823975 6.2577515 0.6234741 11.097717 -1.376709 14.519928c-1.9920654 3.4107056 -4.7508545 5.4209595 -8.276367 6.0307617c-3.4667358 0.5996094 -6.668335 -0.32928467 -9.604828 -2.7866516c-2.936432 -2.4573975 -4.925537 -6.6974487 -5.9672546 -12.720184c-1.0417175 -6.0227356 -0.5376892 -10.835205 1.5120239 -14.437439c2.0578613 -3.6137085 4.776062 -5.7127686 8.154663 -6.2971497zm-0.32556152 -6.3432617c-3.05542 0.5284729 -5.5521545 1.5755615 -7.490204 3.1412659c-1.9396973 1.5559387 -3.5557556 3.671112 -4.8481445 6.3455505l-1.0518799 -6.081482l-7.2272644 1.250061l11.197174 64.73694l7.9323425 -1.3720093l-3.9407043 -22.783539c1.6461487 1.4702454 3.6136475 2.5823364 5.9024353 3.3362427c2.298645 0.7522583 4.7700195 0.8996887 7.4141235 0.4423523c3.6136475 -0.6250305 6.8796997 -2.2388916 9.798279 -4.8415833c2.9266968 -2.6141968 4.9157104 -5.9840393 5.967224 -10.109558c1.0595703 -4.1369934 1.1752319 -8.599884 0.34692383 -13.388672c-0.77233887 -4.465637 -2.26062 -8.434265 -4.4647827 -11.905884c-2.2058105 -3.4814148 -5.0143433 -5.9861755 -8.425476 -7.514221c-3.4111328 -1.5280762 -7.114502 -1.9465637 -11.110046 -1.2554626z" fill-rule="evenodd"></path><path stroke="#ffffff" stroke-width="1.0" stroke-linejoin="round" stroke-linecap="butt" d="m564.0719 277.47534c3.40802 -0.58947754 6.5927124 0.38772583 9.55426 2.931549c2.9712524 2.5421448 4.9727173 6.7951965 6.0042725 12.759155c1.0823364 6.2577515 0.6234131 11.097748 -1.37677 14.519928c-1.9920654 3.410736 -4.7508545 5.4209595 -8.276367 6.0307617c-3.4667358 0.5996094 -6.668335 -0.32925415 -9.604797 -2.7866516c-2.9364624 -2.4573975 -4.925537 -6.6974487 -5.967285 -12.720184c-1.041687 -6.022705 -0.5377197 -10.835205 1.5120239 -14.437439c2.0578613 -3.6137085 4.776062 -5.7127686 8.154663 -6.297119zm-0.32556152 -6.343292c-3.05542 0.5285034 -5.552185 1.575592 -7.4901733 3.1412964c-1.9397583 1.5559082 -3.5557861 3.6710815 -4.8481445 6.34552l-1.0518799 -6.081482l-7.227295 1.250061l11.197144 64.73697l7.932373 -1.3720398l-3.9407349 -22.783508c1.6461792 1.4702148 3.6137085 2.582306 5.902527 3.3362427c2.298584 0.7522278 4.7699585 0.8996582 7.4140625 0.44232178c3.6136475 -0.6250305 6.8797607 -2.2388916 9.798279 -4.8415833c2.9266968 -2.6141968 4.9157715 -5.9840393 5.967224 -10.109528c1.0595703 -4.137024 1.1752319 -8.599915 0.34698486 -13.388702c-0.7723999 -4.465637 -2.2606812 -8.434265 -4.4648438 -11.905884c-2.2058105 -3.4814148 -5.0143433 -5.986145 -8.425476 -7.514221c-3.4111328 -1.5280457 -7.114502 -1.9465332 -11.110046 -1.2554626z" fill-rule="evenodd"></path><path stroke="#ffffff" stroke-width="1.0" stroke-linejoin="round" stroke-linecap="butt" d="m590.2878 249.29424l1.5778198 9.122238l7.932373 -1.3720398l-1.5778198 -9.122223zm3.0794067 17.803757l8.09491 46.800995l7.932373 -1.3720093l-8.09491 -46.800995z" fill-rule="evenodd"></path><path stroke="#ffffff" stroke-width="1.0" stroke-linejoin="round" stroke-linecap="butt" d="m635.2258 258.76868c-6.492798 1.1230164 -11.013245 4.5524597 -13.56134 10.288361l-1.15094 -6.6543884l-7.13916 1.2348328l8.09491 46.800995l7.932373 -1.3720398l-4.4209595 -25.559845c-1.0366211 -5.993347 -0.5162964 -10.274109 1.5610352 -12.842255c2.0870972 -2.5698242 4.8199463 -4.1469116 8.198547 -4.7312927c2.1152954 -0.36587524 4.0393677 -0.20446777 5.772278 0.48425293c1.7409668 0.6772156 3.058838 1.7654724 3.9536133 3.2648315c0.8930664 1.489563 1.6190796 3.8501892 2.1780396 7.0818787l4.924011 28.468414l7.932373 -1.3720093l-4.977356 -28.776886c-0.6351929 -3.6723938 -1.2267456 -6.2176514 -1.7745972 -7.635803c-0.86138916 -2.1809082 -2.0219116 -3.9923096 -3.4816284 -5.4342957c-1.4597168 -1.4419556 -3.461792 -2.4623413 -6.0061646 -3.0611267c-2.536316 -0.61026 -5.2146606 -0.6714783 -8.035034 -0.18362427z" fill-rule="evenodd"></path><path stroke="#ffffff" stroke-width="1.0" stroke-linejoin="round" stroke-linecap="butt" d="m682.32526 257.38483c3.5842285 -0.6199341 6.896118 0.30499268 9.935547 2.7748413c3.0493164 2.4681091 5.069397 6.5666504 6.0603027 12.295593c1.0366211 5.993347 0.5640869 10.608734 -1.4176636 13.846191c-1.9833984 3.2276611 -4.796631 5.156555 -8.439636 5.786682c-3.6723633 0.6351929 -6.9717407 -0.24655151 -9.89801 -2.645172c-2.9263306 -2.3986206 -4.920471 -6.6680603 -5.982544 -12.808319c-0.975647 -5.6407776 -0.47686768 -10.104401 1.4963989 -13.390808c1.9715576 -3.2962036 4.720093 -5.2492065 8.245605 -5.859009zm-1.7086182 -6.467148c-4.142456 0.71650696 -7.5733643 2.3689575 -10.292664 4.957367c-2.7095337 2.5867157 -4.545288 5.9098663 -5.507324 9.969467c-0.9637451 4.0498047 -1.0593872 8.307526 -0.2869873 12.773163c1.1229858 6.492798 3.8486938 11.755249 8.177063 15.787384c4.32843 4.0321045 9.709595 5.4917297 16.143677 4.3788757c5.1707153 -0.89434814 9.1362915 -3.6831665 11.8966675 -8.366516l0 0c0.9237671 5.1656494 1.3197021 8.59198 1.1878662 10.278992c-0.2477417 2.7660522 -1.2434692 5.056366 -2.9871826 6.8708496c-1.7437134 1.8145142 -4.451782 3.0393677 -8.1241455 3.6745605c-3.40802 0.589447 -6.2232056 0.3199463 -8.445679 -0.80856323c-1.6569824 -0.8329468 -2.8529053 -2.411316 -3.5876465 -4.735138l-7.9102173 0.18811035l0 0c0.75653076 5.0735474 3.0702515 8.566559 6.941223 10.479034c3.8726807 1.9222717 8.600037 2.4006653 14.182129 1.4351807c4.7006226 -0.8130493 8.504578 -2.3787537 11.411804 -4.6970825c2.9170532 -2.3200378 4.8515015 -5.1307373 5.803467 -8.432159c0.963501 -3.2933044 0.8150635 -8.582977 -0.4451294 -15.868988l-6.9973145 -40.45511l-7.3153687 1.2653046l0.975647 5.640793c-4.3566895 -3.8456726 -9.296631 -5.290848 -14.819885 -4.3355255z" fill-rule="evenodd"></path><path fill="#000000" fill-opacity="0.0" d="m-23.178478 133.16798l933.0079 -160.47244" fill-rule="evenodd"></path><path stroke="#159957" stroke-width="8.0" stroke-linejoin="round" stroke-linecap="butt" d="m-23.178478 133.16798l933.0079 -160.47244" fill-rule="evenodd"></path><path fill="#606c71" d="m78.17447 37.965717l1.7261658 9.979927l9.176613 -1.587246l-1.7261658 -9.979927zm3.36895 19.47773l8.855988 51.20136l9.176613 -1.5872498l-8.855995 -51.201355z" fill-rule="evenodd"></path><path fill="#606c71" d="m122.281166 49.20548c-2.820961 0.4879303 -5.40609 1.2936897 -7.755394 2.4172707c-2.3398285 1.1109123 -4.137306 2.2880096 -5.392441 3.5312996c-1.6809235 1.6148643 -2.9078827 3.4932747 -3.6808777 5.635227c-0.76351166 2.12928 -0.9479141 4.334938 -0.55319977 6.6169815c0.43362427 2.5070343 1.4986115 4.684181 3.194954 6.531433c1.7058182 1.8345795 3.9578323 3.1167603 6.75605 3.8465424c2.8076935 0.71710205 7.7152786 1.2972107 14.722755 1.740303c5.2018585 0.3250656 8.4982605 0.7645416 9.889221 1.318428c1.9959106 0.8133774 3.1634216 2.200386 3.5025482 4.1610107c0.37802124 2.1856232 -0.31173706 4.269043 -2.0693207 6.250267c-1.7594299 1.9705048 -4.7463684 3.3202362 -8.9608 4.0491943c-4.1804657 0.7230835 -7.596039 0.37042236 -10.246719 -1.0579681c-2.6393585 -1.4303589 -4.511368 -3.8210144 -5.616028 -7.1719666l-8.841156 2.919548c1.9591522 5.2555466 5.0187607 8.946976 9.178833 11.074287c4.171402 2.1253433 9.774811 2.5795746 16.810211 1.3626862c4.2484283 -0.73483276 7.9345703 -2.0896454 11.058426 -4.06443c3.1220093 -1.9855042 5.351822 -4.4070206 6.6894684 -7.2645645c1.3471069 -2.8702164 1.7704926 -5.751686 1.2701569 -8.644417c-0.51145935 -2.957016 -1.6702576 -5.305519 -3.4763947 -7.0455017c-1.8061371 -1.7399902 -4.0849457 -2.907196 -6.8364105 -3.5016174c-2.7419891 -0.6070938 -7.5005493 -1.1688309 -14.275681 -1.6852188c-4.6864777 -0.38110352 -7.516342 -0.6529999 -8.489601 -0.8156891c-1.7030334 -0.33439636 -3.0090256 -0.902977 -3.9179688 -1.7057419c-0.90338135 -0.7706299 -1.4523621 -1.7184219 -1.6469421 -2.8433762c-0.30576324 -1.7677803 0.32805634 -3.4663544 1.9014587 -5.095726c1.57341 -1.6293716 4.467331 -2.8085327 8.68177 -3.5374908c3.5686874 -0.61726 6.4552 -0.35515976 8.659546 0.78630066c2.2156677 1.1395035 3.7553558 2.9917831 4.6190796 5.556839l8.772537 -2.7090645c-1.1503906 -3.2106323 -2.660797 -5.6693497 -4.531204 -7.376152c-1.8722534 -1.7175179 -4.5171967 -2.876564 -7.934799 -3.4771423c-3.4062958 -0.60253525 -7.23365 -0.5363884 -11.482079 0.19844818z" fill-rule="evenodd"></path><path fill="#606c71" d="m156.68967 44.445675l5.4870453 31.723629c0.639328 3.6962662 1.2932434 6.3638153 1.9617462 8.002647c0.98298645 2.4451218 2.2948456 4.4305954 3.9355927 5.956436c1.650238 1.5131607 3.9575653 2.60923 6.9220123 3.2881851c2.9757843 0.67700195 6.061081 0.7392044 9.255905 0.18660736c7.239319 -1.2521591 12.465866 -5.1354523 15.679642 -11.649872l1.3008728 7.521103l8.207977 -1.4197006l-8.855988 -51.201355l-9.1766205 1.587246l4.744873 27.432743c0.756073 4.3712387 0.8291626 7.7957916 0.21928406 10.273666c-0.6003876 2.4651947 -1.991333 4.576103 -4.172806 6.332718c-2.183319 1.745903 -4.651474 2.8569412 -7.4044647 3.3331146c-2.7529755 0.4761734 -5.176239 0.2277298 -7.2697754 -0.7453079c-2.0953827 -0.98376465 -3.6293335 -2.5666885 -4.601822 -4.748802c-0.64627075 -1.5102615 -1.3613434 -4.531372 -2.1452026 -9.063316l-4.9116516 -28.396984z" fill-rule="evenodd"></path><path fill="#606c71" d="m253.93771 53.892303l0.55036926 3.1820068c0.66156006 3.824833 0.66908264 6.802807 0.022567749 8.933914c-0.8523407 2.7625656 -2.528061 5.1158295 -5.027176 7.059799c-2.5009613 1.9332504 -5.5187836 3.205574 -9.053482 3.8169556c-3.5686798 0.6172638 -6.415436 0.31518555 -8.540268 -0.90623474c-2.1134949 -1.223381 -3.3703766 -2.9921722 -3.7706451 -5.3063583c-0.2612915 -1.510643 -0.073654175 -2.9554977 0.56292725 -4.3345566c0.6347351 -1.3897705 1.6782074 -2.5412788 3.1304474 -3.4545288c1.45224 -0.91324615 4.0201874 -1.95327 7.703842 -3.1200676c6.5058746 -2.052185 11.313019 -4.009159 14.421417 -5.8709297zm-16.286148 -24.64202c-4.6562805 0.80537987 -8.647064 2.1190948 -11.972351 3.9411373c-3.3271484 1.8113327 -5.731735 3.9982567 -7.213745 6.560772c-1.4838562 2.5518036 -2.3195496 5.714241 -2.5070343 9.487316l9.172821 -0.3948822c0.35743713 -3.8024673 1.4382019 -6.593506 3.2423248 -8.373127c1.8135834 -1.7922897 4.878586 -3.061737 9.194992 -3.8083305c4.622284 -0.7994995 8.275558 -0.42174911 10.959808 1.1332512c1.9835358 1.146553 3.281067 3.4876099 3.8925781 7.0231705c0.055603027 0.32141495 0.16925049 1.0796776 0.34095764 2.2747917c-3.3005676 1.7625961 -8.583221 3.7025108 -15.847946 5.819744c-3.5643768 1.0468559 -6.2083282 1.9510612 -7.931839 2.7126122c-2.335907 1.0660934 -4.3754272 2.3954048 -6.1185455 3.9879227c-1.7318115 1.5905647 -3.0240784 3.5299187 -3.8767853 5.818077c-0.8432312 2.2754745 -1.0480499 4.6667404 -0.61442566 7.1737747c0.73939514 4.274811 2.9446259 7.512642 6.615692 9.713501c3.66922 2.1901398 8.477722 2.7708282 14.425537 1.7420654c3.6026611 -0.62314606 6.8757935 -1.7685852 9.819397 -3.4363403c2.9549255 -1.6697083 5.8954926 -4.1645126 8.821686 -7.4844055c0.6888428 2.3635864 1.6647644 4.363037 2.9277344 5.998352l9.584473 -1.6577911c-1.49469 -1.7607498 -2.6246948 -3.6728668 -3.3899841 -5.736328c-0.75579834 -2.0761414 -1.8314209 -7.1479645 -3.2268066 -15.215469l-2.0013428 -11.5709305c-0.66711426 -3.8569756 -1.2814941 -6.4982643 -1.8431091 -7.9238625c-0.9551697 -2.2844086 -2.2468567 -4.0857925 -3.875061 -5.40415c-1.6300659 -1.3290691 -3.9785004 -2.2580242 -7.045334 -2.7868633c-3.0668335 -0.5288391 -6.911392 -0.393507 -11.533691 0.4059925z" fill-rule="evenodd"></path><path fill="#606c71" d="m269.45584 4.8804827l12.224945 70.679085l9.176605 -1.5872498l-12.224945 -70.679085z" fill-rule="evenodd"></path><path stroke="#ffffff" stroke-width="1.0" stroke-linejoin="round" stroke-linecap="butt" d="m78.17447 37.965717l1.7261658 9.979927l9.176613 -1.587246l-1.7261658 -9.979927zm3.36895 19.47773l8.855988 51.20136l9.176613 -1.5872498l-8.855995 -51.201355z" fill-rule="evenodd"></path><path stroke="#ffffff" stroke-width="1.0" stroke-linejoin="round" stroke-linecap="butt" d="m122.281166 49.20548c-2.820961 0.4879303 -5.40609 1.2936897 -7.755394 2.4172707c-2.3398285 1.1109123 -4.137306 2.2880096 -5.392441 3.5312996c-1.6809235 1.6148643 -2.9078827 3.4932747 -3.6808777 5.635227c-0.76351166 2.12928 -0.9479141 4.334938 -0.55319977 6.6169815c0.43362427 2.5070343 1.4986115 4.684181 3.194954 6.531433c1.7058182 1.8345795 3.9578323 3.1167603 6.75605 3.8465424c2.8076935 0.71710205 7.7152786 1.2972107 14.722755 1.740303c5.2018585 0.3250656 8.4982605 0.7645416 9.889221 1.318428c1.9959106 0.8133774 3.1634216 2.200386 3.5025482 4.1610107c0.37802124 2.1856232 -0.31173706 4.269043 -2.0693207 6.250267c-1.7594299 1.9705048 -4.7463684 3.3202362 -8.9608 4.0491943c-4.1804657 0.7230835 -7.596039 0.37042236 -10.246719 -1.0579681c-2.6393585 -1.4303589 -4.511368 -3.8210144 -5.616028 -7.1719666l-8.841156 2.919548c1.9591522 5.2555466 5.0187607 8.946976 9.178833 11.074287c4.171402 2.1253433 9.774811 2.5795746 16.810211 1.3626862c4.2484283 -0.73483276 7.9345703 -2.0896454 11.058426 -4.06443c3.1220093 -1.9855042 5.351822 -4.4070206 6.6894684 -7.2645645c1.3471069 -2.8702164 1.7704926 -5.751686 1.2701569 -8.644417c-0.51145935 -2.957016 -1.6702576 -5.305519 -3.4763947 -7.0455017c-1.8061371 -1.7399902 -4.0849457 -2.907196 -6.8364105 -3.5016174c-2.7419891 -0.6070938 -7.5005493 -1.1688309 -14.275681 -1.6852188c-4.6864777 -0.38110352 -7.516342 -0.6529999 -8.489601 -0.8156891c-1.7030334 -0.33439636 -3.0090256 -0.902977 -3.9179688 -1.7057419c-0.90338135 -0.7706299 -1.4523621 -1.7184219 -1.6469421 -2.8433762c-0.30576324 -1.7677803 0.32805634 -3.4663544 1.9014587 -5.095726c1.57341 -1.6293716 4.467331 -2.8085327 8.68177 -3.5374908c3.5686874 -0.61726 6.4552 -0.35515976 8.659546 0.78630066c2.2156677 1.1395035 3.7553558 2.9917831 4.6190796 5.556839l8.772537 -2.7090645c-1.1503906 -3.2106323 -2.660797 -5.6693497 -4.531204 -7.376152c-1.8722534 -1.7175179 -4.5171967 -2.876564 -7.934799 -3.4771423c-3.4062958 -0.60253525 -7.23365 -0.5363884 -11.482079 0.19844818z" fill-rule="evenodd"></path><path stroke="#ffffff" stroke-width="1.0" stroke-linejoin="round" stroke-linecap="butt" d="m156.68967 44.445675l5.4870453 31.723629c0.639328 3.6962662 1.2932434 6.3638153 1.9617462 8.002647c0.98298645 2.4451218 2.2948456 4.4305954 3.9355927 5.956436c1.650238 1.5131607 3.9575653 2.60923 6.9220123 3.2881851c2.9757843 0.67700195 6.061081 0.7392044 9.255905 0.18660736c7.239319 -1.2521591 12.465866 -5.1354523 15.679642 -11.649872l1.3008728 7.521103l8.207977 -1.4197006l-8.855988 -51.201355l-9.1766205 1.587246l4.744873 27.432743c0.756073 4.3712387 0.8291626 7.7957916 0.21928406 10.273666c-0.6003876 2.4651947 -1.991333 4.576103 -4.172806 6.332718c-2.183319 1.745903 -4.651474 2.8569412 -7.4044647 3.3331146c-2.7529755 0.4761734 -5.176239 0.2277298 -7.2697754 -0.7453079c-2.0953827 -0.98376465 -3.6293335 -2.5666885 -4.601822 -4.748802c-0.64627075 -1.5102615 -1.3613434 -4.531372 -2.1452026 -9.063316l-4.9116516 -28.396984z" fill-rule="evenodd"></path><path stroke="#ffffff" stroke-width="1.0" stroke-linejoin="round" stroke-linecap="butt" d="m253.93771 53.892303l0.55036926 3.1820068c0.66156006 3.824833 0.66908264 6.802807 0.022567749 8.933914c-0.8523407 2.7625656 -2.528061 5.1158295 -5.027176 7.059799c-2.5009613 1.9332504 -5.5187836 3.205574 -9.053482 3.8169556c-3.5686798 0.6172638 -6.415436 0.31518555 -8.540268 -0.90623474c-2.1134949 -1.223381 -3.3703766 -2.9921722 -3.7706451 -5.3063583c-0.2612915 -1.510643 -0.073654175 -2.9554977 0.56292725 -4.3345566c0.6347351 -1.3897705 1.6782074 -2.5412788 3.1304474 -3.4545288c1.45224 -0.91324615 4.0201874 -1.95327 7.703842 -3.1200676c6.5058746 -2.052185 11.313019 -4.009159 14.421417 -5.8709297zm-16.286148 -24.64202c-4.6562805 0.80537987 -8.647064 2.1190948 -11.972351 3.9411373c-3.3271484 1.8113327 -5.731735 3.9982567 -7.213745 6.560772c-1.4838562 2.5518036 -2.3195496 5.714241 -2.5070343 9.487316l9.172821 -0.3948822c0.35743713 -3.8024673 1.4382019 -6.593506 3.2423248 -8.373127c1.8135834 -1.7922897 4.878586 -3.061737 9.194992 -3.8083305c4.622284 -0.7994995 8.275558 -0.42174911 10.959808 1.1332512c1.9835358 1.146553 3.281067 3.4876099 3.8925781 7.0231705c0.055603027 0.32141495 0.16925049 1.0796776 0.34095764 2.2747917c-3.3005676 1.7625961 -8.583221 3.7025108 -15.847946 5.819744c-3.5643768 1.0468559 -6.2083282 1.9510612 -7.931839 2.7126122c-2.335907 1.0660934 -4.3754272 2.3954048 -6.1185455 3.9879227c-1.7318115 1.5905647 -3.0240784 3.5299187 -3.8767853 5.818077c-0.8432312 2.2754745 -1.0480499 4.6667404 -0.61442566 7.1737747c0.73939514 4.274811 2.9446259 7.512642 6.615692 9.713501c3.66922 2.1901398 8.477722 2.7708282 14.425537 1.7420654c3.6026611 -0.62314606 6.8757935 -1.7685852 9.819397 -3.4363403c2.9549255 -1.6697083 5.8954926 -4.1645126 8.821686 -7.4844055c0.6888428 2.3635864 1.6647644 4.363037 2.9277344 5.998352l9.584473 -1.6577911c-1.49469 -1.7607498 -2.6246948 -3.6728668 -3.3899841 -5.736328c-0.75579834 -2.0761414 -1.8314209 -7.1479645 -3.2268066 -15.215469l-2.0013428 -11.5709305c-0.66711426 -3.8569756 -1.2814941 -6.4982643 -1.8431091 -7.9238625c-0.9551697 -2.2844086 -2.2468567 -4.0857925 -3.875061 -5.40415c-1.6300659 -1.3290691 -3.9785004 -2.2580242 -7.045334 -2.7868633c-3.0668335 -0.5288391 -6.911392 -0.393507 -11.533691 0.4059925z" fill-rule="evenodd"></path><path stroke="#ffffff" stroke-width="1.0" stroke-linejoin="round" stroke-linecap="butt" d="m269.45584 4.8804827l12.224945 70.679085l9.176605 -1.5872498l-12.224945 -70.679085z" fill-rule="evenodd"></path><path fill="#159957" d="m32.988632 182.5023c-0.81329346 -0.40927124 -2.0702496 -0.8948822 -3.7708626 -1.4568329c-1.6969261 -0.5692749 -2.9410458 -1.053009 -3.732359 -1.4512177c-1.208952 -0.6083679 -2.3916893 -0.71229553 -3.5482082 -0.31175232c-1.1455059 0.39689636 -2.02244 1.1998138 -2.6308022 2.408783c-1.0286846 2.0442352 -2.4287891 5.1641693 -4.2003126 9.359772c-1.7605085 4.1919556 -3.1551075 7.3100586 -4.183792 9.354309c-0.53093433 1.0550842 -1.4335766 2.584259 -2.7079277 4.5875244c-1.267024 2.0069427 -2.1715336 3.5489655 -2.713529 4.6260376c-0.47562838 0.9451904 -0.5605655 1.8803711 -0.2548108 2.8055573c0.30575514 0.92518616 0.9312229 1.6255951 1.8764033 2.101242c0.96716166 0.48669434 1.9133315 0.5771637 2.838509 0.27140808c0.9251785 -0.30575562 1.6255817 -0.93122864 2.1012106 -1.8764191c0.54199505 -1.0770721 1.4428415 -2.620926 2.7025385 -4.6315613c1.259696 -2.0106354 2.155013 -3.5435028 2.6859465 -4.598587c0.9955025 -1.978302 2.235056 -4.7153015 3.7186604 -8.211014c1.6829872 -4.001404 2.8841076 -6.77153 3.603365 -8.3103485c2.5068169 0.875824 4.1448917 1.507309 4.9142246 1.894455c1.7804565 0.8959656 4.0664024 2.0738525 6.8578415 3.533661c3.6926575 1.9133301 5.967617 3.085678 6.824871 3.5170746c-3.2287178 5.978302 -4.9647484 9.209244 -5.2080956 9.692825c-0.8959503 1.7804718 -2.0859413 4.5010834 -3.5699692 8.161865c-1.4840279 3.6607666 -2.6740189 6.3813934 -3.569971 8.161865c-0.4756279 0.9451904 -0.56056404 1.8803711 -0.25481033 2.8055725c0.30575562 0.92518616 0.9312229 1.6255951 1.8764019 2.1012268c0.9671631 0.48669434 1.9133339 0.5771637 2.8385124 0.27140808c0.9251785 -0.30574036 1.6255798 -0.9312134 2.1012077 -1.8764038c0.91807556 -1.8244324 2.12286 -4.5927124 3.614357 -8.304825c1.4988213 -3.7084198 2.7017403 -6.463852 3.6087532 -8.266312c0.71897507 -1.428772 1.8523865 -3.544281 3.400238 -6.346512c1.5478516 -2.802246 2.6812668 -4.91774 3.400238 -6.346512c0.44244385 -0.8792572 0.4998474 -1.8053436 0.17220688 -2.7782745c-0.31663132 -0.9765625 -0.9145622 -1.6860809 -1.7938004 -2.1285248c-1.8903618 -0.9512787 -4.7239876 -2.4093628 -8.500881 -4.3742523c-3.7732086 -1.972229 -6.604992 -3.4339752 -8.495354 -4.3852386z" fill-rule="evenodd"></path><path fill="#159957" d="m77.13678 211.3713c3.4949722 1.7587433 5.6342697 3.6203918 6.4178925 5.5849304c0.7909546 1.968216 0.34577942 4.6228943 -1.3355103 7.96402c-2.0131302 4.0005646 -4.85466 7.0470886 -8.52459 9.139557c-3.978508 2.2677612 -7.638321 2.5609741 -10.9794235 0.8796692c-2.8795013 -1.4490356 -4.8827553 -3.4350433 -6.009758 -5.9580383c-1.170681 -2.6551666 -1.0923538 -5.301605 0.23498154 -7.9393463c1.9688797 -3.9126434 4.920315 -6.9038544 8.854298 -8.973633c4.176346 -2.168213 7.9570465 -2.4006042 11.34211 -0.6971588zm3.3349304 -6.627304c-5.693062 -2.8648834 -11.669014 -2.7041626 -17.927853 0.48213196c-5.575596 2.8138885 -9.729439 6.935501 -12.46154 12.364838c-2.3228378 4.616028 -2.4887848 9.243118 -0.4978447 13.881256c1.8705368 4.3847046 5.135788 7.7495575 9.795746 10.094559c5.693062 2.8648682 11.597687 2.6269379 17.71386 -0.7137909c5.2566605 -2.891739 9.251038 -7.0522766 11.983139 -12.481613c5.1655426 -10.2651825 2.2970428 -18.140976 -8.605507 -23.62738z" fill-rule="evenodd"></path><path fill="#159957" d="m113.543274 240.1874c-1.7364883 -0.87384033 -4.3799515 -2.107666 -7.9303665 -3.7014923c-3.550415 -1.593811 -6.1938705 -2.8276367 -7.9303665 -3.701477c-1.8463974 -0.92915344 -3.2009811 -0.5364685 -4.063751 1.1780548c-0.8627701 1.7145386 -0.3709488 3.036377 1.4754486 3.9655151c7.6493683 3.8493347 13.046181 6.372299 16.190445 7.5689087c1.8360443 0.67601013 3.1356812 0.255661 3.8988953 -1.2610321c0.8627701 -1.7145233 0.3160019 -3.0640106 -1.6403046 -4.048477z" fill-rule="evenodd"></path><path fill="#159957" d="m143.81586 247.11572c1.9782867 0.9955139 2.9532318 2.7349396 2.9248505 5.218277c-0.01737976 2.4797058 -1.0326233 5.7198334 -3.045761 9.720383c-1.4268799 2.8355713 -3.2147522 4.8283386 -5.363617 5.9783325c-2.4794312 1.3141785 -5.0929565 1.2799683 -7.840576 -0.10272217c-2.3959198 -1.205658 -4.559555 -2.8729553 -6.4909134 -5.001831c2.7652817 -5.4953003 5.2604904 -10.809677 7.4856033 -15.943192c2.6321716 -0.7965851 4.6911316 -1.2204742 6.176895 -1.2716827c2.0800934 -0.08268738 4.1312714 0.38479614 6.1535187 1.4024353zm-8.791565 -15.456818c-1.2528992 -0.63049316 -2.5353851 -0.46321106 -3.847412 0.50183105c-1.1135101 0.7894745 -2.0629272 1.9645538 -2.8482666 3.5252075l-2.8735428 6.9421387c-1.7272263 4.089325 -3.7690659 8.557526 -6.125511 13.404572l-6.6200867 13.155701l-6.7355957 13.1388855c-0.4866867 0.9671631 -0.5844879 1.909668 -0.29338074 2.8274841c0.29842377 0.9214783 0.9202347 1.6200562 1.8654099 2.0957031c0.9451828 0.47561646 1.8730316 0.55688477 2.7835617 0.2437439c0.9178467 -0.30944824 1.6201172 -0.9477234 2.1068115 -1.914917l7.996773 -15.727264c2.2837524 2.0307617 4.524681 3.5991821 6.7227783 4.7053223c4.506096 2.2675781 8.929497 2.455017 13.270195 0.5623474c4.098343 -1.7942505 7.3421173 -5.065338 9.731323 -9.813232c2.6214905 -5.2095337 3.9043427 -9.811737 3.848587 -13.80661c-0.07507324 -5.0513916 -2.3656464 -8.710861 -6.8717346 -10.978439c-1.6046143 -0.8074646 -3.4502258 -1.3276062 -5.53685 -1.5604095c-2.0829468 -0.2401123 -4.3958893 -0.18737793 -6.938858 0.15823364c0.33154297 -0.54937744 0.72372437 -1.1371307 1.1765289 -1.7632294c0.33140564 -0.4943695 0.54689026 -0.84046936 0.6464386 -1.0382996c0.44244385 -0.87924194 0.5217438 -1.7667542 0.2379303 -2.6625366c-0.2728119 -0.8994293 -0.8378296 -1.5648346 -1.6950989 -1.9962311z" fill-rule="evenodd"></path><path fill="#159957" d="m192.83342 263.18768c-1.1430054 -0.5751953 -2.3759155 -0.4242859 -3.6987305 0.45269775c-3.0534668 2.0170288 -6.449417 4.5503845 -10.187836 7.6000977l-10.603912 8.919617c0.53637695 -11.740692 0.24139404 -21.14505 -0.88494873 -28.213013c-0.16238403 -1.0458679 -0.74913025 -1.8232117 -1.7602539 -2.3320312c-0.857254 -0.43139648 -1.8053741 -0.4815216 -2.8443298 -0.15037537c-1.0316315 0.3348236 -1.7742004 0.95285034 -2.227707 1.854065c-0.3428955 0.681427 -0.47200012 1.6770172 -0.3873291 2.9868011l0.27252197 3.1535645l0.37208557 28.65741c-10.046158 8.139709 -15.622299 13.308624 -16.728409 15.506744c-0.45350647 0.9012146 -0.49806213 1.8200073 -0.13363647 2.7563477c0.36805725 0.9473572 1.0136871 1.6533203 1.9368896 2.1178894c1.406784 0.7079468 2.7941132 0.41436768 4.162033 -0.88067627l5.3948975 -5.301422c3.529953 -3.2923584 8.211548 -7.2310486 14.0448 -11.81604l23.818695 -18.921997c0.59547424 -0.4716797 1.0148773 -0.9493103 1.2582092 -1.4328918c0.4424591 -0.87924194 0.4760437 -1.8127136 0.100738525 -2.8004456c-0.3679657 -0.9840393 -1.0025482 -1.7028198 -1.9037781 -2.1563416z" fill-rule="evenodd"></path><path fill="#159957" d="m217.08633 274.4419c-4.132416 -2.0794983 -9.17453 -1.3111267 -15.126343 2.3051453c-5.3566284 3.2546387 -9.157654 7.113037 -11.403061 11.575195c-2.356018 4.6819763 -2.6703796 9.248169 -0.94306946 13.698547c1.6398163 4.2410583 4.7127686 7.4953613 9.218857 9.762939c1.9562988 0.98443604 4.75 1.5638733 8.3811035 1.7382812c4.1372223 0.20874023 6.609558 -0.4892273 7.4170227 -2.0938416c0.4203186 -0.83529663 0.49597168 -1.7246399 0.22694397 -2.6680908c-0.26533508 -0.9507446 -0.804657 -1.6307678 -1.6179504 -2.040039c-0.28575134 -0.14379883 -0.8468323 -0.20574951 -1.6832275 -0.18591309l-4.8533783 0.11959839c-1.8486633 -0.04876709 -3.4324188 -0.40499878 -4.7512665 -1.0686951c-2.9014893 -1.460083 -4.8827667 -3.435028 -5.943817 -5.924835c-1.1376495 -2.6660767 -0.9764252 -5.44989 0.48364258 -8.351379c1.3494568 -2.6817017 3.9479218 -5.3546753 7.795395 -8.018951c4.2112274 -2.8944397 7.437866 -3.7775269 9.679916 -2.6492615c2.9454498 1.4822083 4.806671 3.066162 5.583679 4.751892c0.25157166 0.59490967 0.51412964 1.2045288 0.7876282 1.8288269c0.2845459 0.6206665 0.7455139 1.0914001 1.3829651 1.4121704c0.81329346 0.40927124 1.6569366 0.42977905 2.5309143 0.061523438c0.8776703 -0.37554932 1.5266724 -0.98098755 1.946991 -1.8162842c0.9402008 -1.8683777 0.05505371 -4.2972107 -2.6554108 -7.2864685c-2.1508942 -2.3495483 -4.3033905 -4.066345 -6.457535 -5.15036z" fill-rule="evenodd"></path><path fill="#159957" d="m251.77228 291.89664c-4.132431 -2.0795288 -9.174545 -1.3111572 -15.126358 2.3051147c-5.3566284 3.2546692 -9.157654 7.1130676 -11.403061 11.575226c-2.356018 4.6819763 -2.6703796 9.248169 -0.94306946 13.698517c1.6398163 4.2410583 4.7127686 7.495392 9.218857 9.762939c1.9563141 0.98446655 4.7500153 1.5639038 8.3811035 1.7383118c4.1372223 0.20870972 6.609558 -0.4892273 7.4170227 -2.0938416c0.42033386 -0.83529663 0.49597168 -1.7246399 0.22694397 -2.6680908c-0.26533508 -0.9507446 -0.804657 -1.6307678 -1.6179504 -2.040039c-0.28575134 -0.14379883 -0.8468323 -0.20578003 -1.6832275 -0.18591309l-4.8533783 0.11956787c-1.8486633 -0.04876709 -3.4324188 -0.40499878 -4.7512665 -1.0686646c-2.9014893 -1.460083 -4.8827667 -3.435028 -5.943817 -5.924835c-1.1376495 -2.6661072 -0.9764252 -5.44989 0.48364258 -8.35141c1.3494568 -2.6816711 3.9479218 -5.3546753 7.795395 -8.018921c4.2112274 -2.8944397 7.437866 -3.7775269 9.679916 -2.649292c2.9454498 1.4822388 4.806671 3.0661926 5.583679 4.7519226c0.25157166 0.59490967 0.51412964 1.2045288 0.7876282 1.8288269c0.2845459 0.6206665 0.7455292 1.0913696 1.3829803 1.4121704c0.81329346 0.40927124 1.6569214 0.42977905 2.5309143 0.061523438c0.877655 -0.37557983 1.5266724 -0.98098755 1.946991 -1.8162842c0.94018555 -1.8684082 0.05505371 -4.2972107 -2.655426 -7.286499c-2.150879 -2.3495483 -4.3033905 -4.0663147 -6.4575195 -5.1503296z" fill-rule="evenodd"></path><path fill="#159957" d="m275.0169 303.6765c-2.264038 -1.1393127 -4.109497 -0.29119873 -5.536377 2.5443726c-1.0618896 2.1101685 -2.566681 5.292206 -4.514435 9.5460205c-1.9477539 4.253845 -3.4470215 7.4248657 -4.4978333 9.513092c-0.5309448 1.0550842 -1.3970947 2.6669006 -2.5985107 4.8354187c-1.1977234 2.1611938 -2.0565338 3.7583313 -2.5764008 4.791443c-0.45350647 0.9012451 -0.49612427 1.7888489 -0.12788391 2.6628418c0.37557983 0.87768555 1.0249634 1.5487976 1.9481506 2.0133667c1.8024292 0.90704346 3.3274841 0.5588074 4.5751343 -1.0446777c0.36431885 -0.45025635 1.4534607 -2.4778442 3.2674866 -6.0827637c0.44244385 -0.87924194 1.1060486 -2.1705933 1.9908142 -3.874054c0.95111084 -1.8353577 1.6091614 -3.1157227 1.9741821 -3.841095l3.9565735 1.9910278c0.8022461 0.4312744 1.6091614 3.3165894 2.420807 8.656006c0.7463989 5.0310974 1.0163574 8.472626 0.809845 10.324554c-0.19918823 1.8556213 0.47055054 3.1705933 2.0092163 3.9448853c0.8572693 0.43136597 1.7685242 0.54559326 2.7337952 0.34265137c0.9725952 -0.19924927 1.6801147 -0.7384949 2.1225586 -1.6177368c0.94018555 -1.8683777 1.09198 -5.26297 0.45532227 -10.183746c-0.6149292 -4.7996826 -1.6287842 -8.532898 -3.0415344 -11.1996765c1.1781616 -0.2611084 2.4232178 -0.84664917 3.7351074 -1.7566833c0.22052002 -0.16448975 1.2956543 -1.0145874 3.2254028 -2.550293c2.801056 -2.2817993 4.817047 -3.112976 6.0479736 -2.4935608c1.4947205 0.75216675 2.6789856 0.26000977 3.5527954 -1.4765015c0.39819336 -0.7913208 0.16946411 -1.7052917 -0.6862488 -2.7419434c-0.66922 -0.8050842 -1.3994751 -1.4067078 -2.190796 -1.8049316c-2.5058289 -1.2609863 -5.4898987 -0.5588379 -8.952209 2.1064148c-1.2241211 1.0092773 -2.2166443 1.8320923 -2.9776 2.4684143c-2.3041382 1.6227722 -4.8413086 1.8473511 -7.6114807 0.6737366l-2.4068909 -1.2112122c2.3016968 -4.957245 3.8562927 -8.238159 4.663727 -9.842804c0.44247437 -0.87924194 0.488739 -1.7649841 0.1388855 -2.6572876c-0.34985352 -0.89227295 -0.98638916 -1.5707092 -1.9095764 -2.0352783z" fill-rule="evenodd"></path><path fill="#159957" d="m306.98154 320.21634c-2.1980896 -1.1061401 -3.861267 -0.538147 -4.989502 1.7038879l0 0c0.002166748 -0.0042419434 0.0032958984 -0.0063476562 0.0034484863 -0.006286621c0.0057373047 0.00289917 -1.6055908 3.50589 -4.833954 10.508972c-3.1980896 6.902771 -6.373352 13.486481 -9.525757 19.751099c-0.47564697 0.9451599 -0.4725647 1.8970947 0.009155273 2.8557434c0.44900513 0.8595276 1.157074 1.5326538 2.124237 2.0193481c1.2749023 0.6415405 2.7990112 0.65097046 4.572357 0.028259277c2.2139587 -0.7866516 5.45166 -1.6917114 9.713104 -2.71521c3.2374268 -0.7950134 6.773285 -2.1010132 10.607574 -3.9179382c1.9942932 -0.952301 5.327759 -2.7319946 10.000458 -5.3391113c-0.81015015 2.650055 -1.8954773 5.326935 -3.256012 8.030609c-0.7189636 1.428772 -1.8578491 3.527771 -3.416626 6.2969666c-1.5587463 2.7691956 -2.6976318 4.868164 -3.4165955 6.296936c-0.4645691 0.9232178 -0.5421448 1.8529358 -0.23275757 2.7891235c0.3130188 0.9472046 0.9421387 1.6586304 1.8872986 2.1342773c0.9232178 0.4645691 1.8547668 0.5385132 2.7946167 0.22177124c0.9435425 -0.30569458 1.647583 -0.920166 2.112152 -1.8433533c0.43136597 -0.8572693 1.1168823 -2.1100464 2.0565186 -3.7583618c0.93963623 -1.6482849 1.6251221 -2.9010925 2.0565186 -3.7583313c1.2277832 -2.439911 3.0328674 -6.1365356 5.415283 -11.089905c2.386078 -4.9606934 4.192993 -8.66098 5.4207764 -11.100891c0.47564697 -0.9451904 0.5532532 -1.8840637 0.23284912 -2.8166199c-0.31307983 -0.9288635 -0.9312439 -1.6256104 -1.8544312 -2.0901794c-1.4727173 -0.7411194 -3.2944336 -0.56970215 -5.465149 0.51416016c-8.363159 4.1383057 -13.453705 6.617798 -15.271576 7.438507c-5.850281 2.6481018 -11.170563 4.5987854 -15.960815 5.8519897l7.8504333 -16.585999c1.9031982 -4.0558777 2.915802 -6.259735 3.0377502 -6.6115723c0.7541504 -2.2650452 0.19702148 -3.8676758 -1.6713562 -4.807892z" fill-rule="evenodd"></path><path fill="#ffffff" d="m113.95735 93.666435c-5.521675 0 -10.539688 0.93271637 -15.054031 2.7981415c-4.5143433 1.8654251 -7.9467316 4.601387 -10.29718 8.207878c-2.350441 3.5940552 -3.5256577 7.461708 -3.5256577 11.602951c0 3.7681656 0.9575882 7.175682 2.872757 10.222542c1.9276123 3.0344315 4.8501205 5.577629 8.767532 7.6296005c3.0219955 1.6042633 8.301163 3.3142395 15.837502 5.1299133c7.5363464 1.8032532 12.405121 3.1339264 14.606331 3.9920197c3.432396 1.3058014 5.8947525 2.9225006 7.387108 4.850113c1.4923401 1.9151611 2.2385101 4.159897 2.2385101 6.734192c0 2.536972 -0.77726746 4.881195 -2.331787 7.032654c-1.5420837 2.1390228 -3.8987427 3.8241272 -7.0699844 5.055298c-3.1712341 1.2311859 -6.8274765 1.8467712 -10.968735 1.8467712c-4.663574 0 -8.860794 -0.8083496 -12.59166 -2.4250488c-3.7308578 -1.6291351 -6.4854736 -3.755722 -8.263855 -6.3797607c-1.7659454 -2.6364746 -2.8914185 -6.006668 -3.3764267 -10.110611l-10.241219 0.895401c0.14923096 5.4843597 1.6477966 10.402863 4.4956894 14.755524c2.8603287 4.340225 6.7963867 7.5923004 11.808174 9.756195c5.024231 2.1638947 11.24855 3.2458344 18.672966 3.2458344c5.8574524 0 11.124191 -1.069519 15.800201 -3.2085266c4.688446 -2.151474 8.2825165 -5.1548004 10.782196 -9.01001c2.4996643 -3.8676605 3.7495117 -7.9840393 3.7495117 -12.349136c0 -4.402405 -1.1379089 -8.288712 -3.413742 -11.658905c-2.2758179 -3.3826447 -5.801483 -6.174576 -10.576996 -8.375778c-3.2831573 -1.4923401 -9.339592 -3.2333984 -18.169296 -5.2231903c-8.817268 -2.0022202 -14.270546 -3.9547043 -16.359825 -5.857437c-2.1265945 -1.9027405 -3.189888 -4.3277893 -3.189888 -7.2751694c0 -3.395073 1.4985657 -6.2927017 4.4956894 -8.692886c3.0095596 -2.4126205 7.7975006 -3.618927 14.363815 -3.618927c6.3051605 0 11.068222 1.3244553 14.289207 3.9733582c3.2334137 2.6489105 5.1299286 6.566307 5.68956 11.75219l10.409103 -0.7834778c-0.1865387 -4.812805 -1.5296478 -9.121941 -4.0293274 -12.927406c-2.4996796 -3.8054733 -6.0750885 -6.6844482 -10.726227 -8.636925c-4.63871 -1.96492 -9.998711 -2.94738 -16.080017 -2.94738z" fill-rule="evenodd"></path><path fill="#606c71" d="m154.61504 97.7568l1.8572083 10.737633l9.337097 -1.6149673l-1.8572083 -10.73764zm3.62471 20.95655l9.528336 55.088745l9.337112 -1.614975l-9.528351 -55.088745z" fill-rule="evenodd"></path><path fill="#606c71" d="m206.62921 109.06157c-3.66568 0.6340256 -6.791107 2.023468 -9.376297 4.1683197c-2.5871735 2.1333237 -4.512024 4.6982117 -5.7745667 7.6946564l-1.3368378 -7.729027l-8.351517 1.4445038l9.528336 55.088753l9.337097 -1.614975l-4.943619 -28.581833c-0.8672943 -5.0143433 -1.0297852 -8.9396515 -0.4874878 -11.775909c0.5423126 -2.836258 1.8062134 -5.13842 3.7917328 -6.906494c1.9970398 -1.7700653 4.309662 -2.882393 6.9378815 -3.336975c3.458191 -0.59814453 6.1275177 0.008651733 8.008011 1.8203735c1.8804779 1.8117294 3.1796112 4.7924957 3.8973694 8.9423065l6.190735 35.79213l9.337097 -1.614975l-5.5357666 -32.005417c-0.98095703 -5.671417 -0.41419983 -10.013718 1.7002411 -13.0269165c2.112442 -3.0247269 5.105255 -4.8720474 8.978424 -5.5419693c2.1440735 -0.37084198 4.098221 -0.19239807 5.862442 0.5353241c1.7642212 0.7277298 3.0886078 1.8639526 3.9731293 3.4086761c0.8940735 1.5311966 1.664093 4.1642075 2.310089 7.89904l6.002304 34.702805l9.285248 -1.6060028l-6.5406494 -37.815163c-1.088623 -6.2938766 -3.3638306 -10.696678 -6.8256683 -13.208405c-3.4638214 -2.5232468 -7.927704 -3.3123474 -13.391632 -2.3672867c-6.9855347 1.2082367 -12.100693 5.4052887 -15.345459 12.591148c-1.5984039 -2.8577728 -3.8524933 -4.9076157 -6.762268 -6.1495285c-2.8982697 -1.2439117 -6.3877106 -1.5129623 -10.468369 -0.8071594z" fill-rule="evenodd"></path><path fill="#606c71" d="m270.07745 99.36956l5.9036255 34.132195c0.6878357 3.9768982 1.3804932 6.848877 2.0779114 8.615921c1.0258179 2.6362457 2.3823547 4.7819824 4.0695496 6.4371796c1.6967468 1.6416779 4.059082 2.841751 7.0870667 3.6002045c3.0395203 0.7564697 6.1846313 0.85357666 9.435333 0.2913208c7.3659363 -1.2740326 12.654633 -5.3942566 15.86615 -12.360657l1.3996277 8.092133l8.351532 -1.4445038l-9.528351 -55.088753l-9.337097 1.614975l5.1051025 29.515533c0.81347656 4.703125 0.9215698 8.382576 0.3243103 11.038399c-0.58773804 2.642273 -1.9846191 4.8962097 -4.190735 6.761795c-2.2080688 1.854065 -4.712677 3.0233307 -7.513794 3.5078278c-2.8011475 0.48449707 -5.2733154 0.1938324 -7.416565 -0.871994c-2.1452637 -1.0773468 -3.7241516 -2.7928314 -4.736725 -5.146454c-0.67349243 -1.6287079 -1.4319153 -4.8810883 -2.275299 -9.757111l-5.284546 -30.552986z" fill-rule="evenodd"></path><path fill="#606c71" d="m325.53583 68.19382l13.153046 76.0453l9.337097 -1.614975l-13.153046 -76.045296z" fill-rule="evenodd"></path><path fill="#606c71" d="m360.63852 63.885357l-8.316254 7.208248l2.3596802 13.642502l-6.847229 1.1843109l1.2561035 7.2621765l6.8471985 -1.1843185l5.4819336 31.694191c0.96899414 5.6022415 1.9854126 9.213631 3.0492554 10.83419c1.0618896 1.609024 2.6192322 2.7880554 4.6720886 3.537094c2.052826 0.7490387 4.773773 0.83047485 8.162781 0.24430847c2.0749207 -0.35888672 4.3786316 -1.0422821 6.911133 -2.050171l-2.775238 -8.014481c-1.6526489 0.5351715 -2.9976807 0.8924713 -4.0351562 1.0719147c-1.3832703 0.23924255 -2.4884338 0.19889832 -3.3154602 -0.12107849c-0.8154907 -0.32196045 -1.4561768 -0.8344269 -1.9220581 -1.5374069c-0.45437622 -0.7049713 -0.9118347 -2.388855 -1.3723755 -5.051651l-5.571686 -32.212906l9.388977 -1.6239471l-1.256073 -7.262169l-9.388977 1.6239395l-3.3286438 -19.244747z" fill-rule="evenodd"></path><path fill="#606c71" d="m422.4017 101.28464l0.5921631 3.4235992c0.711792 4.1152267 0.7486572 7.314316 0.11065674 9.597267c-0.84158325 2.9592514 -2.5263672 5.4707336 -5.054352 7.534462c-2.5299683 2.0522003 -5.5932007 3.389328 -9.189728 4.0113983c-3.631073 0.6280441 -6.535431 0.27559662 -8.713013 -1.0573502c-2.1660461 -1.334938 -3.464386 -3.247345 -3.89505 -5.737236c-0.28112793 -1.6253433 -0.10406494 -3.1755981 0.53118896 -4.6507645c0.63327026 -1.486702 1.6854858 -2.7134323 3.1566162 -3.680214c1.4711304 -0.9667816 4.0781555 -2.058792 7.8210144 -3.2760315c6.610565 -2.1406403 11.490753 -4.1956787 14.640503 -6.1651306zm-16.840424 -26.630966c-4.7377014 0.8194504 -8.792175 2.1914978 -12.163391 4.1161423c-3.3731995 1.9131165 -5.8024597 4.238762 -7.2877502 6.9769287c-1.4873047 2.7266464 -2.3079834 6.115616 -2.4620361 10.166908l9.34494 -0.3341446c0.32696533 -4.0811996 1.4010925 -7.0687943 3.222351 -8.962799c1.83078 -1.9075165 4.9421387 -3.2411041 9.334045 -4.0007324c4.703125 -0.81346893 8.430206 -0.37181854 11.181213 1.3249512c2.032837 1.2511292 3.3782349 3.7786942 4.0361633 7.5826874c0.059814453 0.34581757 0.18310547 1.1614761 0.36984253 2.4469833c-3.3466187 1.8610306 -8.711578 3.893074 -16.09491 6.096138c-3.6224976 1.0895767 -6.3082886 2.034935 -8.057404 2.8360977c-2.3702698 1.1222916 -4.435852 2.5302505 -6.196808 4.2238617c-1.7494202 1.6916199 -3.0474548 3.7622452 -3.8940735 6.2118683c-0.83709717 2.4360962 -1.0223389 5.002838 -0.55581665 7.700218c0.7955322 4.599373 3.0748596 8.09919 6.8379517 10.499443c3.7611084 2.3887177 8.667572 3.059723 14.719391 2.0129852c3.66568 -0.6340332 6.9903564 -1.832367 9.974091 -3.5950165c2.9952087 -1.7646332 5.9677124 -4.415741 8.91748 -7.953331c0.72528076 2.545784 1.7395325 4.703224 3.0427856 6.472328l9.752075 -1.6867523c-1.5406494 -1.9061203 -2.71109 -3.9712524 -3.511322 -6.1953964c-0.79067993 -2.2376633 -1.936676 -7.6965027 -3.4380188 -16.376526l-2.1532898 -12.449432c-0.71777344 -4.149811 -1.3698425 -6.9931793 -1.9562073 -8.530113c-0.99594116 -2.4633484 -2.3300781 -4.4111176 -4.002472 -5.843315c-1.6743469 -1.4437256 -4.0769653 -2.4646835 -7.2078247 -3.0628815c-3.1308594 -0.59819794 -7.047882 -0.49057007 -11.751007 0.32289886z" fill-rule="evenodd"></path><path fill="#606c71" d="m467.2899 63.976906c-7.642578 1.3218842 -12.963562 5.3586426 -15.962891 12.110275l-1.3547668 -7.8327713l-8.403412 1.453476l9.528351 55.088745l9.337097 -1.6149673l-5.2037964 -30.086136c-1.2202148 -7.05468 -0.60769653 -12.093483 1.8374634 -15.116394c2.456726 -3.02491 5.673523 -4.8812943 9.650421 -5.569153c2.4898987 -0.43066406 4.75473 -0.24066162 6.7944946 0.5700073c2.049286 0.797142 3.600525 2.0781403 4.653717 3.8430023c1.0512085 1.753334 1.9057922 4.5319977 2.5637512 8.335991l5.7959595 33.509727l9.337097 -1.614975l-5.8587646 -33.872833c-0.74768066 -4.3227234 -1.4439697 -7.318718 -2.0888367 -8.987991c-1.0138855 -2.567093 -2.3799438 -4.6993027 -4.098175 -6.3966293c-1.7182312 -1.697319 -4.0747986 -2.898384 -7.0697937 -3.6031952c-2.9854126 -0.7183304 -6.1380615 -0.79039 -9.457916 -0.2161789z" fill-rule="evenodd"></path><path fill="#606c71" d="m524.48474 61.99114c4.737671 -0.8194504 8.904602 0.3118782 12.500732 3.393978c2.3372803 1.9820251 4.114197 5.2541275 5.3306885 9.816307l-30.760529 5.3204346c-0.5201721 -4.860695 0.42971802 -8.978409 2.84964 -12.353119c2.4315186 -3.376709 5.791321 -5.4359093 10.079468 -6.177601zm-1.4316406 -7.65921c-7.607971 1.3159065 -13.35553 4.9456215 -17.242584 10.889156c-3.8870544 5.943527 -5.0290527 13.549255 -3.426056 22.817162c1.5491943 8.95668 5.110779 15.511406 10.684753 19.664192c5.583496 4.1392593 12.404053 5.5120697 20.461609 4.118408c6.397644 -1.1065598 11.384949 -3.571907 14.961853 -7.3960495c3.5769043 -3.8241425 5.638672 -8.686218 6.1853027 -14.586227l-9.854675 0.4757309c-0.7359619 4.187561 -2.1588135 7.3898163 -4.2684937 9.606766c-2.1096802 2.2169418 -4.876343 3.621498 -8.299988 4.2136536c-4.599365 0.7955246 -8.716064 -0.14859772 -12.350159 -2.8323517c-3.6340332 -2.6837616 -6.147339 -7.0216446 -7.539917 -13.013634l41.083252 -7.1058807c-0.15679932 -1.1126022 -0.28308105 -1.9455566 -0.37878418 -2.4988632c-1.5731201 -9.095001 -5.1275635 -15.745941 -10.663452 -19.952808c-5.5358276 -4.206867 -11.986694 -5.6732864 -19.352661 -4.399254z" fill-rule="evenodd"></path><path fill="#606c71" d="m583.2137 51.886623c4.599365 -0.7955246 8.747803 0.29745102 12.44519 3.2789268c3.7069702 2.9679565 6.149597 7.858238 7.327942 14.670845c1.2501221 7.227585 0.6412964 12.871223 -1.826355 16.930908c-2.4677124 4.059677 -6.0185547 6.4902725 -10.652466 7.2917786c-4.668579 0.8074875 -8.844788 -0.27474213 -12.528687 -3.2466812c-3.685913 -2.9834747 -6.138977 -8.002548 -7.359131 -15.057228c-1.2202148 -7.05468 -0.59350586 -12.594566 1.880188 -16.619667c2.4736328 -4.0251007 6.044739 -6.441395 10.713318 -7.2488823zm-1.336853 -7.729023c-6.812622 1.1783333 -12.234863 4.2175484 -16.266785 9.117645c-4.8220825 5.891556 -6.35083 13.938141 -4.5863647 24.139763c1.6090088 9.302498 5.2158203 16.015617 10.820374 20.139366c5.616089 4.12175 12.280029 5.515709 19.99176 4.181862c4.806885 -0.83141327 9.044739 -2.721939 12.713562 -5.671562c3.680359 -2.9516296 6.2301025 -6.6396713 7.649292 -11.064117c1.428772 -4.437973 1.5300293 -10.2015915 0.303833 -17.290848c-1.5132446 -8.749187 -5.1019897 -15.186432 -10.766235 -19.31174c-5.6661987 -4.136833 -12.286011 -5.550289 -19.859436 -4.240368z" fill-rule="evenodd"></path><path fill="#606c71" d="m618.6106 39.086205l5.9036255 34.132202c0.6878662 3.9768982 1.3804932 6.8488693 2.0778809 8.615906c1.0258789 2.636261 2.3823853 4.7819824 4.06958 6.437195c1.6967773 1.6416702 4.059143 2.8417435 7.087097 3.6002045c3.0394897 0.7564621 6.1846313 0.85356903 9.435303 0.2913208c7.365906 -1.2740326 12.654663 -5.3942566 15.86615 -12.360664l1.3996582 8.092133l8.351501 -1.4445038l-9.52832 -55.088745l-9.337097 1.6149731l5.1051025 29.515533c0.81347656 4.703121 0.9215698 8.38258 0.3242798 11.038395c-0.5877075 2.6422806 -1.9846191 4.8962173 -4.190735 6.7618027c-2.2080688 1.8540573 -4.7126465 3.0233307 -7.513794 3.5078278c-2.8011475 0.48448944 -5.2733154 0.19382477 -7.416565 -0.871994c-2.1452637 -1.0773544 -3.7241821 -2.792839 -4.7366943 -5.1464615c-0.67352295 -1.6287079 -1.4319458 -4.8810806 -2.2753296 -9.757111l-5.284546 -30.552982z" fill-rule="evenodd"></path><path fill="#606c71" d="m695.7894 24.45493c-2.8703003 0.49645424 -5.4970703 1.3366413 -7.880432 2.5205612c-2.3738403 1.1703968 -4.194275 2.417221 -5.4612427 3.7404747c-1.6973267 1.7182274 -2.9293823 3.724018 -3.696228 6.0173683c-0.7572632 2.279831 -0.923584 4.6474 -0.49890137 7.102707c0.46655273 2.6973763 1.5733643 5.0465736 3.3203735 7.047592c1.7565308 1.9874954 4.064331 3.3869553 6.923401 4.1983795c2.8685913 0.7978935 7.8760376 1.4692345 15.022339 2.0140076c5.3048096 0.40026093 8.668762 0.9047203 10.091858 1.5133705c2.0421753 0.8933487 3.2457275 2.3947678 3.6105957 4.5042534c0.40673828 2.3515587 -0.27581787 4.5828514 -2.0476685 6.693882c-1.7738647 2.099495 -4.8048706 3.5200882 -9.093018 4.26178c-4.25354 0.73571014 -7.738098 0.32334137 -10.453674 -1.2370911c-2.7040405 -1.562439 -4.635437 -4.148918 -5.7941895 -7.759445l-8.982117 3.049469c2.0483398 5.664871 5.202881 9.660332 9.463623 11.986382c4.272278 2.3240585 9.987671 2.867012 17.146118 1.6288681c4.322693 -0.74767303 8.066284 -2.1668625 11.230713 -4.2575607c3.1624146 -2.1022263 5.411255 -4.6816025 6.74646 -7.738106c1.3447876 -3.0700378 1.7480469 -6.161232 1.2097168 -9.27359c-0.55029297 -3.1815224 -1.7543335 -5.7157173 -3.6121826 -7.6025887c-1.8579102 -1.8868713 -4.1918335 -3.163086 -7.001953 -3.8286324c-2.800537 -0.67908096 -7.655945 -1.3292274 -14.566101 -1.9504509c-4.7801514 -0.45540237 -7.666992 -0.7752609 -8.660522 -0.9595833c-1.7389526 -0.37592697 -3.0756226 -0.9995308 -4.0098877 -1.8708115c-0.9282837 -0.83670044 -1.4970703 -1.8602295 -1.7064209 -3.070591c-0.3289795 -1.9019966 0.300354 -3.7204285 1.8879395 -5.4552956c1.5875854 -1.7348633 4.5254517 -2.9731445 8.813599 -3.7148323c3.6311035 -0.62804604 6.5756226 -0.3181572 8.833435 0.92967224c2.2693481 1.2458344 3.8567505 3.2507172 4.762207 6.0146446l8.914307 -2.824028c-1.2039795 -3.4602356 -2.767517 -6.1162815 -4.6905518 -7.968136c-1.9250488 -1.8633785 -4.63208 -3.1344242 -8.121155 -3.8131275c-3.477539 -0.6807022 -7.3776855 -0.6472149 -11.700439 0.100458145z" fill-rule="evenodd"></path><path stroke="#ffffff" stroke-width="1.0" stroke-linejoin="round" stroke-linecap="butt" d="m154.61504 97.7568l1.8572083 10.737633l9.337097 -1.6149673l-1.8572083 -10.73764zm3.62471 20.95655l9.528336 55.088745l9.337112 -1.614975l-9.528351 -55.088745z" fill-rule="evenodd"></path><path stroke="#ffffff" stroke-width="1.0" stroke-linejoin="round" stroke-linecap="butt" d="m206.62921 109.06157c-3.66568 0.6340256 -6.791107 2.023468 -9.376297 4.1683197c-2.5871735 2.1333237 -4.512024 4.6982117 -5.7745667 7.6946564l-1.3368378 -7.729027l-8.351517 1.4445038l9.528336 55.088753l9.337097 -1.614975l-4.943619 -28.581833c-0.8672943 -5.0143433 -1.0297852 -8.9396515 -0.4874878 -11.775909c0.5423126 -2.836258 1.8062134 -5.13842 3.7917328 -6.906494c1.9970398 -1.7700653 4.309662 -2.882393 6.9378815 -3.336975c3.458191 -0.59814453 6.1275177 0.008651733 8.008011 1.8203735c1.8804779 1.8117294 3.1796112 4.7924957 3.8973694 8.9423065l6.190735 35.79213l9.337097 -1.614975l-5.5357666 -32.005417c-0.98095703 -5.671417 -0.41419983 -10.013718 1.7002411 -13.0269165c2.112442 -3.0247269 5.105255 -4.8720474 8.978424 -5.5419693c2.1440735 -0.37084198 4.098221 -0.19239807 5.862442 0.5353241c1.7642212 0.7277298 3.0886078 1.8639526 3.9731293 3.4086761c0.8940735 1.5311966 1.664093 4.1642075 2.310089 7.89904l6.002304 34.702805l9.285248 -1.6060028l-6.5406494 -37.815163c-1.088623 -6.2938766 -3.3638306 -10.696678 -6.8256683 -13.208405c-3.4638214 -2.5232468 -7.927704 -3.3123474 -13.391632 -2.3672867c-6.9855347 1.2082367 -12.100693 5.4052887 -15.345459 12.591148c-1.5984039 -2.8577728 -3.8524933 -4.9076157 -6.762268 -6.1495285c-2.8982697 -1.2439117 -6.3877106 -1.5129623 -10.468369 -0.8071594z" fill-rule="evenodd"></path><path stroke="#ffffff" stroke-width="1.0" stroke-linejoin="round" stroke-linecap="butt" d="m270.07745 99.36956l5.9036255 34.132195c0.6878357 3.9768982 1.3804932 6.848877 2.0779114 8.615921c1.0258179 2.6362457 2.3823547 4.7819824 4.0695496 6.4371796c1.6967468 1.6416779 4.059082 2.841751 7.0870667 3.6002045c3.0395203 0.7564697 6.1846313 0.85357666 9.435333 0.2913208c7.3659363 -1.2740326 12.654633 -5.3942566 15.86615 -12.360657l1.3996277 8.092133l8.351532 -1.4445038l-9.528351 -55.088753l-9.337097 1.614975l5.1051025 29.515533c0.81347656 4.703125 0.9215698 8.382576 0.3243103 11.038399c-0.58773804 2.642273 -1.9846191 4.8962097 -4.190735 6.761795c-2.2080688 1.854065 -4.712677 3.0233307 -7.513794 3.5078278c-2.8011475 0.48449707 -5.2733154 0.1938324 -7.416565 -0.871994c-2.1452637 -1.0773468 -3.7241516 -2.7928314 -4.736725 -5.146454c-0.67349243 -1.6287079 -1.4319153 -4.8810883 -2.275299 -9.757111l-5.284546 -30.552986z" fill-rule="evenodd"></path><path stroke="#ffffff" stroke-width="1.0" stroke-linejoin="round" stroke-linecap="butt" d="m325.53583 68.19382l13.153046 76.0453l9.337097 -1.614975l-13.153046 -76.045296z" fill-rule="evenodd"></path><path stroke="#ffffff" stroke-width="1.0" stroke-linejoin="round" stroke-linecap="butt" d="m360.63852 63.885357l-8.316254 7.208248l2.3596802 13.642502l-6.847229 1.1843109l1.2561035 7.2621765l6.8471985 -1.1843185l5.4819336 31.694191c0.96899414 5.6022415 1.9854126 9.213631 3.0492554 10.83419c1.0618896 1.609024 2.6192322 2.7880554 4.6720886 3.537094c2.052826 0.7490387 4.773773 0.83047485 8.162781 0.24430847c2.0749207 -0.35888672 4.3786316 -1.0422821 6.911133 -2.050171l-2.775238 -8.014481c-1.6526489 0.5351715 -2.9976807 0.8924713 -4.0351562 1.0719147c-1.3832703 0.23924255 -2.4884338 0.19889832 -3.3154602 -0.12107849c-0.8154907 -0.32196045 -1.4561768 -0.8344269 -1.9220581 -1.5374069c-0.45437622 -0.7049713 -0.9118347 -2.388855 -1.3723755 -5.051651l-5.571686 -32.212906l9.388977 -1.6239471l-1.256073 -7.262169l-9.388977 1.6239395l-3.3286438 -19.244747z" fill-rule="evenodd"></path><path stroke="#ffffff" stroke-width="1.0" stroke-linejoin="round" stroke-linecap="butt" d="m422.4017 101.28464l0.5921631 3.4235992c0.711792 4.1152267 0.7486572 7.314316 0.11065674 9.597267c-0.84158325 2.9592514 -2.5263672 5.4707336 -5.054352 7.534462c-2.5299683 2.0522003 -5.5932007 3.389328 -9.189728 4.0113983c-3.631073 0.6280441 -6.535431 0.27559662 -8.713013 -1.0573502c-2.1660461 -1.334938 -3.464386 -3.247345 -3.89505 -5.737236c-0.28112793 -1.6253433 -0.10406494 -3.1755981 0.53118896 -4.6507645c0.63327026 -1.486702 1.6854858 -2.7134323 3.1566162 -3.680214c1.4711304 -0.9667816 4.0781555 -2.058792 7.8210144 -3.2760315c6.610565 -2.1406403 11.490753 -4.1956787 14.640503 -6.1651306zm-16.840424 -26.630966c-4.7377014 0.8194504 -8.792175 2.1914978 -12.163391 4.1161423c-3.3731995 1.9131165 -5.8024597 4.238762 -7.2877502 6.9769287c-1.4873047 2.7266464 -2.3079834 6.115616 -2.4620361 10.166908l9.34494 -0.3341446c0.32696533 -4.0811996 1.4010925 -7.0687943 3.222351 -8.962799c1.83078 -1.9075165 4.9421387 -3.2411041 9.334045 -4.0007324c4.703125 -0.81346893 8.430206 -0.37181854 11.181213 1.3249512c2.032837 1.2511292 3.3782349 3.7786942 4.0361633 7.5826874c0.059814453 0.34581757 0.18310547 1.1614761 0.36984253 2.4469833c-3.3466187 1.8610306 -8.711578 3.893074 -16.09491 6.096138c-3.6224976 1.0895767 -6.3082886 2.034935 -8.057404 2.8360977c-2.3702698 1.1222916 -4.435852 2.5302505 -6.196808 4.2238617c-1.7494202 1.6916199 -3.0474548 3.7622452 -3.8940735 6.2118683c-0.83709717 2.4360962 -1.0223389 5.002838 -0.55581665 7.700218c0.7955322 4.599373 3.0748596 8.09919 6.8379517 10.499443c3.7611084 2.3887177 8.667572 3.059723 14.719391 2.0129852c3.66568 -0.6340332 6.9903564 -1.832367 9.974091 -3.5950165c2.9952087 -1.7646332 5.9677124 -4.415741 8.91748 -7.953331c0.72528076 2.545784 1.7395325 4.703224 3.0427856 6.472328l9.752075 -1.6867523c-1.5406494 -1.9061203 -2.71109 -3.9712524 -3.511322 -6.1953964c-0.79067993 -2.2376633 -1.936676 -7.6965027 -3.4380188 -16.376526l-2.1532898 -12.449432c-0.71777344 -4.149811 -1.3698425 -6.9931793 -1.9562073 -8.530113c-0.99594116 -2.4633484 -2.3300781 -4.4111176 -4.002472 -5.843315c-1.6743469 -1.4437256 -4.0769653 -2.4646835 -7.2078247 -3.0628815c-3.1308594 -0.59819794 -7.047882 -0.49057007 -11.751007 0.32289886z" fill-rule="evenodd"></path><path stroke="#ffffff" stroke-width="1.0" stroke-linejoin="round" stroke-linecap="butt" d="m467.2899 63.976906c-7.642578 1.3218842 -12.963562 5.3586426 -15.962891 12.110275l-1.3547668 -7.8327713l-8.403412 1.453476l9.528351 55.088745l9.337097 -1.6149673l-5.2037964 -30.086136c-1.2202148 -7.05468 -0.60769653 -12.093483 1.8374634 -15.116394c2.456726 -3.02491 5.673523 -4.8812943 9.650421 -5.569153c2.4898987 -0.43066406 4.75473 -0.24066162 6.7944946 0.5700073c2.049286 0.797142 3.600525 2.0781403 4.653717 3.8430023c1.0512085 1.753334 1.9057922 4.5319977 2.5637512 8.335991l5.7959595 33.509727l9.337097 -1.614975l-5.8587646 -33.872833c-0.74768066 -4.3227234 -1.4439697 -7.318718 -2.0888367 -8.987991c-1.0138855 -2.567093 -2.3799438 -4.6993027 -4.098175 -6.3966293c-1.7182312 -1.697319 -4.0747986 -2.898384 -7.0697937 -3.6031952c-2.9854126 -0.7183304 -6.1380615 -0.79039 -9.457916 -0.2161789z" fill-rule="evenodd"></path><path stroke="#ffffff" stroke-width="1.0" stroke-linejoin="round" stroke-linecap="butt" d="m524.48474 61.99114c4.737671 -0.8194504 8.904602 0.3118782 12.500732 3.393978c2.3372803 1.9820251 4.114197 5.2541275 5.3306885 9.816307l-30.760529 5.3204346c-0.5201721 -4.860695 0.42971802 -8.978409 2.84964 -12.353119c2.4315186 -3.376709 5.791321 -5.4359093 10.079468 -6.177601zm-1.4316406 -7.65921c-7.607971 1.3159065 -13.35553 4.9456215 -17.242584 10.889156c-3.8870544 5.943527 -5.0290527 13.549255 -3.426056 22.817162c1.5491943 8.95668 5.110779 15.511406 10.684753 19.664192c5.583496 4.1392593 12.404053 5.5120697 20.461609 4.118408c6.397644 -1.1065598 11.384949 -3.571907 14.961853 -7.3960495c3.5769043 -3.8241425 5.638672 -8.686218 6.1853027 -14.586227l-9.854675 0.4757309c-0.7359619 4.187561 -2.1588135 7.3898163 -4.2684937 9.606766c-2.1096802 2.2169418 -4.876343 3.621498 -8.299988 4.2136536c-4.599365 0.7955246 -8.716064 -0.14859772 -12.350159 -2.8323517c-3.6340332 -2.6837616 -6.147339 -7.0216446 -7.539917 -13.013634l41.083252 -7.1058807c-0.15679932 -1.1126022 -0.28308105 -1.9455566 -0.37878418 -2.4988632c-1.5731201 -9.095001 -5.1275635 -15.745941 -10.663452 -19.952808c-5.5358276 -4.206867 -11.986694 -5.6732864 -19.352661 -4.399254z" fill-rule="evenodd"></path><path stroke="#ffffff" stroke-width="1.0" stroke-linejoin="round" stroke-linecap="butt" d="m583.2137 51.886623c4.599365 -0.7955246 8.747803 0.29745102 12.44519 3.2789268c3.7069702 2.9679565 6.149597 7.858238 7.327942 14.670845c1.2501221 7.227585 0.6412964 12.871223 -1.826355 16.930908c-2.4677124 4.059677 -6.0185547 6.4902725 -10.652466 7.2917786c-4.668579 0.8074875 -8.844788 -0.27474213 -12.528687 -3.2466812c-3.685913 -2.9834747 -6.138977 -8.002548 -7.359131 -15.057228c-1.2202148 -7.05468 -0.59350586 -12.594566 1.880188 -16.619667c2.4736328 -4.0251007 6.044739 -6.441395 10.713318 -7.2488823zm-1.336853 -7.729023c-6.812622 1.1783333 -12.234863 4.2175484 -16.266785 9.117645c-4.8220825 5.891556 -6.35083 13.938141 -4.5863647 24.139763c1.6090088 9.302498 5.2158203 16.015617 10.820374 20.139366c5.616089 4.12175 12.280029 5.515709 19.99176 4.181862c4.806885 -0.83141327 9.044739 -2.721939 12.713562 -5.671562c3.680359 -2.9516296 6.2301025 -6.6396713 7.649292 -11.064117c1.428772 -4.437973 1.5300293 -10.2015915 0.303833 -17.290848c-1.5132446 -8.749187 -5.1019897 -15.186432 -10.766235 -19.31174c-5.6661987 -4.136833 -12.286011 -5.550289 -19.859436 -4.240368z" fill-rule="evenodd"></path><path stroke="#ffffff" stroke-width="1.0" stroke-linejoin="round" stroke-linecap="butt" d="m618.6106 39.086205l5.9036255 34.132202c0.6878662 3.9768982 1.3804932 6.8488693 2.0778809 8.615906c1.0258789 2.636261 2.3823853 4.7819824 4.06958 6.437195c1.6967773 1.6416702 4.059143 2.8417435 7.087097 3.6002045c3.0394897 0.7564621 6.1846313 0.85356903 9.435303 0.2913208c7.365906 -1.2740326 12.654663 -5.3942566 15.86615 -12.360664l1.3996582 8.092133l8.351501 -1.4445038l-9.52832 -55.088745l-9.337097 1.6149731l5.1051025 29.515533c0.81347656 4.703121 0.9215698 8.38258 0.3242798 11.038395c-0.5877075 2.6422806 -1.9846191 4.8962173 -4.190735 6.7618027c-2.2080688 1.8540573 -4.7126465 3.0233307 -7.513794 3.5078278c-2.8011475 0.48448944 -5.2733154 0.19382477 -7.416565 -0.871994c-2.1452637 -1.0773544 -3.7241821 -2.792839 -4.7366943 -5.1464615c-0.67352295 -1.6287079 -1.4319458 -4.8810806 -2.2753296 -9.757111l-5.284546 -30.552982z" fill-rule="evenodd"></path><path stroke="#ffffff" stroke-width="1.0" stroke-linejoin="round" stroke-linecap="butt" d="m695.7894 24.45493c-2.8703003 0.49645424 -5.4970703 1.3366413 -7.880432 2.5205612c-2.3738403 1.1703968 -4.194275 2.417221 -5.4612427 3.7404747c-1.6973267 1.7182274 -2.9293823 3.724018 -3.696228 6.0173683c-0.7572632 2.279831 -0.923584 4.6474 -0.49890137 7.102707c0.46655273 2.6973763 1.5733643 5.0465736 3.3203735 7.047592c1.7565308 1.9874954 4.064331 3.3869553 6.923401 4.1983795c2.8685913 0.7978935 7.8760376 1.4692345 15.022339 2.0140076c5.3048096 0.40026093 8.668762 0.9047203 10.091858 1.5133705c2.0421753 0.8933487 3.2457275 2.3947678 3.6105957 4.5042534c0.40673828 2.3515587 -0.27581787 4.5828514 -2.0476685 6.693882c-1.7738647 2.099495 -4.8048706 3.5200882 -9.093018 4.26178c-4.25354 0.73571014 -7.738098 0.32334137 -10.453674 -1.2370911c-2.7040405 -1.562439 -4.635437 -4.148918 -5.7941895 -7.759445l-8.982117 3.049469c2.0483398 5.664871 5.202881 9.660332 9.463623 11.986382c4.272278 2.3240585 9.987671 2.867012 17.146118 1.6288681c4.322693 -0.74767303 8.066284 -2.1668625 11.230713 -4.2575607c3.1624146 -2.1022263 5.411255 -4.6816025 6.74646 -7.738106c1.3447876 -3.0700378 1.7480469 -6.161232 1.2097168 -9.27359c-0.55029297 -3.1815224 -1.7543335 -5.7157173 -3.6121826 -7.6025887c-1.8579102 -1.8868713 -4.1918335 -3.163086 -7.001953 -3.8286324c-2.800537 -0.67908096 -7.655945 -1.3292274 -14.566101 -1.9504509c-4.7801514 -0.45540237 -7.666992 -0.7752609 -8.660522 -0.9595833c-1.7389526 -0.37592697 -3.0756226 -0.9995308 -4.0098877 -1.8708115c-0.9282837 -0.83670044 -1.4970703 -1.8602295 -1.7064209 -3.070591c-0.3289795 -1.9019966 0.300354 -3.7204285 1.8879395 -5.4552956c1.5875854 -1.7348633 4.5254517 -2.9731445 8.813599 -3.7148323c3.6311035 -0.62804604 6.5756226 -0.3181572 8.833435 0.92967224c2.2693481 1.2458344 3.8567505 3.2507172 4.762207 6.0146446l8.914307 -2.824028c-1.2039795 -3.4602356 -2.767517 -6.1162815 -4.6905518 -7.968136c-1.9250488 -1.8633785 -4.63208 -3.1344242 -8.121155 -3.8131275c-3.477539 -0.6807022 -7.3776855 -0.6472149 -11.700439 0.100458145z" fill-rule="evenodd"></path><path fill="#ffffff" d="m177.70581 149.39813l0 84.839554l53.01036 0l0 -10.011765l-41.78328 0l0 -74.82779z" fill-rule="evenodd"></path></g></svg>

